<?xml version="1.0" encoding="UTF-8"?>
<!-- Created with Inkscape (http://www.inkscape.org/) -->
<svg width="129.447mm" height="15.0563mm" version="1.1" viewBox="0 0 129.447 15.0563" xmlns="http://www.w3.org/2000/svg">
	<style type="text/css">
		path {
		stroke: #222222;
		}
		@media (prefers-color-scheme: dark) {
		path {
		stroke: #eaebed;
		}
		}
	</style>
	<g transform="matrix(.264583 0 0 .264583 148.787 -75.4533)" fill="none" stroke-linecap="round" stroke-linejoin="round" stroke-width="3">
		<path d="m-557.584 291.867c1.61961 3.30343-1.27736 16.0524-1.337 22.8099 0.32056 8.28718-3.91299 18.175 0.868 25.4071l1.204-0.23" />
		<path d="m-545.658 326.767c3.25424 4.91957 17.4728-3.76018 10.755-9.445-8.27519 2.15027-14.1751 21.6587-1.42018 20.7451 1.55652-0.32434 3.48768 0.15999 4.80118-0.85208" />
		<path d="m-521.674 320.173c9.63364-4.95016 17.7423 12.5088 4.25458 7.016-9.83576 1.92226-5.022 14.0969 3.84869 8.62912 3.23834-1.2253 6.56338-2.11266 9.23028-4.44476" />
		<path d="m-494.838 319.834c-1.68706 2.89606-0.40495 14.3991 0.768 17.216 1.11069-7.20281-0.50606-15.7326 4.493-22.151 1.07912 0.52649 2.13774 0.20847 3.213-0.028" />
		<path d="m-476.371 319.847c0.28323 4.50051-5.92576 17.2267 0.745 17.841 5.12877-2.30409 7.27296-16.2055 11.379-13.095-3.07652 8.76929 3.77998 16.4256 13.0009 12.323 2.38781-0.39373 4.61811-1.46543 6.93612-2.13604" />
		<path d="m-415.486 314.439c0.61647 3.30769 0.75871 13.8516 0.706 19.593 1.45772 12.8574 9.07113-6.55417 10.9631-10.9459 5.50595-9.14859 0.23305 9.04743 3.73292 11.6789 5.74981-2.14018 13.9933-16.6874 13.252-15.1936-1.90298 6.13303-0.74477 17.8945 8.23998 16.2256" />
		<path d="m-362.447 323.101c-5.09461-7.70423-18.4031 9.5868-8.997 12.23 8.52083-0.0302 11.9695-9.47042 12.735-16.683" />
		<path d="m-352.003 321.221c-0.32367 2.38851 0.025 24.619 2.00801 9.53096 0.34086-9.17959 8.11192-14.0905 14.9054-7.19198 5.69758 5.70208 14.2871-5.9511 8.63061-8.76998-6.40382 1.59486-10.1909 11.3275-9.141 17.636 6.26531 5.48275 16.9373 0.34782 24.069-1.113" />
		<path d="m-279.98 316.081c5.64637-8.57237 14.2595-1.73102 11.8644 6.74395 2.73154 13.4636-9.54746 1.30709-13.9524 7.09305-1.6276 8.68778 13.6585 5.57747 18.068 4.177" />
		<path d="m-252.354 287.178c-2.99252 8.33867 0.13628 20.0914-0.18423 29.7202 0.40907 5.56551-0.11031 26.0383 6.12189 12.7859 3.39395-11.3442 15.578-0.5208 5.61762 5.09029-2.29123 1.72477-9.80849 3.93609-4.36228-0.60239" />
		<path d="m-218.578 324.46c-3.60542-6.89685-17.3379 6.86508-8.7317 11.9338 8.05297 0.44183 11.1522-4.83835 11.4119-12.1628 0.0466-1.31512 7.09384-0.55358 7.1274-1.62004-4.9853 7.61014-2.3339 17.8093 5.81267 10.6672 3.15047-2.53154 3.98707-7.26988 4.43277-11.4921" />
		<path d="m-189.293 294.689c1.00974 13.2935-2.79594 26.3844-1.412 39.621 4.94697 7.58522-4.98097-17.2121 3.55714-15.1874 3.16019-0.8358 9.53995-1.00496 12.6773-1.93983" />
		<path d="m-144.787 317.098c5.07051 5.34518-3.18516 20.8526 4.27474 20.3122 6.57561-1.65512 9.01407-19.6712 11.8513-15.7022-1.40541 10.1296 1.76912 16.9337 10.0064 6.31823 7.50993-10.8705 5.5383-5.05781 5.3091 4.98577 4.60302 6.32052 13.393-0.75514 18.7947-3.227 4.56625-3.18127 11.0949-19.8459 0.6134-12.312-6.07246 5.09363-8.84237 19.389 2.5424 19.346 5.59502-0.39002 11.2542-1.97739 16.2968-4.288" />
	</g>
</svg>
