<?xml version="1.0" encoding="UTF-8"?>
<!-- Created for saecula.io with Inkscape (http://www.inkscape.org/) -->
<svg width="512" height="512" version="1.1" viewBox="0 0 135.467 135.467" xml:space="preserve" xmlns="http://www.w3.org/2000/svg">
	<style type="text/css">
		path {
		stroke: #222222;
		}
		@media (prefers-color-scheme: dark) {
		path {
		stroke: #eaebed;
		}
		}
	</style>
	<g transform="translate(41.2636 41.2912)" fill="none" stroke-linejoin="round" stroke-width="6.08542">
		<path d="m-31.9724 14.9207c11.0879-12.8097 22.3557-26.7946 38.4224-33.4706 15.2061-6.19972 31.8535-0.671956 45.5759 6.6092 9.68807 5.67102 20.328 10.5611 27.8571 19.1398 5.06507 7.17031 9.74684 15.1507 11.2009 23.9235 0.83673 10.7384-7.43485 19.0472-13.9292 26.5286-6.98768 7.46113-13.4722 15.7962-22.7542 20.5896-15.4442 8.98473-35.2976 8.60675-50.8494 0.076-13.7081-7.3219-25.0343-18.7569-33.5127-31.6654-3.12509-6.60179-10.099-12.8914-7.8248-20.8436 1.18475-3.97565 3.51687-7.47935 5.81399-10.8871z" />
		<path d="m-0.935928 53.7731c-4.41192 4.22415 1.80503 12.4662 4.16659 12.7026-1.38886-4.23421-2.77773-8.46842-4.16659-12.7026z" />
		<path d="m48.813 54.464c-4.40947 4.21945 1.79522 12.4609 4.15629 12.6961-1.38543-4.23204-2.77086-8.46407-4.15629-12.6961z" />
	</g>
</svg>
