<?xml version="1.0" encoding="UTF-8"?>
<!-- Created with Inkscape (http://www.inkscape.org/) -->
<svg width="148.608mm" height="21.1066mm" version="1.1" viewBox="0 0 148.608 21.1066" xmlns="http://www.w3.org/2000/svg">
	<style type="text/css">
		path {
		stroke: #181a1b;
		}
		@media (prefers-color-scheme: dark) {
		path {
		stroke: #e3e3e3;
		}
		}
	</style>
	<g transform="matrix(.264583 0 0 .264583 145.723 -18.8561)" fill="none" stroke-linecap="round" stroke-linejoin="round" stroke-width="3">
		<path d="m-530.552 87.3189c-4.95713 4.48303-13.8638 10.3587-18.213 16.6801 6.25034 0.76865 19.375-2.72775 18.5091 7.70148-3.21747 5.86913-8.80269 12.1709-15.7431 12.2215 0.83714-1.44381 1.1284-3.07959 2.956-3.629" />
		<path d="m-515.598 111.247c5.52478 3.71744 19.209-9.68176 9.05987-7.87907-5.17898 2.08169-13.4627 12.1019-7.73068 16.4145 3.15168 0.82273 6.57207-0.30887 9.29581-2.04639" />
		<path d="m-494.232 108.925c3.54958 4.22452 17.1384-4.03309 12.7734-7.46841-6.40831 1.39191-18.4097 11.6992-10.0214 17.2424 6.11893 2.58655 12.8574 1.02099 19.227 0.464" />
		<path d="m-435.906 101.048c-2.83323 1.16969-5.59358 17.0279 0.71849 17.4478 8.20477-6.03501 10.4321-8.94964 14.7706 2.51404 9.22359 4.95733 12.9249-14.031 9.86988-18.7247" />
		<path d="m-401.256 75.6573c-1.09209 7.21824 1.00177 18.3606 0.21271 27.0783-0.91891 5.7167-1.06591 23.7226 7.15646 13.0383 4.78363-6.43724 11.3128-16.0906 7.74183-2.46042-2.11825 9.90366 7.26552 13.0896 14.34 7.353" />
		<path d="m-366.448 105.887c-0.22127-6.22825 12.2486-2.33993 9.69166 5.08551 1.80732 7.63676-13.4999-0.90399-10.4957 9.51449 4.37992 2.54648 11.1971-2.67391 14.733-6.019" />
		<path d="m-334.707 79.9973c-1.44672 0.997557-1.98722 16.3569-3.44139 22.382-0.6439 5.66487-1.17842 11.5664-0.39661 17.2307" />
		<path d="m-340.062 107.22c-6.47384-3.88853 9.80904-2.45187 12.61-5.828" />
		<path d="m-287.357 88.2668c3.02263 10.6644-2.33375 21.8716 0.555 32.5782" />
		<path d="m-296.818 88.2757c5.47572-3.2634 15.3185-5.12548 22.7721-6.31428 2.21932-0.13095 4.62963-0.152692 6.6119 0.99908" />
		<path d="m-300.772 122.114c9.09194 1.53364 18.272-0.62345 27.337-1.66" />
		<path d="m-248.971 79.916c-2.16988 4.47497-4.70568 8.78391-6.19 13.5555" />
		<path d="m-256.97 107.1c1.54337-2.00944-1.57168 16.5753 5.401 16.658 3.86008-11.4527 2.1726-12.5664 13.184-8.29104 7.699-0.37754 9.90336-16.5703 1.16152-7.36388-6.34514 5.1709-4.10389 17.6988 5.77919 15.1546 4.07802-0.22626 8.43384-0.52091 12.2643-2.04868" />
		<path d="m-186.65 80.7633c2.35325-6.50662 0.95807 14.0194 0.62979 18.2103 0.17594 5.36171-2.5301 22.5329 0.62233 21.2308-0.74835-7.541 14.2966-13.1078 9.10022-2.56973-10.8069 6.45151-6.28885 6.72109 2.56887 2.13946 6.14001-1.73563 18.5366-5.30555 15.0448-13.8296-6.8537 0.54489-9.33092 16.0009 0.59927 14.2702 7.74537 0.10578 19.9697-3.95456 18.6887-13.3962-9.394-3.45213-15.2464 15.7154-2.97801 14.0025 8.966 0.59211 15.7816-9.88257 17.564-14.9525-3.57997 5.27317-3.99745 23.0889 4.86396 12.9877 6.18242-10.3859 6.68222-10.1369 10.9165 0.0506 1.98288 2.43064 5.43006 1.8747 8.17515 2.06671" />
		<path d="m-77.6602 106.789c0.340916 0.74016-5.19967 16.3146 3.9588 15.359 5.94484-2.26901 15.3501-7.98837 11.0135-15.657" />
		<path d="m-56.2449 109.585c2.38574 13.0761-2.41382 26.3268-3.6175 39.469 1.62156-14.254 1.72004-30.292 10.4518-42.25 13.6099-5.86575-0.308714 16.2806-4.2106 9.227" />
		<path d="m-12.5718 73.2674c-2.21347 17.0167-0.600793 35.5314-4.57763 51.9511" />
		<path d="m-18.9558 105.515c0.13274-2.88643 13.9945-0.62168 19.2912-1.89364 11.9482-2.9076-10.1374 11.3078-0.434389 14.5738 7.88465 1.44618 13.839-12.9761 3.42061-13.1837l-0.588651-0.0475-0.7811 0.247" />
	</g>
</svg>
