<?xml version="1.0" encoding="UTF-8"?>
<!-- Created for saecula.io with Inkscape (http://www.inkscape.org/) -->
<svg width="512" height="512" version="1.1" viewBox="0 0 135.467 135.467" xml:space="preserve" xmlns="http://www.w3.org/2000/svg">
	<style type="text/css">
		path, circle {
		stroke: #181a1b;
		}
		path {
		fill: #181a1b;
		}
		@media (prefers-color-scheme: dark) {
		path, circle {
		stroke: #e3e3e3;
		}
		path {
		fill: #e3e3e3;
		}
		}
	</style>
	<g transform="translate(41.2636 24.2912)">
		<g transform="matrix(2.6736 0 0 2.6736 -36.0029 -16.7578)" stroke-linecap="square">
			<path d="m10.2046 37.6114c-2.35058-5.14969-3.34886-3.2638-3.56069-4.62099-0.13323-0.853617 3.35028-0.512017 4.56779 2.27975 2.17988 3.25092 4.63758 2.15701 6.57325 1.59023l0.01776 2.95983c-1.46169 0.667756-6.38693 0.454308-7.59812-2.20882z" vector-effect="non-scaling-stroke" />
			<path d="m17.8028 45.2875c0.07429-2.06881 0.03184-4.08595 0-5.46731-0.03419-1.48342-0.117648-2.08217-0.01776-2.95983 0.18555-1.63033 0.65778-2.66083 1.58996-3.11748-10.1976-0.03432-13.1165-11.4676-8.21803-17.2524-0.85749-1.90644-0.676263-3.93752 0.108848-6.04107 3.74431 0.390004 4.68447 1.50108 6.25877 2.44908 1.78854-0.368045 3.39274-0.836639 5.86546-0.8315l-0.0038 34.0438zm11.1668 0c-0.07429-2.06881-0.03184-4.08595 0-5.46731 0.03419-1.48342 0.117648-2.08217 0.01776-2.95983-0.18555-1.63033-0.65778-2.66083-1.58996-3.11748 10.1976-0.03432 13.1165-11.4676 8.21803-17.2524 0.85749-1.90644 0.676263-3.93752-0.108848-6.04107-3.74431 0.390004-4.68447 1.50108-6.25877 2.44908-1.78854-0.368045-3.39274-0.836639-5.86546-0.8315l0.0038 34.0438z" vector-effect="non-scaling-stroke" />
			<circle cx="23.3665" cy="22.5165" r="24.1595" fill="none" stroke-width="2.34928" />
		</g>
		<path d="m7.10467 17.6847h6.91827v22.3457h-6.91827z" stroke-width=".0952736" vector-effect="non-scaling-stroke" />
		<g>
		</g>
	</g>
</svg>
