<?xml version="1.0" encoding="UTF-8"?>
<svg width="505" height="72" version="1.2" viewBox="0 0 505 72" xmlns="http://www.w3.org/2000/svg" xmlns:cc="http://creativecommons.org/ns#" xmlns:dc="http://purl.org/dc/elements/1.1/" xmlns:rdf="http://www.w3.org/1999/02/22-rdf-syntax-ns#">
    <style type="text/css">
		path {
		stroke: #181a1b;
		}
		@media (prefers-color-scheme: dark) {
		path {
		stroke: #e3e3e3;
		}
		}
	</style>
 <g transform="translate(560.801,-83.5304)" fill="none" stroke-linecap="round" stroke-linejoin="round" stroke-width="5">
  <path d="m-556.171 90.3696c-2.88778 8.27412-0.34255 17.5293-0.83779 26.1072 1.49438 7.91309-1.69648 16.6836 0.62479 24.1042"/>
  <path d="m-538.933 86.5304c4.56239 15.6003 2.41634 33.6367 2.00545 50.2049-0.0413 0.72216 1.08838 1.06589 1.15655 1.75267"/>
  <path d="m-557.801 120.219c2.11533-4.1781 9.47678-2.85626 14.0012-3.39609 1.81858 0.38257 3.57917 0.54939 5.4218 0.20709"/>
  <path d="m-517.832 122.651c-0.65106 3.97987 0.58377 10.3194 0.54958 15.5598 0.26053 1.10801 0.58811 2.0837 1.45442 2.87117"/>
  <path d="m-515.067 108.577c-3.52951-1.02659 0.0409-0.47667 0.37 1.046"/>
  <path d="m-500.695 139.171c-2.53559 2.66695-4.12189 8.50398-5.551 12.571"/>
  <path d="m-433.936 95.5315c0.70519-3.56564 1.07379 9.25037 0.39426 12.5272-0.36687 8.02664-2.66262 16.9099 0.0427 24.5953"/>
  <path d="m-445.429 92.9801c5.56704-1.10652 13.6991-2.65839 20.257-2.1563"/>
  <path d="m-447.625 138.809c3.61797 1.39783 9.73505-0.82967 14.4214-1.54225 3.67983-0.82907 7.57055-0.28618 11.3236-0.51675"/>
  <path d="m-309.674 94.2023c-0.87695 3.75998 2.22893 11.1356 2.47405 16.3542 1.81539 11.7775 3.40821 23.7039 4.48395 35.4605"/>
  <path d="m-281.793 92.4671c-3.09344 1.0872-6.17786 9.14552-10.727 11.427-6.01498 5.05157-15.6773 10.7373-12.0705 20.0336 3.91219 7.40258 12.7349 9.35829 20.3885 11.0482 3.69092 1.77234 8.26258 1.32707 12.315 2.379"/>
  <path d="m-264.216 119.803c0.42939-3.14301 9.84933-0.46284 11.9577 2.81861 3.32391 2.65121 8.30863 13.2863 0.11921 9.43698-3.50982-1.66052-13.1153-1.04348-9.12549 4.50031 2.65019 1.40009 6.18406 3.15845 9.27057 2.1111"/>
  <path d="m-229.184 99.655c-0.77211 9.13164 1.38927 19.9709 2.75275 29.6173 0.65806 1.91795 0.65024 4.91687 2.18425 6.16674"/>
  <path d="m-237.252 117.338c1.25499-0.30932 10.1745 1.03727 14.4819-0.31581 8.96086-1.67059 17.7715-10.0048 14.8725-19.8521 0.24141-5.08442-3.98183-14.1535-6.4904-4.79105-5.18883 12.2512-2.13149 26.2871 3.12101 37.918 3.48328-0.20514 7.11205-13.1593 9.03126-5.90017 2.99058 4.71401 4.58559 11.3748 11.8427 9.82917"/>
  <path d="m-179.439 92.4568c-0.87589 0.02589-1.1778 11.0036-0.50539 15.1651 1.44289 8.61223 4.23505 17.7448 9.32739 24.8631 0.78583-0.50982 1.26066 0.32006 1.849 0.661"/>
  <path d="m-160.415 123.494c3.73036 0.55878 10.4414 0.66248 12.868-3.488-0.31359-6.96321-9.78631-2.73917-11.6435 1.23431-4.47012 4.44972-3.25221 13.5255 3.86654 13.7047 2.99587 0.91589 6.07933 0.31009 8.898-0.899"/>
  <path d="m-133.682 127.779c4.43515 1.97506 13.8146-2.32002 9.966-8.059-5.47874 1.50848-11.4866 5.62194-13.1253 11.0989 2.15469 10.3933 17.4118 5.84004 23.4923 2.18207"/>
  <path d="m-104.654 119.371c-5.30385 0.0217-0.13599 10.3938-0.243 14.352 1.95609 5.13856 6.8204-4.27933 9.4618-7.43647 4.44929-5.39418 6.1535-10.24 3.83835-2.09058-2.39401 6.71033 3.7775 11.8497 10.0157 12.225 3.0555 1.71285 6.91519 0.5517 10.2897 0.949"/>
  <path d="m-59.7616 134.298c-2.83702-1.52243-3.04797 4.03947-0.3944 4.231"/>
  <path d="m-403.875 86.709c-0.30522-0.525651-3.33754 7.98231-5.49595 10.8523-0.81708 1.49795-1.39211 3.1387-2.59905 4.38575"/>
  <path d="m-402.477 119.208c0.43505 5.28835 4.97323 8.68503 4.908 13.935 0.85174 1.61539-0.15984 1.37292-0.317 1.865 1.97236-3.39814 2.45743-13.1042 7.137-15.264 3.69435-3.53013 4.26565 3.46406 5.07411 6.15041 1.23041 4.78197-0.0597 5.13877 3.23689 2.11559 2.5156-3.71212 7.68758-6.4261 10.119-8.187 0.0184-0.46856 1.14168 1.17836 1.303 1.795 0.39885 3.25098 0.63493 10.1176 2.42597 14.4729 1.3 1.65276 6.01366 2.35114 8.34803 0.27013"/>
 </g>
</svg>
