<?xml version="1.0" encoding="UTF-8"?>
<!-- Created for saecula.io with Inkscape (http://www.inkscape.org/) -->
<svg width="512" height="512" version="1.1" viewBox="0 0 135.467 135.467" xml:space="preserve" xmlns="http://www.w3.org/2000/svg">
	<style type="text/css">
		path {
		stroke: #222222;
		}
		@media (prefers-color-scheme: dark) {
		path {
		stroke: #eaebed;
		}
		}
	</style>
	<g transform="translate(41.2636 24.2912)" fill="none" stroke-linecap="round" stroke-linejoin="round" stroke-width="7">
		<path d="m63.8912 16.6405c0 9.64897 0.749707 21.5055-5.2842 28.1077-6.78916 7.4286-20.9879 9.02115-31.8446 9.02115-8.91151 0-19.8161 0.825721-26.2153-4.40764-8.32559-6.80878-10.9135-21.127-10.9135-32.7212 0-6.65078 2.43028-18.3459 5.49294-23.7451 6.38013-11.2477 17.781-13.3837 31.6359-13.3837 14.6154 0 25.5544 6.05913 31.6119 18.3354 2.44129 4.94759 5.51692 12.9031 5.51692 18.7934z"/>
		<path d="m79.0475 83.2549 2.40251 24.6154-108.353-0.059 7.6398-30.0941c6.3478-25.0048 87.2457-34.6874 98.3107 5.53767z"/>
		<path d="m17.17466 28.10054-14.32672-13.4364" stroke="#222"/><path d="m15.56834 14.85204-11.7477 13.34429"/><path d="m51.58711 26.4861-13.1803-12.02972" stroke="#222"/>
		<path d="m51.20566 14.14684-13.13004 12.0797"/>
	</g>
</svg>
