<?xml version="1.0" encoding="UTF-8"?>
<!-- Created with Inkscape (http://www.inkscape.org/) -->
<svg width="56.6704mm" height="12.6606mm" version="1.1" viewBox="0 0 56.6704 12.6606" xmlns="http://www.w3.org/2000/svg">
	<style type="text/css">
		path {
		stroke: #181a1b;
		}
		@media (prefers-color-scheme: dark) {
		path {
		stroke: #e3e3e3;
		}
		}
	</style>
	<g transform="matrix(.264583 0 0 .264583 143.248 -124.697)" fill="none" stroke="#000" stroke-linecap="round" stroke-linejoin="round" stroke-width="4">
		<path d="m-524.734 490.115c-4.11586-0.54415-9.22654 9.81784-14.225 12.374-3.19642 6.23302 14.9826-5.88703 15.714 1.506-1.08917 6.93614-9.11397 15.4902-15.992 12.569l-0.174-1.221" />
		<path d="m-513 500.369c0.44206-7.21884 15.1249-9.12489 12.177 0.578 0.93709 12.6602-5.65879 1.36726-11.557 10.654-4.11479 10.3515 13.5132-0.0927 16.665-0.894" />
		<path d="m-485.303 504.203c2.53355 1.50936 14.8199-2.33999 11.4734-8.37103-6.56336-3.8785-13.0326 7.63073-14.7344 13.461 0.42661 9.10526 12.3287 5.63049 17.833 3.75254 1.91934-1.12418 3.83867-2.24836 5.75801-3.37254" />
		<path d="m-447.248 494.789c-4.62329 2.18052-12.3523 12.5352-8.776 19.626 5.65248 0.82874 12.1946 0.2601 17.866-2.218" />
		<path d="m-430.581 497.099c-1.11939 5.82227-1.10395 20.8514 8.36582 15.8882 6.10242-1.81013 9.4227-16.3761 3.21915-16.5662" />
		<path d="m-407.807 473.296c4.43186 13.61-2.95111 35.9914 3.73032 41.6493" />
		<path d="m-394.03 499.378c0.44206-7.21884 15.1249-9.12489 12.177 0.578 0.93709 12.6602-5.65879 1.36726-11.557 10.654-4.11479 10.3515 13.5132-0.0927 16.665-0.894" />
		<path d="m-368.309 511.681c-0.35105 1.43602 0.31425 2.85792 1.846 2.62" />
		<path d="m-356.667 493.816c0.0841 4.72191-2.28525 14.3344 1.514 20.293" />
		<path d="m-356.211 485.487c-1.99668-1.54498 1.7036 0.22836 2.396 0.309" />
		<path d="m-336.264 493.799c-5.16392 0.21649-13.4257 11.6759-7.81601 17.84 6.04404 7.6084 16.4696 2.44952 14.6557-7.67964 0.0923-3.54692-1.75525-14.3362-6.26423-9.65136" />
	</g>
</svg>
