<!-- created for saecula.io -->
<svg width="100" height="150" vector-effect="non-scaling-stroke" stroke-linecap="round"
	stroke="blue" fill="none" xml:space="preserve" xmlns="http://www.w3.org/2000/svg">
	<style type="text/css">
		path {
		fill: #efeff0;
		}
		@media (prefers-color-scheme: dark) {
		path {
		fill: #2a2c31;
		}
		}</style>	
	<svg id="stem" vector-effect="non-scaling-stroke" width="100" height="150" viewBox="0 0 100 150" >
		<line vector-effect="non-scaling-stroke" x1="50" y1="150" x2="50" y2="150">
			<animate attributeName="y2" fill="freeze"
			begin="2s"
      dur="5s"
      values="150; 130; 15"
      keyTimes="0; 0.4; 1"
      calcMode="spline"
      keySplines="0.65 0.65 0.99 0.85; 0.16 0.07 0.06 0.88"			/>
		</line>
	</svg>
	<svg id="leaf-right-1"  x="50" y="65"  width="23" height="23" viewBox="0 0 100 100" >
    <path transform-origin="bottom left" transform="scale(0)" vector-effect="non-scaling-stroke" d="M
	1,99 C 40,100 90,100 99,1 M 99,1 C 80,0 0,0 1,99" >
			<animateTransform
				attributeName="transform"
				type="scale"
				from="0"
				to="1"
				dur="0.5s"
				fill="freeze"
				begin="4.5s"
				/>
		</path>
	</svg>
	<svg id="leaf-left-1"  x="30" y="40"  width="20" height="20" viewBox="0 0 100 100" >
    <path transform-origin="bottom right" transform="scale(0)" vector-effect="non-scaling-stroke" d="M
	1,1 C 40,0 90,0 99,99 M 99,99 C 80,100 0,100 1,1" >
			<animateTransform
				attributeName="transform"
				type="scale"
				from="0"
				to="1"
				dur="0.4s"
				fill="freeze"
				begin="4.9s"
				/>
		</path>
	</svg>
	<svg id="leaf-right-2"  x="50" y="23"  width="17" height="17" viewBox="0 0 100 100" >
    <path transform-origin="bottom left" transform="scale(0)" vector-effect="non-scaling-stroke" d="M
	1,99 C 40,100 90,100 99,1 M 99,1 C 80,0 0,0 1,99" >
			<animateTransform
				attributeName="transform"
				type="scale"
				from="0"
				to="1"
				dur="0.5s"
				fill="freeze"
				begin="5.3s"
				/>
		</path>
	</svg>
	<svg id="leaf-left-2"  x="36" y="1"  width="14" height="14" viewBox="0 0 100 100" >
    <path transform-origin="bottom right" transform="scale(0)" vector-effect="non-scaling-stroke" d="M
	1,1 C 40,0 90,0 99,99 M 99,99 C 80,100 0,100 1,1" >
			<animateTransform
				attributeName="transform"
				type="scale"
				from="0"
				to="1"
				dur="0.4s"
				fill="freeze"
				begin="7s"
				/>
		</path>
	</svg>
</svg>