<?xml version="1.0" encoding="UTF-8" standalone="no"?>
<svg
   width="804.37201"
   height="1086.4429"
   viewBox="-702 0 804.37201 1086.4429"
   version="1.2"
   id="svg123"
   xmlns="http://www.w3.org/2000/svg"
   xmlns:svg="http://www.w3.org/2000/svg"
   xmlns:rdf="http://www.w3.org/1999/02/22-rdf-syntax-ns#"
   xmlns:cc="http://creativecommons.org/ns#"
   xmlns:dc="http://purl.org/dc/elements/1.1/"><defs
   id="defs123" />
   <style
   id="style1">
   path {
      stroke: #181a1b;
   }
   @media (prefers-color-scheme: dark) {
      path {
      stroke: #c0c0c0;
      }
   }
</style>
<title
   id="title1">Notebook 2</title>
\n<g
   id="g1"
   transform="translate(-371.597,-306.70712)">
  <path
     fill="none"
     stroke-width="4"
     stroke-linecap="round"
     stroke-linejoin="round"
     d="m -296.856,467.545 -2.683,-2.501 0.641,0.993 -2.845,2.985 -1.143,0.699 -2.338,3.519 -2.225,4.265 -1.635,4.611 -0.656,2.643 0.179,2.962 0.56,1.828 1.521,2.001 1.574,0.483 1.077,-0.374 0.553,0.312 2.661,-0.043 6.155,-3.388 2.269,-2.122 3.819,-4.197 2.654,-3.621 0.718,-3.763 -0.64,-2.351 -3.601,-5.292 -1.865,-1.464 -0.512,-0.767 -2.131,0.558"
     id="path1" />
</g>
<g
   id="g2"
   transform="translate(-371.597,-306.70712)">
  <path
     fill="none"
     stroke-width="4"
     stroke-linecap="round"
     stroke-linejoin="round"
     d="m -267.937,441.327 -1.136,8.374 -3.122,15.835 -2.037,8.573 -1.135,7.399 -1.609,5.21 -1.047,4.561 -0.306,2.812 -0.491,1.235 0.483,0.351"
     id="path2" />
</g>
<g
   id="g3"
   transform="translate(-371.597,-306.70712)">
  <path
     fill="none"
     stroke-width="4"
     stroke-linecap="round"
     stroke-linejoin="round"
     d="m -261.319,471.699 -3.746,1.664 -0.583,-0.137 -2.021,2.879 -1.654,3.062 -4.84,4.071 -0.664,1.155 0.068,0.828 1.802,2.04 1.794,1.054 2.178,0.437 7.849,-0.432 9.433,-1.868 7.598,-2.442"
     id="path3" />
</g>
<g
   id="g4"
   transform="translate(-371.597,-306.70712)">
  <path
     fill="none"
     stroke-width="4"
     stroke-linecap="round"
     stroke-linejoin="round"
     d="m -270.786,319.098 -1.253,-0.282 -1.087,0.255 -3.501,1.575 -2.362,2.045 -1.981,2.27 -2.858,5.053 -1.843,4.938 -3.579,7.952 -0.734,2.488 0.008,1.694 0.784,2.105 0.884,0.873 3.234,1.576 2.539,-0.018 3.731,-0.935 2.149,-1.747 0.767,-1.073 0.321,-0.766 -0.385,-0.749 -1.688,-1.023 -2.132,-0.506 -3.008,0.315 -4.29,1.539 -1.777,1.468 -0.969,1.38 -0.035,0.722 0.681,0.763 0.716,0.164"
     id="path4" />
</g>
<g
   id="g5"
   transform="translate(-371.597,-306.70712)">
  <path
     fill="none"
     stroke-width="4"
     stroke-linecap="round"
     stroke-linejoin="round"
     d="m -230.991,310.144 -0.392,-0.173 0.131,-0.264 -0.277,0.059 0.145,0.496 -3.818,6.462 -9.148,17.419 -8.644,14.333 -1.711,4.683 0.168,2.11 0.895,1.441"
     id="path5" />
</g>
<g
   id="g6"
   transform="translate(-371.597,-306.70712)">
  <path
     fill="none"
     stroke-width="4"
     stroke-linecap="round"
     stroke-linejoin="round"
     d="m -205.073,320.713 0.649,-1.126 -0.186,-0.356 -3.396,2.389 -4.334,4.231 -1.355,2.277 -3.263,6.899 -1,2.892 -0.919,3.567 0.216,2.198 0.789,1.834 1.193,1.105 3.504,2.33 1.898,0.225 4.094,-0.528 4.582,-1.687 1.336,-0.9 2.498,-3.285 -0.085,-1.041 -0.69,-0.847 -1.625,-0.928 -1.396,-0.078 -0.534,0.45 -2.453,0.083 -3.206,1.465 -2.369,1.926 -1.136,1.601 -0.166,0.79 0.122,0.927 0.621,0.853"
     id="path6" />
</g>
<g
   id="g7"
   transform="translate(-371.597,-306.70712)">
  <path
     fill="none"
     stroke-width="4"
     stroke-linecap="round"
     stroke-linejoin="round"
     d="m -157.889,311.152 -2.142,1.473 -1.878,2.814 -5.086,11.662 -6.173,12.539 -6.195,9.357 -2.798,5.313 -0.988,2.681 -0.586,3.407"
     id="path7" />
</g>
<g
   id="g8"
   transform="translate(-371.597,-306.70712)">
  <path
     fill="none"
     stroke-width="4"
     stroke-linecap="round"
     stroke-linejoin="round"
     d="m -142.13,335.563 0.166,-1.931 0.47,-0.901 0.722,0.057 0.318,-0.413 1.568,-0.627 1.426,-0.313 3.518,0.208 6.533,-0.69 0.03,0.27 -1.399,0.363 -1.019,1.74 -3.595,4.172 -1.409,2.103 -3.004,2.136 -1.82,2.122 -0.623,2.515 0.56,1.11 0.923,1.023 1.754,0.898 2.881,0.445 2.984,-0.013 4.786,-0.723 7.878,-2.435"
     id="path8" />
</g>
<g
   id="g9"
   transform="translate(-371.597,-306.70712)">
  <path
     fill="none"
     stroke-width="4"
     stroke-linecap="round"
     stroke-linejoin="round"
     d="m -102.356,334.765 -1.898,-1.562 -1.728,-0.162 -2.074,0.406 -2.449,1.225 -5.372,5.888 -2.292,3.492 -1.251,3.48 0.051,1.762 0.6,0.628 0.999,0.672 1.568,0.425 4.608,0.294 5.985,-1.848 2.09,-1.689 3.193,-3.904 0.5301,-2.077 -0.4971,-2.942 -0.928,-2.255 -1.986,-2.518"
     id="path9" />
</g>
<g
   id="g10"
   transform="translate(-371.597,-306.70712)">
  <path
     fill="none"
     stroke-width="4"
     stroke-linecap="round"
     stroke-linejoin="round"
     d="m -93.0536,329.838 1.5189,-0.648 4.7323,-0.725 4.404,0.096 7.1206,1.278 1.9738,0.76 0.2654,0.761 -0.3027,0.992 -0.7942,1.057 -2.4458,2.35 -6.4329,5.277 -4.146,2.857 -2.8076,2.975 -1.2034,1.899 -0.2045,1.672 0.4331,1.104 0.9517,1.046 1.8169,0.672 1.1274,-0.191 0.5157,0.308 2.9846,0.329 4.5632,-0.54 6.468,-2.109 3.4039,-1.993"
     id="path10" />
</g>
<g
   id="g11"
   transform="translate(-371.597,-306.70712)">
  <path
     fill="none"
     stroke-width="4"
     stroke-linecap="round"
     stroke-linejoin="round"
     d="m -54.4213,327.604 0.5863,-0.779 0.253,2.373 -1.2543,3.287 -4.3496,6.347 -2.4277,2.456 0.1382,0.269 0.9251,-0.351 6.367,-0.611 2.0595,-0.498 3.5325,-1.158 0.9867,-0.75 1.3761,-0.221 1.5287,-0.761 1.262,-0.873 0.5394,-0.883 0.9771,-0.593 1.0081,-1.19 0.8077,-3.431 -0.3431,-1.042 -2.6465,17.608 -0.5241,6.639"
     id="path11" />
</g>
<g
   id="g12"
   transform="translate(-371.597,-306.70712)">
  <path
     fill="none"
     stroke-width="4"
     stroke-linecap="round"
     stroke-linejoin="round"
     d="m -224.667,487.307 0.114,2.063 -0.816,2.737 -3.488,8.025 -1.108,3.493"
     id="path12" />
</g>
<g
   id="g13"
   transform="translate(-371.597,-306.70712)">
  <path
     fill="none"
     stroke-width="4"
     stroke-linecap="round"
     stroke-linejoin="round"
     d="m -171.593,466.487 1.077,-2.785 -0.972,1.41 -4.029,2.474 -4.827,3.956 -4.838,5.702 -0.965,1.948 -0.287,1.411 2.557,0.587 6.614,0.402 6.089,1.088 1.81,0.932 0.508,1.092 -0.156,0.434 -0.791,0.973 -7.578,4.453 -3.542,1.475 -1.028,0.126 -0.406,-0.46"
     id="path13" />
</g>
<g
   id="g14"
   transform="translate(-371.597,-306.70712)">
  <path
     fill="none"
     stroke-width="4"
     stroke-linecap="round"
     stroke-linejoin="round"
     d="m -156.415,476.673 -0.29,-0.426 -1.686,0.477 -2.674,1.966 -1.885,2.31 -1.199,2.181 -0.5,2.046 0.765,1.278 2.479,0.53 2.221,-0.129 3.815,-1.267 3.364,-2.155 1.727,-1.77 0.691,-1.311 -0.736,-1.898 -5.356,-1.339 -2.261,0.589 -1.044,0.75 -1.944,0.677"
     id="path14" />
</g>
<g
   id="g15"
   transform="translate(-371.597,-306.70712)">
  <path
     fill="none"
     stroke-width="4"
     stroke-linecap="round"
     stroke-linejoin="round"
     d="m -92.6242,439.541 -1.8898,9.144 -1.5853,11.119 -1.1412,16.141 -0.8517,4.978 -1.3847,4.584"
     id="path15" />
</g>
<g
   id="g16"
   transform="translate(-371.597,-306.70712)">
  <path
     fill="none"
     stroke-width="4"
     stroke-linecap="round"
     stroke-linejoin="round"
     d="m -108.383,466.266 -0.784,-1.133 0.086,0.279 0.006,-0.267 0.357,-0.018 4.137,0.682 5.4188,-0.094 5.4452,-0.784 6.9807,-1.685 6.4594,-2.316 6.9927,-4.008 2.5709,-1.855 2.0206,-1.701 2.351,-3.182 1.2047,-3.008 0.1503,-1.86 -0.6434,-2.911 -0.9384,-2.322 -1.8654,-2.568 -1.3907,-0.555 -0.9597,0.317 -1.2646,1.637 -4.6093,8.078 -1.4431,3.801 -1.2702,5.286 -0.4013,8.905 0.5064,5.302 0.8083,4.565 0.8239,2.614 0.7855,1.502 1.3267,0.892 1.1125,0.375 2.1745,-0.394 2.8352,-1.903 2.2872,-3.209 2.4999,-6.257 0.4102,-0.376 2.9504,9.714 1.8521,2.51 1.9316,1.289 3.0894,0.832 2.0553,-0.141 1.1559,-0.61 3.9234,-0.983 2.6171,-1.633 4.1448,-3.291 0.6483,-0.949 0.8289,-1.586 0.7433,-2.892 -0.5962,-2.568 -1.0555,-0.466 -3.5656,3.227 -2.7435,4.524 -0.9579,4.155 1.3785,2.779 1.7947,1.155 2.5942,0.38 2.7423,-0.416 3.284,-1.066 6.4063,-3.085 6.4596,-5.36 1.0869,-1.914 0.356,0.447 0.6386,5.599 -0.1433,6.47 0.2478,-0.466 0.4083,-0.064 0.0667,0.388 0.634,-1.525 4.096,-5.048 1.7392,-2.653 1.9159,-3.923 2.68441,-2.622 1.29999,-0.238 0.95068,0.279 2.91742,2.249 2.39594,2.512 1.827268,1.112 0.945192,0.049 2.26831,1.435 2.14044,0.473 2.93573,0.068 1.42272,-0.533 0.7148,0.185 2.5787,-0.431 3.4156,-1.567 2.6856,-1.954 1.2829,-1.583 0.6449,-2.094 -0.5429,-2.574 -1.1446,-0.663 -5.0722,2.696 -3.6078,4.873 -1.1288,2.272 -0.53249,2.701 0.05628,2.754 0.50831,1.567 1.6061,1.502 2.5794,1.147 4.6288,0.163 7.8014,-1.237 5.5629,-2.289"
     id="path16" />
</g>
<g
   id="g17"
   transform="translate(-371.597,-306.70712)">
  <path
     fill="none"
     stroke-width="4"
     stroke-linecap="round"
     stroke-linejoin="round"
     d="m 58.6578,458.303 0.889,-3.039 -0.8974,2.2 -3.0091,4.682 -4.6924,5.683 -0.7089,2.722"
     id="path17" />
</g>
<g
   id="g18"
   transform="translate(-371.597,-306.70712)">
  <path
     fill="none"
     stroke-width="4"
     stroke-linecap="round"
     stroke-linejoin="round"
     d="m 66.7007,463.201 -6.3102,2.666 -0.9847,0.947 -1.4139,0.587 -0.5682,-0.091 -1.8878,2.364 2.1082,2.139 1.8262,0.74 3.3251,0.334 2.7324,0.928 0.9666,0.764 1.6898,0.636 0.6957,1.135 -1.8994,1.577 -0.6864,-0.009 -0.746,0.93 -2.6068,2.003 -4.3248,2.088 -2.7461,0.792 -2.4299,1.505"
     id="path18" />
</g>
<g
   id="g19"
   transform="translate(-371.597,-306.70712)">
  <path
     fill="none"
     stroke-width="4"
     stroke-linecap="round"
     stroke-linejoin="round"
     d="m 119.457,471.398 0.536,-1.734 0.64,-0.821 2.212,-0.242 2.853,1.224 1.095,1.071 1.227,2.83 0.701,4.16 0.632,1.436 0.05,-0.348 -0.482,-0.013 -4.702,0.271 -2.186,0.5 -0.956,0.73 -1.382,-0.012 -1.583,0.844 -1.353,1.14 -1.703,2.639 -0.034,1.654 1.115,1.107 3.598,0.244 3.475,-0.544 4.156,-1.427 2.308,-1.341 6.51,-2.289 1.971,-1.154"
     id="path19" />
</g>
<g
   id="g20"
   transform="translate(-371.597,-306.70712)">
  <path
     fill="none"
     stroke-width="4"
     stroke-linecap="round"
     stroke-linejoin="round"
     d="m 194.718,474.409 -0.744,-0.477 -0.491,-1.03 -1.431,-0.358 -4.251,1.328 -4.452,2.192 -4.539,2.957 -1.79,1.893 -1.024,1.702 -0.131,2.524 0.317,1.071 1.01,1.061 0.745,0.025 0.938,0.687 1.745,0.429 2.33,-0.004 5.005,-1.075 5.097,-2.203 2.758,-1.555"
     id="path20" />
</g>
<g
   id="g21"
   transform="translate(-371.597,-306.70712)">
  <path
     fill="none"
     stroke-width="4"
     stroke-linecap="round"
     stroke-linejoin="round"
     d="m 193.399,442.224 -0.949,0.539 -0.818,0.99 -0.722,2.913 2.665,15.552 0.706,7.424 0.547,11.801 0.342,3.115 0.919,2.591"
     id="path21" />
</g>
<g
   id="g22"
   transform="translate(-371.597,-306.70712)">
  <path
     fill="none"
     stroke-width="4"
     stroke-linecap="round"
     stroke-linejoin="round"
     d="m 211.074,467.29 0.176,-0.768 1.161,0.344 0.947,-0.473 3.954,1.799 3.494,0.983 3.17,2.811 2.38,4.04 0.089,2.304 -0.297,1.085 -0.719,0.673 -1.432,0.23 -0.695,-0.327 -2.602,0.759 -2.839,-0.517 -2.343,0.724 -2.753,1.866 -1.852,2.6 -0.115,1.611 1.973,2.029 1.399,0.245 5.787,-1.141 8.484,-3.941 5.929,-4.252 1.789,-2.544 0.768,-1.815 -0.074,1.257 0.774,4.036 1.713,5.271 0.36,2.614 0.16,-3.015 1.36,-7.442 1.108,-2.908 0.998,-1.612 1.417,-1.442 0.836,-0.334 2.628,-2.285 1.229,0.003 0.809,0.476 2.81,-0.621"
     id="path22" />
</g>
<g
   id="g23"
   transform="translate(-371.597,-306.70712)">
  <path
     fill="none"
     stroke-width="4"
     stroke-linecap="round"
     stroke-linejoin="round"
     d="m 266.41,444.88 -0.751,-0.547 0.368,1.133 -0.048,3.223 -1.192,24.745 0.318,3.723 0.956,4.401 0.652,1.414 1.862,2.665 2.207,2.362 0.907,0.588 0.327,-0.342"
     id="path23" />
</g>
<g
   id="g24"
   transform="translate(-371.597,-306.70712)">
  <path
     fill="none"
     stroke-width="4"
     stroke-linecap="round"
     stroke-linejoin="round"
     d="m 279.685,466.923 -1.219,-0.786 -2.156,-0.637 -3.047,0.931 -0.403,-0.132 -2.955,4.408 -0.361,0.025 -1.476,4.464 0.303,1.406 1.294,1.027 2.799,0.826 7.47,0.308 5.637,-1.328 8.488,-1.227"
     id="path24" />
</g>
<g
   id="g25"
   transform="translate(-371.597,-306.70712)">
  <path
     fill="none"
     stroke-width="4"
     stroke-linecap="round"
     stroke-linejoin="round"
     d="m 329.795,459.094 -0.177,0.173 0.652,2.119 0.186,3.396 -0.312,12.456 0.468,1.495 0.435,-0.403 0.005,-0.634 0.098,0.188 1.058,-0.979 5.286,-6.231 2.684,-4.025 3.746,-3.832 0.66,-0.262 -0.798,1.757 0.492,8.463 0.827,3.167 0.933,0.161 3.057,-2.222 1.059,-0.247 3.159,-3.398 2.385,-3.688 1.21,-1.039 3.081,-3.868 0.361,-1.102 0.515,0.149 -0.749,0.846 -0.29,0.99 0.574,5.489 1.178,4.062 1.835,2.227 2.651,1.176 2.544,0.436 2.952,-0.366 0.71,-0.597 1.584,-0.106 3.169,-1.011"
     id="path25" />
</g>
<g
   id="g26"
   transform="translate(-371.597,-306.70712)">
  <path
     fill="none"
     stroke-width="4"
     stroke-linecap="round"
     stroke-linejoin="round"
     d="m 389.614,462.758 -0.443,-3.493 -0.609,-0.658 -0.528,0.242 -0.732,0.983 -2.047,1.607 -2.483,3.159 -1.638,2.792 -0.729,2.261 1.335,2.364 1.31,0.603 1.874,-0.048 3.168,-1.2 0.7,-0.96 1.771,-1.346 0.6,-1.562 0.348,-2.278 -0.661,-5.089"
     id="path26" />
</g>
<g
   id="g27"
   transform="translate(-371.597,-306.70712)">
  <path
     fill="none"
     stroke-width="4"
     stroke-linecap="round"
     stroke-linejoin="round"
     d="m 413.541,461.404 -6.125,-1.526 -2.951,-0.014 -1.998,1.396 -1.835,2.019 -2.367,3.306 -0.678,1.912 -0.167,2.158 0.999,1.015 1.569,0.645 3.021,0.137 2.639,-0.509 4.291,-1.933 1.978,-2.09"
     id="path27" />
</g>
<g
   id="g28"
   transform="translate(-371.597,-306.70712)">
  <path
     fill="none"
     stroke-width="4"
     stroke-linecap="round"
     stroke-linejoin="round"
     d="m 416.848,434.411 -1.349,-1.003 0.422,9.557 -0.16,16.225 -0.254,1.775 0.59,4.126 2.119,6.547 2.462,3.507 2.943,2.459"
     id="path28" />
</g>
<g
   id="g29"
   transform="translate(-371.597,-306.70712)">
  <path
     fill="none"
     stroke-width="4"
     stroke-linecap="round"
     stroke-linejoin="round"
     d="m 428.541,464.371 -0.443,-0.751 0.12,-0.298 0.917,0.07 2.411,-0.814 3.736,-0.609 1.342,0.134 5.859,-3.175 1.154,-0.938 0.442,-1.35 -0.146,-1.036 -1.051,-1.071 -2.569,-0.064 -2.783,1.077 -2.578,1.842 -1.352,1.464 -2.409,3.779 0.002,4.396 1.732,3.343 1.698,1.508 1.571,0.744 2.751,0.531 4.062,0.069 4.635,-0.876"
     id="path29" />
</g>
<g
   id="g30"
   transform="translate(-371.597,-306.70712)">
  <path
     fill="none"
     stroke-width="4"
     stroke-linecap="round"
     stroke-linejoin="round"
     d="m 470.969,472.754 -1.661,0.185 -0.693,0.921 -0.817,0.069 -0.141,-0.44 0.241,1.142 0.431,0.153"
     id="path30" />
</g>
<g
   id="g31"
   transform="translate(-371.597,-306.70712)">
  <path
     fill="none"
     stroke-width="4"
     stroke-linecap="round"
     stroke-linejoin="round"
     d="m -323.44,613.732 -1.214,3.218 -0.9,5.829 -0.25,5.68 0.206,3.173 0.864,2.388 0.6,0.136 0.522,0.894 0.626,0.391 1.343,0.039 3.118,-1.016 2.85,-2.224 3.957,-5.227 0.658,-0.384 1.392,5.851 1.107,2.383 0.92,0.463 1.71,2.544 2.416,0.931 2.645,-0.324 3.481,-1.725 3.646,-3.381 2.26,-3.657 0.524,-1.619 -0.008,-1.364 -0.594,-2.004 -0.563,-4.086 -1.17,-2.409 -1.548,-2.025"
     id="path31" />
</g>
<g
   id="g32"
   transform="translate(-371.597,-306.70712)">
  <path
     fill="none"
     stroke-width="4"
     stroke-linecap="round"
     stroke-linejoin="round"
     d="m -275.781,594.846 0.196,-0.222 0.419,0.893 0.481,2.815 0.541,8.694 -0.079,6.545 -0.657,5.854 -1.232,5.728 -1.551,4.775 -0.174,2.757 0.561,0.497 0.964,-0.091 2.743,-2.66 3.677,-4.621 0.6,-0.346 1.67,-3.407 -0.374,1.472 2.963,9.093 1.143,1.198 2.089,1.04 1.761,0.322 3.008,-0.336"
     id="path32" />
</g>
<g
   id="g33"
   transform="translate(-371.597,-306.70712)">
  <path
     fill="none"
     stroke-width="4"
     stroke-linecap="round"
     stroke-linejoin="round"
     d="m -246.856,617.492 0.277,-0.356 0.864,0.13 1.526,1.154 0.922,0.286 2.291,2.946 5.681,6.151 0.608,1.416 0.211,1.565 -0.494,0.711 -1.357,-0.367 -1.418,0.184 -0.681,-0.38 -5.864,0.063 -1.166,0.404 -1.328,0.987 -0.566,1.132 0.004,1.228 1.565,1.352 2.32,0.918 9.582,-2.428"
     id="path33" />
</g>
<g
   id="g34"
   transform="translate(-371.597,-306.70712)">
  <path
     fill="none"
     stroke-width="4"
     stroke-linecap="round"
     stroke-linejoin="round"
     d="m -218.891,597.664 -0.955,5.165 0.392,16.215 -0.697,11.099 0.091,1.768 0.712,1.687"
     id="path34" />
</g>
<g
   id="g35"
   transform="translate(-371.597,-306.70712)">
  <path
     fill="none"
     stroke-width="4"
     stroke-linecap="round"
     stroke-linejoin="round"
     d="m -224.682,619.505 -0.864,-0.2 -0.235,0.265 0.425,-0.86 15.712,-3.656"
     id="path35" />
</g>
<g
   id="g36"
   transform="translate(-371.597,-306.70712)">
  <path
     fill="none"
     stroke-width="4"
     stroke-linecap="round"
     stroke-linejoin="round"
     d="m -192.681,595.891 0.364,-1.399 1.737,-1.705 9.393,-3.265 4.843,-0.39 2.312,0.33 6.272,-0.014 2.865,1.035 1.275,0.941 0.466,0.794 -0.04,2.146 -2.1,3.813 -7.626,7.755 -4.557,3.368 -6.28,5.592 -1.278,1.601 -0.498,1.458"
     id="path36" />
</g>
<g
   id="g37"
   transform="translate(-371.597,-306.70712)">
  <path
     fill="none"
     stroke-width="4"
     stroke-linecap="round"
     stroke-linejoin="round"
     d="m -177.358,636.852 -1.199,0.313 -0.54,-0.169 -1.491,0.532 -0.043,0.491 -0.141,-0.192 1.098,-0.192 1.609,0.399"
     id="path37" />
</g>
<g
   id="g38"
   transform="translate(-371.597,-306.70712)">
  <path
     fill="none"
     stroke-width="4"
     stroke-linecap="round"
     stroke-linejoin="round"
     d="m -100.565,600.519 -1.385,0.188 -0.614,4.399 -0.772,18.09 -0.502,1.833 -0.802,1.493"
     id="path38" />
</g>
<g
   id="g39"
   transform="translate(-371.597,-306.70712)">
  <path
     fill="none"
     stroke-width="4"
     stroke-linecap="round"
     stroke-linejoin="round"
     d="m -118.503,602.479 -0.487,-1.926 0.441,-0.487 7.111,-1.876 2.123,-0.275 5.114,-0.015 6.3181,-0.516 3.4986,0.311 3.0944,0.798 1.4111,0.821"
     id="path39" />
</g>
<g
   id="g40"
   transform="translate(-371.597,-306.70712)">
  <path
     fill="none"
     stroke-width="4"
     stroke-linecap="round"
     stroke-linejoin="round"
     d="m -117.832,630.25 -2.072,0.21 -1.383,0.502 -0.04,0.309 4.879,0.669 3.992,-0.54 2.208,-0.689 5.507,-0.662 2.102,0.3 1.011,-0.388 6.1836,-0.867"
     id="path40" />
</g>
<g
   id="g41"
   transform="translate(-371.597,-306.70712)">
  <path
     fill="none"
     stroke-width="4"
     stroke-linecap="round"
     stroke-linejoin="round"
     d="m -64.3688,599.074 -2.3698,6.483 -4.8162,9.068"
     id="path41" />
</g>
<g
   id="g42"
   transform="translate(-371.597,-306.70712)">
  <path
     fill="none"
     stroke-width="4"
     stroke-linecap="round"
     stroke-linejoin="round"
     d="m -70.9069,628.033 -0.6248,-0.262 0.5946,0.394 0.2774,1.22 3.2832,7.542 0.7254,0.49 1.7815,0.36 1.1399,-0.768 2.1271,-2.26 1.8139,-2.684 1.1158,-2.367 1.3677,-5.07 0.8239,-1.699 0.1556,1.727 0.8559,0.141 1.6579,1.369 2.2602,1.044 2.3983,0.416 2.5839,-0.618 1.0011,-0.799 3.0107,-0.617 2.1937,-1.383 0.5516,-1.182 0.6804,-0.571 0.3574,-1.388 -0.4435,-1.702 -0.7977,-0.978 -0.9634,-0.69 -0.6803,-0.052 -1.9562,1.176 -2.107,3.162 -0.6403,2.502 0.1739,1.409 0.6271,1.858 0.6566,0.639 2.8305,1.393 4.6036,0.444 3.8532,-0.361 5.7809,-1.154"
     id="path42" />
</g>
<g
   id="g43"
   transform="translate(-371.597,-306.70712)">
  <path
     fill="none"
     stroke-width="4"
     stroke-linecap="round"
     stroke-linejoin="round"
     d="m 21.071,584.818 0.7416,2.635 0.6886,6.177 0.3739,16.361 -0.066,7.931 -1.2884,8.425 9.1829,-9.836 1.6268,-0.938 1.0739,-0.04 0.2359,0.6 -4.1102,6.764 -1.5473,1.66 -2.7228,1.996 -0.5078,1.192 1.2785,-0.189 0.5702,0.524 2.9347,0.081 2.7831,-0.576 1.5573,-0.662 4.9279,-0.844 8.989,-3.035 3.2123,-1.575 1.5554,-0.92 2.2865,-2.067 0.7606,-2.1 -0.1085,-0.614 -0.4916,-0.45 -0.748,0.026 -0.5558,-0.553 -2.9685,-1.103 -1.1874,0.402 -1.1384,1.14 -0.46,0.002 -1.9655,3.208 -0.8471,3.81 0.3097,1.774 0.6491,1.17 3.8095,1.824 4.6848,-0.761 5.0857,-1.403 6.8658,-3.638 0.7204,-1.198 0.6865,-0.296 2.1036,-3.113 0.6002,-1.702 -0.0527,-2.201 -0.3779,-0.98 -0.4713,-0.269 -1.3089,0.448 -1.1269,2.265 -1.9836,2.861 -0.7248,2.082 -0.1,1.856 0.4981,1.469 0.4876,0.941 1.4346,0.795 4.6302,0.436 3.7019,-0.833 1.3805,-0.793 3.2243,-0.943 3.2061,-1.961 0.4108,0.189 0.3793,-0.226 1.8815,-2.906 1.9996,-1.948 0.8337,-1.397 -0.7714,3.895 0.139,6.61 0.6717,0.961 1.5559,0.706 1.6625,-1.155 2.3128,-0.836 3.6348,-2.428 2.5725,-3.8 0.709,-0.362 -0.014,1.454 0.777,4.204 2.394,3.132 1.468,1.03 1.998,0.797 4.953,0.454 2.88,-0.331 10.667,-2.629"
     id="path43" />
</g>
<g
   id="g44"
   transform="translate(-371.597,-306.70712)">
  <path
     fill="none"
     stroke-width="4"
     stroke-linecap="round"
     stroke-linejoin="round"
     d="m 178.735,574.171 -1.657,5.85 -0.647,4.154 -1.896,30.168 -1.339,4.564 -1.91,2.792 -0.335,1.097 0.88,-0.495 5.163,-6.02 1.042,-0.721 3.921,-4.874 1.985,-1.551 1.632,-0.333 1.19,0.55 0.889,2.43 -0.097,2.058 -1.351,3.647 -2.186,2.251 -6.925,5.774 -5.636,2.257 0.9,0.154 1.54,-0.462 0.799,-0.633 0.495,0.159 7.869,-1.879 1.934,-1.329 0.949,0.009 3.745,-1.055 7.045,-2.881 4.018,-2.856 2.772,-1.629 0.93,-0.202 1.3,-1.084 -0.606,-0.178 -0.546,0.639 -1.384,3.89 -0.161,2.05 0.37,2.769 0.704,1.298 1.287,0.841 3.786,-0.532 5.692,-3.242 3.475,-3.312 2.022,-3.01 0.619,-2.64 1.192,-2.885"
     id="path44" />
</g>
<g
   id="g45"
   transform="translate(-371.597,-306.70712)">
  <path
     fill="none"
     stroke-width="4"
     stroke-linecap="round"
     stroke-linejoin="round"
     d="m 240.868,607.234 -1.582,-0.528 -2.023,0.209 -1.974,0.347 -1.179,0.751 -1.186,1.243 -1.687,2.752 -0.72,1.803 0.108,1.655 2.043,1.611 2.593,0.252 1.204,0.547 1.266,0.089 1.35,0.552 1.316,-0.022 2.664,0.917 4.019,2.704 1.124,1.582 0.295,1.802 -0.624,0.738 -2.216,1.386 -1.03,0.5 -0.926,-0.014 -4.277,2.234 -2.237,0.067 -0.41,-0.36 -0.852,0.11 -1.099,-0.431 -0.116,0.246 0.056,-1.194"
     id="path45" />
</g>
<g
   id="g46"
   transform="translate(-371.597,-306.70712)">
  <path
     fill="none"
     stroke-width="4"
     stroke-linecap="round"
     stroke-linejoin="round"
     d="m 256.475,615.697 -0.324,-0.929 0.033,0.631 -1.493,4.165 -0.231,2.89 0.321,1.024 1.167,1.233 5.467,0.522 4.81,-1.232 2.48,-1.386 1.945,-1.741 0.314,0.055 1.823,-4.895 -0.869,3.618 -0.097,3.227 1.109,5.724 1.687,5.714 0.926,5.428 0.06,4.769 -0.88,10.143 -0.999,4.911 -1.366,2.958 -2.817,3.509 -3.76,1.145 -1.839,0.079 -1.166,-0.443 -1.951,-1.945 -0.736,-1.62 -0.55,-2.767 0.207,-3.491 0.687,-2.293 0.678,-1.573 3.96,-5.844 2.988,-3.512 1.44,-2.176 1.309,-1.03"
     id="path46" />
</g>
<g
   id="g47"
   transform="translate(-371.597,-306.70712)">
  <path
     fill="none"
     stroke-width="4"
     stroke-linecap="round"
     stroke-linejoin="round"
     d="m 296.298,630.985 -1.334,-1.872 -0.359,-0.101 -0.199,0.276 -0.368,-0.483 0.285,-0.817 0.094,0.438 1.101,0.813"
     id="path47" />
</g>
<g
   id="g48"
   transform="translate(-371.597,-306.70712)">
  <path
     fill="none"
     stroke-width="4"
     stroke-linecap="round"
     stroke-linejoin="round"
     d="m -285.124,854.14 1.372,-2.76 -0.612,0.912 -0.279,-0.297 -0.107,0.369 -1.242,0.744 -4.258,0.675 -7.358,3.089 -8.544,4.677 -4.873,3.216 -1.182,1.639 -0.287,1.23 2.448,1.784 1.812,0.359 3.917,1.807 7.542,1.915 3.988,2.324 2.688,2.552 1.428,2.078 0.306,2.262 -0.327,1.605 -0.886,1.941 -3.72,5.431 -0.801,0.952 -3.3,2.375 -4.87,2.799 -9.265,4.335 -3.19,1.16 -4.114,0.736 -3.404,-0.132 -1.105,-1.058 0.316,-1.337"
     id="path48" />
</g>
<g
   id="g49"
   transform="translate(-371.597,-306.70712)">
  <path
     fill="none"
     stroke-width="4"
     stroke-linecap="round"
     stroke-linejoin="round"
     d="m -276.183,882.046 -1.645,-1.128 -0.298,0.358 -0.036,-0.615 0.271,0.331 -0.151,0.722 -5.52,3.968 -2.43,2.215 -1.194,1.549 -0.071,1.063 1.757,1.066 1.907,0.223 1.774,-0.715 1.386,-0.009 3.16,-1.027 5.609,-3.357 1.787,-1.523 1.908,-2.653 -0.804,0.008 -0.912,0.777 -0.493,2.534 -1.28,2.449 -0.444,3.638 0.617,1.588 0.98,0.938 4.127,1.39 4.11,-0.899 2.861,-1.663 1.277,-1.181 1.084,-1.711 0.105,-1.076 -0.007,-1.031 -0.802,-2.245 -3.421,-3.6 -1.838,-0.818 -3.979,-0.352 -5.154,1.062 -1.245,0.556 1.803,-0.354 1.483,0.445 4.261,-0.548 1.688,0.163 4.649,-1.753 8.559,-0.955 1.923,0.301 1.503,0.609 0.871,0.624 0.843,1.265 0.061,1.852 -1.787,6.874 0.345,1.277 0.291,-0.656 4.041,-2.425 2.546,-2.052 3.071,-3.154 2.764,-1.529 -0.855,1.515 0.4,7.686 0.879,2.058 2.406,1.679 3.944,0.537 6.809,-0.548 4.357,-0.679 8.021,-2.828"
     id="path49" />
</g>
<g
   id="g50"
   transform="translate(-371.597,-306.70712)">
  <path
     fill="none"
     stroke-width="4"
     stroke-linecap="round"
     stroke-linejoin="round"
     d="m -154.005,846.135 -0.25,-1.901 -0.262,0.431 -1.1,14.336 -2.806,22.165 -1.934,7.596 -2.16,6.378"
     id="path50" />
</g>
<g
   id="g51"
   transform="translate(-371.597,-306.70712)">
  <path
     fill="none"
     stroke-width="4"
     stroke-linecap="round"
     stroke-linejoin="round"
     d="m -164.539,883.316 1.022,-0.696 4.107,-1.626 7.242,-1.917 4.107,-0.523 5.869,-0.007 1.051,-0.322 1.975,1.423 0.145,1.336 -4.523,8.64 -0.845,3.193 0.564,1.116 1.049,0.911 3.515,0.199 1.867,-0.304 1.287,-0.932 0.574,0.067 2.351,-1.132 1.692,-1.186 1.431,-1.419 0.933,-1.509 0.537,-2.191 -0.51,-1.781 -1.544,-2.735 -3.56,-1.886 -2.138,0.338 -0.686,0.725 -1.276,0.379 -0.656,1.239"
     id="path51" />
</g>
<g
   id="g52"
   transform="translate(-371.597,-306.70712)">
  <path
     fill="none"
     stroke-width="4"
     stroke-linecap="round"
     stroke-linejoin="round"
     d="m -73.9209,872.279 -1.4723,-1.81 -1.2106,-0.368 -1.4216,0.559 -1.2995,1.757 -2.5247,6.669 -0.6582,3.284 -0.1347,3.17 0.2754,2.454 1.066,1.593 1.7388,1.019 2.6581,0.912 0.8601,0.196 1.9092,-0.263"
     id="path52" />
</g>
<g
   id="g53"
   transform="translate(-371.597,-306.70712)">
  <path
     fill="none"
     stroke-width="4"
     stroke-linecap="round"
     stroke-linejoin="round"
     d="m -46.4274,877.532 -2.5912,-1.966 -0.5775,-0.297 -1.172,0.074 -1.3717,-0.848 -1.998,-0.227 -1.778,0.659 -7.6001,7.788 -1.312,2.203 -0.7118,1.788 0.1164,1.216 0.9038,0.811 1.6259,0.431 3.1759,0.195 2.6567,-0.727 4.276,-1.781 3.6241,-2.041 3.7242,-3.214 2.7858,-4.07 1.2905,-1.588 0.5162,-0.212 0.7873,-1.63 -0.6696,1.667 -0.5866,3.606 -0.4811,4.59 0.3517,2.314 0.7921,-0.103 0.1972,0.318 1.6157,-0.902 4.5206,-1.558 6.4212,-4.451 2.9996,-2.493 4.5185,-2.832 0.2802,0.544 -1.9418,8.774 -0.181,2.194 0.3461,1.083 8.2375,-4.757 2.6457,-2.427 4.54406,-3.084 1.88104,-0.48 0.49591,0.204 -0.29498,3.897 0.36096,2.557 0.62171,1.493 0.96673,0.82 1.768253,0.85 1.643616,0.225 2.029911,0.034 1.57464,-0.512 3.07483,-0.208 1.56098,0.329 9.29564,-5.186 2.5631,-2.492 1.4564,-3.531 0.7705,-3.252 -0.3213,-2.949 -0.6827,-0.755 -1.5757,0.761 -1.0501,1.147 -3.4355,5.989 -0.882,4.286 0.6497,2.172 1.4525,0.997 1.0807,0.047 0.6318,0.468 2.3092,0.578 5.3045,0.075 5.7049,-0.958"
     id="path53" />
</g>
<g
   id="g54"
   transform="translate(-371.597,-306.70712)">
  <path
     fill="none"
     stroke-width="4"
     stroke-linecap="round"
     stroke-linejoin="round"
     d="m 112.878,872.475 -0.383,-1.599 0.72,2.901 -0.24,5.368 -1.557,8.44 0.278,1.024 1.618,-1.038 6.043,-5.543 2.895,-3.498 2.349,-3.792 2.805,-3.663 0.185,-0.804 -0.706,2.434 -0.506,4.358 0.281,7.438 0.267,0.909 0.692,0.417 1.113,-0.193 1.718,-1.775 1.435,-0.766 4.726,-3.955 4.046,-4.067 3.172,-3.945 -0.541,1.004 0.782,6.584 1.085,3.702 1.249,1.887 0.587,0.433 1.65,0.365 2.594,-0.123 3.679,-1.51 1.605,-1.064"
     id="path54" />
</g>
<g
   id="g55"
   transform="translate(-371.597,-306.70712)">
  <path
     fill="none"
     stroke-width="4"
     stroke-linecap="round"
     stroke-linejoin="round"
     d="m 168.028,868.814 -0.099,-0.177 -0.431,0.592 -0.306,5.241 0.69,3.991 2.342,2.558 1.643,0.069 3.278,-0.448 1.029,-0.686 3.185,-1.046 2.317,-1.514 1.084,-1.239 2.928,-2.038 1.397,-1.943 1.484,-3.386 -0.422,0.923 -0.107,8.668 1.152,15.899 -0.006,3.897 -0.888,7.874 -2.11,6.591 -4.865,4.113 -1.748,0.543 -1.092,-0.78 -0.683,-1.882 0.005,-2.666 0.474,-2.178 2.248,-5.8 4.646,-7.545 1.516,-2.035 2.523,-2.376"
     id="path55" />
</g>
<g
   id="g56"
   transform="translate(-371.597,-306.70712)">
  <path
     fill="none"
     stroke-width="4"
     stroke-linecap="round"
     stroke-linejoin="round"
     d="m 239.503,863.067 1.407,-2.093 2.105,-1.007 1.958,0.067 0.676,-0.407 4.072,3.437 1.26,1.581 0.717,1.929 0.261,2.181 -0.214,2.888 -0.865,1.526 -0.47,-0.341 -1.246,0.276 -0.722,-0.446 -3.4,-0.079 -2.107,0.289 -1.625,0.689 -1.238,1.249 -0.441,1.207 0.095,1.141 0.896,1.27 0.663,-0.039 2.696,0.894 2.809,-0.485 1.753,-0.929 6.624,-1.347 8.337,-3.081"
     id="path56" />
</g>
<g
   id="g57"
   transform="translate(-371.597,-306.70712)">
  <path
     fill="none"
     stroke-width="4"
     stroke-linecap="round"
     stroke-linejoin="round"
     d="m 278.73,864.545 -1.302,-1.473 -1.421,-0.629 -0.008,-0.307 0.021,1.339 -1.143,2.22 -1.707,2.415 -1.933,1.772 -2.149,2.667 -1.919,2.648 0.219,0.779 1.704,1.262 4.304,0.402 10.363,-1.456"
     id="path57" />
</g>
<g
   id="g58"
   transform="translate(-371.597,-306.70712)">
  <path
     fill="none"
     stroke-width="4"
     stroke-linecap="round"
     stroke-linejoin="round"
     d="m 299.47,840.21 -0.987,0.027 -0.522,0.535 -0.794,2.312 -0.84,9.863 0.349,13.044 0.887,13.62 0.731,4.254"
     id="path58" />
</g>
<g
   id="g59"
   transform="translate(-371.597,-306.70712)">
  <path
     fill="none"
     stroke-width="4"
     stroke-linecap="round"
     stroke-linejoin="round"
     d="m 292.032,867.759 0.346,-1.803 0.633,-1.039 1.386,-0.997 3.108,-0.914 1.431,0.37 5.04,-0.531 7.514,0.162 3.101,0.966 0.155,-0.273 0.183,0.873 -0.49,3.568 -0.057,5.481 0.903,3.678 1.442,2.081 1.886,0.287 2.289,-0.282 0.726,0.187 1.457,-0.801 2.129,-2.243 2.105,-3.73 1.938,-7.06 0.116,-3.376 -0.28,-0.983"
     id="path59" />
</g>
<g
   id="g60"
   transform="translate(-371.597,-306.70712)">
  <path
     fill="none"
     stroke-width="4"
     stroke-linecap="round"
     stroke-linejoin="round"
     d="m 345.614,865.69 1.54,-2.006 2.795,-1.784 7.82,-0.539 2.738,0.212 2.673,0.732 0.953,0.698 0.315,0.873 -0.168,2.858 -2.28,5.742 -2.809,4.194 -1.634,0.798 -3.849,-0.862 -5.467,-0.432 -1.796,0.464 -0.468,0.354 -0.059,0.743 0.713,1.209 1.175,0.443 0.837,-0.202 2.307,0.812 3.244,0.007 4.404,-0.437 4.113,-0.924 3.905,-1.695"
     id="path60" />
</g>
<g
   id="g61"
   transform="translate(-371.597,-306.70712)">
  <path
     fill="none"
     stroke-width="4"
     stroke-linecap="round"
     stroke-linejoin="round"
     d="m 387.613,839.048 -0.322,0.761 0.348,7.792 -0.269,7.727 0.319,17.139 0.932,6.265 1.091,2.732 0.655,0.879"
     id="path61" />
</g>
<g
   id="g62"
   transform="translate(-371.597,-306.70712)">
  <path
     fill="none"
     stroke-width="4"
     stroke-linecap="round"
     stroke-linejoin="round"
     d="m -322.361,984.24 0.056,-0.789 0.353,-0.208 0.491,5.998 -0.368,10.634 -1.407,15.655 0.168,2.09 -0.964,7.79 0.204,1.32 -0.37,0.33 0.071,-1.06 0.305,0.08 0.062,-0.57 -0.573,-8.67 0.033,-4.17 0.389,-2.47 0.024,-8.64 2.041,-14.109 1.151,-3.22 0.888,-0.751 1.443,-0.449 h 4.316 l 2.03,1.711 0.257,2.983 -0.934,3.313 -2.18,3.762 -3.951,3.121 -0.253,0.55 0.028,-0.393 0.903,-0.436"
     id="path62" />
</g>
<g
   id="g63"
   transform="translate(-371.597,-306.70712)">
  <path
     fill="none"
     stroke-width="4"
     stroke-linecap="round"
     stroke-linejoin="round"
     d="m -300.441,985.068 -0.857,0.359 -0.634,1.335 0.151,3.85 1.856,4.176 2.5,4.307 0.187,1.795 -0.849,-1.59 -0.336,-4.869 1.025,-5.857 1.396,-2.279 1.792,-2.056 1.554,-0.723 3.266,-0.01 3.839,0.928"
     id="path63" />
</g>
<g
   id="g64"
   transform="translate(-371.597,-306.70712)">
  <path
     fill="none"
     stroke-width="4"
     stroke-linecap="round"
     stroke-linejoin="round"
     d="m -271.981,987.015 -2.27,-0.156 -1.189,-0.72 -0.996,0.429 -1.672,-0.071 -1.285,0.609 -0.684,1.006 -1.013,2.423 -1.018,4.126 -0.256,3.182 1.541,1.531 2.585,0.946 1.046,0.14 2.081,-0.34 2.182,-1.257 1.408,-1.403 1.279,-2.098 0.821,-2.722 0.238,-4.252 -0.296,-0.878"
     id="path64" />
</g>
<g
   id="g65"
   transform="translate(-371.597,-306.70712)">
  <path
     fill="none"
     stroke-width="4"
     stroke-linecap="round"
     stroke-linejoin="round"
     d="m -247.714,985.941 0.343,0.994 0.383,9.975 3.2,18.7 1.268,19.13 -0.682,3.1 -0.523,0.81 -0.269,0.2 -0.21,-0.21 -0.286,0.48 -1.94,0.71 -1.624,-0.51 -1.266,-0.97 -0.671,0.03 -2.744,-1.71 -4.624,-3.83 -2.258,-3.08 -1.193,-2.67 -0.408,-4.22 0.812,-5.33 1.952,-4.53 2.655,-4.31 4.015,-3.72 3.251,-3.95 1.404,-1 2.742,-2.903 1.466,-2.022 1.262,-0.644 1.645,-1.783 1.248,-0.739 2.23,-2.183 0.978,-1.995 4.74,-3.844 0.565,0.08 0.601,-0.902 -0.308,-0.27 -0.847,0.495 -0.007,0.298 -1.86,0.278 -2.088,1.458 -2.407,3.096 -0.335,-0.081 -0.31,0.431 -1.275,4.938 -0.153,2.297 0.309,1.59 1.825,2.001 3.465,1.044 6.582,0.15 5.601,-0.862"
     id="path65" />
</g>
<g
   id="g66"
   transform="translate(-371.597,-306.70712)">
  <path
     fill="none"
     stroke-width="4"
     stroke-linecap="round"
     stroke-linejoin="round"
     d="m -206.455,985.37 -0.409,-0.623 -1.037,-0.299 -1.103,2.858 -1.079,1.757 -2.215,2.918 -0.988,0.563 -1.444,2.243 -0.735,1.606 -0.049,0.798 0.674,0.969 1.563,1.045 1.436,0.581 2.423,0.414 3.99,-0.346 5.96,-1.756"
     id="path66" />
</g>
<g
   id="g67"
   transform="translate(-371.597,-306.70712)">
  <path
     fill="none"
     stroke-width="4"
     stroke-linecap="round"
     stroke-linejoin="round"
     d="m -188.949,962.168 -2.261,-2.009 0.592,4.091 0.861,24.654 1.005,5.698 0.935,2.878 1.893,4.06 -0.126,0.73"
     id="path67" />
</g>
<g
   id="g68"
   transform="translate(-371.597,-306.70712)">
  <path
     fill="none"
     stroke-width="4"
     stroke-linecap="round"
     stroke-linejoin="round"
     d="m -193.235,990.481 -0.394,-1.783 0.191,-1.347 0.494,-0.787 1.379,-0.657 3.143,-0.715 1.368,0.076 7.462,-2.659 1.54,-0.834 3.922,-1.113 5.047,-0.827 1.38,-0.816 2.189,0.706 0.787,0.342 -0.108,0.608 -1.344,0.672 -6.106,7.345 -0.7,1.991 0.451,0.904 2.583,1.338 0.878,-0.815 0.468,0.594 1.786,0.573 7.084,0.26 3.294,0.507 3.425,1.019 2.295,1.248 0.373,0.583 -0.625,0.681 -1.016,0.18 -2.585,1.558 -2.481,0.565 -1.426,-0.017 -3.741,1.079 -1.26,-0.19 -1.339,0.62 -1.322,-0.43"
     id="path68" />
</g>
<g
   id="g69"
   transform="translate(-371.597,-306.70712)">
  <path
     fill="none"
     stroke-width="4"
     stroke-linecap="round"
     stroke-linejoin="round"
     d="m -136.862,1000.18 -1.653,-1.356 -0.472,0.009 -0.326,0.437 -0.581,-0.52 1.25,2.14 1.058,0.86"
     id="path69" />
</g>
<g
   id="g70"
   transform="translate(-371.597,-306.70712)">
  <path
     fill="none"
     stroke-width="4"
     stroke-linecap="round"
     stroke-linejoin="round"
     d="m -74.9247,995.329 -0.2912,-0.329 0.1267,0.854 0.3136,-0.576 0.6691,0.11 0.4008,-0.504 2.3247,-6.19 0.953,-4.654 1.2448,-10.957 1.6476,-6.233 0.0383,1.068 0.2911,-0.095 0.8745,1.478 1.0492,1.006 3.1122,7.503 2.4646,4.555 3.7525,5.022 6.4411,6.218 2.6475,1.14 2.1261,0.066 1.6345,-6.041 0.5602,-4.724 -1.675,-12.985 -0.3568,-5.331 -0.0333,-17.855 -0.2848,-0.846 -0.372,1.281 -0.1607,4.692"
     id="path70" />
</g>
<g
   id="g71"
   transform="translate(-371.597,-306.70712)">
  <path
     fill="none"
     stroke-width="4"
     stroke-linecap="round"
     stroke-linejoin="round"
     d="m -20.1752,992.077 -0.0038,-2.947 -0.3386,0.214 -1.0246,-0.537 -0.5204,0.785 -0.2528,-0.47 -1.1547,-0.266 -0.6636,-0.605 -5.3009,3.498 -0.7294,1.448 0.5689,1.936 0.9115,1.201 1.1072,0.696 2.1524,0.589 6.4733,-0.542 4.3902,-2.355 1.4907,-1.758 0.5121,-1.206 -0.5196,-3.418"
     id="path71" />
</g>
<g
   id="g72"
   transform="translate(-371.597,-306.70712)">
  <path
     fill="none"
     stroke-width="4"
     stroke-linecap="round"
     stroke-linejoin="round"
     d="m 5.44781,955.583 -0.46856,0.171 -0.13245,1.152 -0.5462,10.025 0.36493,7.016 1.26355,12.019 -0.0871,5.107 -0.57593,3.887 -0.22925,-0.145"
     id="path72" />
</g>
<g
   id="g73"
   transform="translate(-371.597,-306.70712)">
  <path
     fill="none"
     stroke-width="4"
     stroke-linecap="round"
     stroke-linejoin="round"
     d="m 3.3938,985.257 -0.25061,-3.47 0.82086,-0.863 1.0647,-0.005 0.80084,0.72 0.40179,-0.355 3.07001,-0.591 13.29251,-1.597"
     id="path73" />
</g>
<g
   id="g74"
   transform="translate(-371.597,-306.70712)">
  <path
     fill="none"
     stroke-width="4"
     stroke-linecap="round"
     stroke-linejoin="round"
     d="m 83.1199,978.78 -0.0048,-1.588 -0.3436,0.544 -0.8931,-0.272 -1.8504,0.161 -3.2594,1.544 -0.8233,0.739 -0.2841,0.731 1.2676,1.31 5.5608,2.865 2.4216,1.617 1.7685,2.473 0.1763,1.858 -0.3609,0.813 -0.7945,0.878 -6.4468,3.299 -3.1922,0.895 -1.13,0.087 0.4636,-0.566"
     id="path74" />
</g>
<g
   id="g75"
   transform="translate(-371.597,-306.70712)">
  <path
     fill="none"
     stroke-width="4"
     stroke-linecap="round"
     stroke-linejoin="round"
     d="m 102.583,983.277 -0.291,-0.19 -0.881,0.829 -0.716,1.45 -0.396,2.223 0.747,3.016 0.987,0.882 1.005,0.098 2.296,-0.558 1.775,-1.47 1.443,-1.63 3.591,-5.755 2.49,-2.005 0.848,-0.157 0.543,0.875 0.191,-0.266 0.917,0.271 1.582,3.538 1.171,5.286 0.459,3.986 0.033,-0.291 0.276,0.67 0.698,-6.19 0.552,-2.159 0.752,-1.987 1.284,-2.01 1.512,-0.837 2.361,-0.24 1.138,0.583 3.985,3.293 2.067,0.814 1.027,0.8 5.833,-0.446 5.085,-1.484 0.871,-0.414 1.358,-1.296 0.5,-1.112 -0.074,-1.292 -1.592,-2.42 -1.475,-0.646 -0.817,0.091 -3.527,1.774 -1.426,1.598 -1.892,3.32 -0.871,3.314 0.365,2.635 0.762,2.103 3.811,1.886 4.355,0.296 13.948,-0.508 1.71,-0.337"
     id="path75" />
</g>
<g
   id="g76"
   transform="translate(-371.597,-306.70712)">
  <path
     fill="none"
     stroke-width="4"
     stroke-linecap="round"
     stroke-linejoin="round"
     d="m 218.949,942.789 -0.341,-0.816 0.506,3.463 -0.054,8.18 -1.892,20.478 -0.285,10.075 0.486,1.003 1.222,0.54 5.457,-3.88 4.164,-4.343 3.715,-4.863 1.445,-1.243 0.71,4.096 1.12,4.07 1.371,2.953 1.147,1.407 2.176,1.409 3.525,1.481 3.429,0.236 1.828,-0.646 0.97,0.245 2.887,-0.227"
     id="path76" />
</g>
<g
   id="g77"
   transform="translate(-371.597,-306.70712)">
  <path
     fill="none"
     stroke-width="4"
     stroke-linecap="round"
     stroke-linejoin="round"
     d="m 265.071,971.905 -3.072,-3.871 -2.553,-0.105 -4.028,5.859 -1.859,3.753 -0.892,3.489 0.021,0.813 0.385,0.355 2.691,0.371 7.635,-3.66 4.159,-3.342 2.505,-3.023 1.201,-2.179 -0.466,1.126 -1.162,6.411 0.068,3.658 0.951,1.849 1.62,0.233 0.872,-0.337 5.509,-3.256 2.325,-2.218 2.194,-1.409 2.015,-0.009 0.551,0.625 0.299,5.281 0.863,3.105 1.447,1.478 2.538,0.819 1.621,-0.359 0.843,-0.771 2.313,-0.894 1.901,-1.731 1.596,-2.109 1.28,-3.06 0.768,-8.349 0.871,-2.112"
     id="path77" />
</g>
<g
   id="g78"
   transform="translate(-371.597,-306.70712)">
  <path
     fill="none"
     stroke-width="4"
     stroke-linecap="round"
     stroke-linejoin="round"
     d="m 367.165,948.366 0.856,-0.475 1.158,-0.032 1.083,1.005 0.447,1.913 -0.459,6.318 -2.443,13.73 -0.321,7.218 0.186,1.981"
     id="path78" />
</g>
<g
   id="g79"
   transform="translate(-371.597,-306.70712)">
  <path
     fill="none"
     stroke-width="4"
     stroke-linecap="round"
     stroke-linejoin="round"
     d="m 362.742,947.294 -1.778,-7.087 0.659,0.521 2.366,0.832 6.103,-0.462 4.319,0.112 2.259,0.37 6.992,-0.147 5.957,0.531 0.741,0.093 2.961,1.892"
     id="path79" />
</g>
<g
   id="g80"
   transform="translate(-371.597,-306.70712)">
  <path
     fill="none"
     stroke-width="4"
     stroke-linecap="round"
     stroke-linejoin="round"
     d="m 358.408,978.08 -0.391,-0.638 1.606,0.645 6.058,0.029 6.255,1.117 8.32,-0.168"
     id="path80" />
</g>
<g
   id="g81"
   transform="translate(-371.597,-306.70712)">
  <path
     fill="none"
     stroke-width="4"
     stroke-linecap="round"
     stroke-linejoin="round"
     d="m -326.045,1099.49 -1.127,6.86 -0.231,5.85 0.814,4.56 0.935,2.24 1.203,0.71 2.414,-0.26 2.618,-1.94 2.035,-3.22 0.801,-2.59 1.153,-2.23 0.212,0.15 -0.301,0.81 0.122,1.31 0.973,1.88 0.84,3.01 0.766,0.93 0.513,0.14 1.12,1.3 1.347,0.49 2.54,-0.81 2.759,-2.56 1.466,-2.25 1.976,-4.18 1.627,-4.48 4.324,-7.06 3.688,-2.49 3.321,-0.89 1.75,0.13 2.883,1.05 0.903,0.64 11.17,18.26 0.063,1.24 -0.331,0.76 0.013,-0.5 -0.077,0.34 -1.412,-1.84 -0.547,-0.04 -1.583,-1.76 -2.192,-0.23 -2.61,1.68 -1.748,2.07 -0.582,0.24 -1.123,2.67 0.282,1.04 1.891,2.48 2.858,0.14 3.886,-0.76 8.128,-3.84 5.385,-3.98 4.189,-5.01 0.931,3.14 1.23,8.01 0.584,0.63 0.25,-0.3 0.642,0.99 2.016,-0.42 4.916,-2.69 6.326,-5.25 3.543,-2.29 2.45,-0.83 1.468,-0.07 1.386,0.39 0.402,0.51 0.636,4.06 1.036,3.49 1.005,1.97 1.3,1.59 2.55,1.15 1.78,0.12 4.857,-1.02"
     id="path81" />
</g>
<g
   id="g82"
   transform="translate(-371.597,-306.70712)">
  <path
     fill="none"
     stroke-width="4"
     stroke-linecap="round"
     stroke-linejoin="round"
     d="m -203.203,1088.05 -1.552,-0.37 -0.712,0.43 -0.715,1.57 -0.23,3.64 0.374,4.13 1.144,6.42 3.085,15.28 0.171,2.97 -0.324,0.75 -0.579,0.25"
     id="path82" />
</g>
<g
   id="g83"
   transform="translate(-371.597,-306.70712)">
  <path
     fill="none"
     stroke-width="4"
     stroke-linecap="round"
     stroke-linejoin="round"
     d="m -206.664,1112.77 -0.711,-2.5 -0.037,-1.25 0.625,-0.85 3.58,-0.53 1.363,-0.78 2.519,0.26 11.427,-0.71"
     id="path83" />
</g>
<g
   id="g84"
   transform="translate(-371.597,-306.70712)">
  <path
     fill="none"
     stroke-width="4"
     stroke-linecap="round"
     stroke-linejoin="round"
     d="m -97.6908,1075.33 -0.3542,-0.6 -0.9731,0.33 -1.4489,3.44 -2.115,11.98 -0.745,11.06 -0.179,19.25"
     id="path84" />
</g>
<g
   id="g85"
   transform="translate(-371.597,-306.70712)">
  <path
     fill="none"
     stroke-width="4"
     stroke-linecap="round"
     stroke-linejoin="round"
     d="m -112.726,1108.84 -0.804,-0.97 -0.359,-1.75 1.635,0.11 2.994,-0.86 0.919,-0.58 2.097,0.09 14.5599,-1.73 6.8545,0.02 2.4287,0.63 1.3111,0.99 0.257,1.4 -3.3874,8.94 -0.0624,2.37 0.5456,1.17 1.19,1.21 1.1299,0.59 0.9376,-0.25 1.3961,0.44 2.4275,-0.4 2.896,-1.5 1.1709,-1.52 0.4951,-1.34 -0.1582,-2.34 -0.6407,-1.79 -2.6085,-3.38 -2.5237,-1.05 -2.3378,-0.01 -1.9962,1.4"
     id="path85" />
</g>
<g
   id="g86"
   transform="translate(-371.597,-306.70712)">
  <path
     fill="none"
     stroke-width="4"
     stroke-linecap="round"
     stroke-linejoin="round"
     d="m -13.3899,1079.03 -0.7905,-1.38 -0.05,0.95 -0.1049,26.08 0.2174,5.14 1.1971,12.15 1.0398,3.05"
     id="path86" />
</g>
<g
   id="g87"
   transform="translate(-371.597,-306.70712)">
  <path
     fill="none"
     stroke-width="4"
     stroke-linecap="round"
     stroke-linejoin="round"
     d="m 5.20135,1106.62 0.65143,-0.94 1.97065,-0.82 2.58297,0.39 2.1752,1.01 1.8467,1.97 2.3741,4.37 0.4892,0.39 1.0599,3.07 0.7302,0.94 -0.1372,0.84 -2.1418,0.78 -0.7525,0.71 -1.9696,0.32 -4.65464,1.64 -2.14093,0.36 -0.60546,0.75 -1.23444,0.39 -0.20404,1.11 0.44147,1.59 0.43939,0.43 0.64075,-0.16 0.68774,0.7 1.38995,0.44 2.59211,-0.08 3.3325,-0.58 5.3812,-1.83 3.8979,-2.1 3.3223,-2.43 0.8005,-0.25 4.6411,-7.01 0.9354,-0.81 0.1481,-0.59 -0.4579,2 0.0579,3.51 0.434,2.7 0.9164,1.39 0.7503,0.1 1.8282,1.23 2.7335,-0.12 2.2313,-0.8 1.8383,-1.11 1.6688,-2.01 2.5584,-4.87 0.0026,3.5 0.966,5.09 0.4515,5.47 -0.9465,26.13 -1.1271,4.18 -0.9427,1.22 -1.0657,0.08 -1.0531,-0.53 -1.4223,-1.31 -1.878,-3.27 -1.3851,-3.93 -0.8471,-3.62 0.0785,-4.56 1.7282,-6.78 2.9334,-3.84 3.2662,-1.99"
     id="path87" />
</g>
<g
   id="g88"
   transform="translate(-371.597,-306.70712)">
  <path
     fill="none"
     stroke-width="4"
     stroke-linecap="round"
     stroke-linejoin="round"
     d="m 107.744,1102.95 -0.769,-1.45 0.073,0.43 -0.329,0.25 -0.788,4.37 -0.285,3.7 0.443,3 0.9,1.92 0.768,0.02"
     id="path88" />
</g>
<g
   id="g89"
   transform="translate(-371.597,-306.70712)">
  <path
     fill="none"
     stroke-width="4"
     stroke-linecap="round"
     stroke-linejoin="round"
     d="m 127.492,1073.99 -0.512,-1.01 0.876,6.42 0.916,15.03 2.324,17.01 -0.282,2.16 -1.05,1.45 -1.421,0.16 -1.489,-1.19 -0.851,-2.1 -0.23,-1.58 -1.15,-2.37 -0.459,-2.67 0.039,-2.77 1.094,-2.33 3.004,-1.91 3.641,-1.27 5.734,-1.32 6.987,-0.67"
     id="path89" />
</g>
<g
   id="g90"
   transform="translate(-371.597,-306.70712)">
  <path
     fill="none"
     stroke-width="4"
     stroke-linecap="round"
     stroke-linejoin="round"
     d="m 207.217,1096.35 -0.996,-4.99 -0.515,0.95 -0.69,0.23 -0.588,-0.26 -0.269,0.48 -4.089,2.7 -4.967,4.23 -1.882,2.56 -0.057,1.92 2.365,0.77 2.734,-0.09 2.532,-0.55 4.225,-2.17 1.519,-0.41 4.102,-4.77 1.102,-2.22 0.238,-1.26 0.898,-1.5 -0.29,0.97 0.299,1.45 0.109,4.71 0.855,3.47 1.214,2.15 2.383,1.12 1.297,0.01 1.248,-0.48 2.684,-0.29 2.035,-1.41 3.209,-3.07 0.995,-1.96 0.336,-2.04 -0.324,-2.63 -0.57,-0.5"
     id="path90" />
</g>
<g
   id="g91"
   transform="translate(-371.597,-306.70712)">
  <path
     fill="none"
     stroke-width="4"
     stroke-linecap="round"
     stroke-linejoin="round"
     d="m 243.287,1069.99 0.221,-0.2 0.193,0.8 0.166,-0.13 1.606,4.46 0.431,3.35 -0.008,2.93 -0.797,10.48 -1.8,13.09 -0.095,3.64 -0.402,0.72 -0.151,-0.61 -0.23,0.19 -0.639,-0.67 -0.475,-2.71 0.343,-5.7 0.436,-3.14 0.71,-1.83 1.508,-0.37 1.182,0.1 3.107,-1.1 6.764,-0.55"
     id="path91" />
</g>
<g
   id="g92"
   transform="translate(-371.597,-306.70712)">
  <path
     fill="none"
     stroke-width="4"
     stroke-linecap="round"
     stroke-linejoin="round"
     d="m 327.178,1052.62 -0.447,0.58 -0.804,2.58 -1.019,4.56 -1.583,12.3 -0.732,15.84 0.419,6.54 0.696,3.49 0.389,-0.28 -0.071,-0.48 0.07,0.33 2.535,-2.45 3.773,-1.9 5.107,-5.17 1.484,-0.47 h 0.59 l 1.03,2.59 1.867,3.05 1.757,1.3 2.971,1.21 6.08,-0.1 8.791,-1.96 3.398,-1.99 0.575,-0.48 0.71,-1.43 0.435,-2.77 -0.149,-2.13 -0.987,-4.3 -0.511,-0.62 -1.375,0.96 -3.086,3.42 -1.495,3.15 -0.951,4.27 0.819,2.57 1.714,1.36 2.91,0.34 3.834,-0.34 2.941,-1 1.305,-0.02 2.393,-1.37 1.374,-1.57 2.456,-0.84 2.065,-1.17 0.772,-1.09 0.731,-0.05 1.824,-1.17 1.272,-0.41 0.755,0.33 0.32,0.78 0.444,5.86 0.709,3.84 1.464,3.22 -0.018,-1.29 -0.032,0.3 -0.318,0.02 0.573,-8.01 0.883,-3.36 0.659,-1.49 1.095,-1.34 2.399,-1.85 1.329,0.42 0.516,-0.35 1.537,1.41 1.23,0.61 0.837,-0.02 2.552,0.8 7.545,0.09 4.608,-0.53 2.938,-1.41 0.348,0.18 0.273,-2.11 -0.342,-3 -0.507,-1.45 -2.609,2.49 -1.341,1.75 -1.019,2.08 -0.297,2.82 0.166,1.8 1.136,2.1 4.738,3.32 0.927,0.45 4.06,0.72 2.167,-0.09 7.481,0.99 11.848,-0.37 0.253,1.23 -0.699,2.75 -1.7,12.11 -0.787,1.56 -1.216,1.37"
     id="path92" />
</g>
<g
   id="g93"
   transform="translate(-371.597,-306.70712)">
  <path
     fill="none"
     stroke-width="4"
     stroke-linecap="round"
     stroke-linejoin="round"
     d="m -318.279,1213.81 -0.557,0.82 -0.635,2.14 -0.199,2.51 0.032,0.81 1.131,2.75 2.874,1.92 2.767,0.23 3.28,-0.49 2.593,-1.3 3.328,-4.07 0.961,-4.57 -0.203,-0.38 -0.148,0.22 -0.628,5.98 0.077,6.5 0.523,3.99 0.562,1.74 3.246,17.13 0.42,3.76 0.254,8.08 -1.234,3.81 -1.945,2.36 -0.587,0.33 -2.343,-0.51 -3.345,-2.23 -1.914,-5.86 -0.422,-5.37 0.925,-6.34 2.186,-7.04 1.406,-2.96 1.833,-2.22 6.137,-4.41 5.927,-3.36 13.049,-5.2 2.726,-1.46 1.578,-1.41 1.282,-0.72 0.498,0.08 0.412,-0.87 -0.146,-1.17 -0.77,0.18 -0.646,-0.83 -1.301,-0.67 -0.444,0.62 -1.516,0.28 -2.013,1.68 -3.221,3.68 -1.462,3.1 -0.62,3.46 0.834,1.62 0.726,0.12 3.194,1.84 3.42,-0.11 5.294,-1.1"
     id="path93" />
</g>
<g
   id="g94"
   transform="translate(-371.597,-306.70712)">
  <path
     fill="none"
     stroke-width="4"
     stroke-linecap="round"
     stroke-linejoin="round"
     d="m -251.513,1194.79 -0.757,0.46 -1.004,2.26 -0.787,2.89 -0.508,3.6 -0.14,4.87 1.035,14.66 -0.205,10.7"
     id="path94" />
</g>
<g
   id="g95"
   transform="translate(-371.597,-306.70712)">
  <path
     fill="none"
     stroke-width="4"
     stroke-linecap="round"
     stroke-linejoin="round"
     d="m -257.457,1221.68 -0.602,-0.72 -0.772,-1.95 -0.281,-1.34 0.32,-0.18 10.338,-1.95 5.21,-1.33 5.422,-0.09"
     id="path95" />
</g>
<g
   id="g96"
   transform="translate(-371.597,-306.70712)">
  <path
     fill="none"
     stroke-width="4"
     stroke-linecap="round"
     stroke-linejoin="round"
     d="m -214.031,1235.41 -1.36,-0.18 -1.033,0.97 -5.203,12.3"
     id="path96" />
</g>
<g
   id="g97"
   transform="translate(-371.597,-306.70712)">
  <path
     fill="none"
     stroke-width="4"
     stroke-linecap="round"
     stroke-linejoin="round"
     d="m -151.951,1187.02 0.354,4.04 -0.194,7.87 -2.563,29.16 -0.75,5.45 1.159,-1.78 6.664,-6.16 4.429,-2.6 2.048,-0.3 1.519,0.6 2.224,0.1 1.023,0.9 0.335,1.71 -1.646,2 -1.934,1.51 -3.895,2.31 -1.193,1.06 -3.149,1.19 -2.082,1.51 -0.553,0.95 -0.98,0.3 -0.392,0.71 0.597,-0.53 1.981,-0.25 2.517,-0.88 1.511,-0.91 18.71,-6.97 1.288,-0.97 1.127,-0.22 0.425,0.24 0.742,-0.96 -0.271,0.24 0.032,0.67 -0.39,-0.21 -0.346,1.17 -0.516,4.08 0.074,3.05 1.244,4.32 1.285,1.26 2.559,1.4 0.921,-0.38 3.104,0.14 2.669,-1.71 2.544,-2.62 1.643,-2.39 1.5,-4.2 0.09,-1.72 -0.347,-1.37"
     id="path97" />
</g>
<g
   id="g98"
   transform="translate(-371.597,-306.70712)">
  <path
     fill="none"
     stroke-width="4"
     stroke-linecap="round"
     stroke-linejoin="round"
     d="m -89.0096,1198.5 -0.1362,-1.93 1.4034,2.59 0.7159,3.7 0.6005,9.67 -0.1527,9 -0.9111,7.5 -3.0157,7.86 -0.9116,0.8"
     id="path98" />
</g>
<g
   id="g99"
   transform="translate(-371.597,-306.70712)">
  <path
     fill="none"
     stroke-width="4"
     stroke-linecap="round"
     stroke-linejoin="round"
     d="m -90.2492,1229.6 0.5177,-2.7 0.4245,-0.75 2.4194,0.9 2.3643,0.17 11.7243,-0.23"
     id="path99" />
</g>
<g
   id="g100"
   transform="translate(-371.597,-306.70712)">
  <path
     fill="none"
     stroke-width="4"
     stroke-linecap="round"
     stroke-linejoin="round"
     d="m -8.75787,1206.57 1.10785,0.32 0.68096,1.12 0.71583,4.37 -0.26465,7.34 -1.38391,14.97 0.37731,4.71"
     id="path100" />
</g>
<g
   id="g101"
   transform="translate(-371.597,-306.70712)">
  <path
     fill="none"
     stroke-width="4"
     stroke-linecap="round"
     stroke-linejoin="round"
     d="m -17.8544,1212.61 -0.1018,-1.63 0.9117,-2.59 1.3743,-0.99 3.4642,-1.6 7.39106,-1.67 2.36621,-0.87 4.23968,0.67 1.64478,0.68 1.30719,0.17 1.41748,0.78 0.65051,-0.08"
     id="path101" />
</g>
<g
   id="g102"
   transform="translate(-371.597,-306.70712)">
  <path
     fill="none"
     stroke-width="4"
     stroke-linecap="round"
     stroke-linejoin="round"
     d="m -12.8817,1241.5 3.46343,-0.28 7.18505,-1.61 7.97529,-0.84 2.46392,-0.77"
     id="path102" />
</g>
<g
   id="g103"
   transform="translate(-371.597,-306.70712)">
  <path
     fill="none"
     stroke-width="4"
     stroke-linecap="round"
     stroke-linejoin="round"
     d="m 44.9084,1190.33 0.0266,-0.93 -0.3453,2.24 -2.2649,6.32 -5.2636,9.98 -0.1285,1.87"
     id="path103" />
</g>
<g
   id="g104"
   transform="translate(-371.597,-306.70712)">
  <path
     fill="none"
     stroke-width="4"
     stroke-linecap="round"
     stroke-linejoin="round"
     d="m 58.8372,1192.07 -0.8957,-3.49 0.3477,4.12 -0.3787,4.96 -4.7856,27.72 0.9398,2.91 2.4407,0.21 1.9006,-1.13"
     id="path104" />
</g>
<g
   id="g105"
   transform="translate(-371.597,-306.70712)">
  <path
     fill="none"
     stroke-width="4"
     stroke-linecap="round"
     stroke-linejoin="round"
     d="m 62.5416,1212.51 0.9986,-12.13 1.4104,-8.12 -0.2203,3.34 0.3591,3.54 0.0476,6.46 -0.4083,18.74 0.2568,4.9 1.1761,3.56"
     id="path105" />
</g>
<g
   id="g106"
   transform="translate(-371.597,-306.70712)">
  <path
     fill="none"
     stroke-width="4"
     stroke-linecap="round"
     stroke-linejoin="round"
     d="m 139.813,1186.65 -0.481,-0.33 -0.649,2.89 -1.281,12.27 0.118,10.76 0.85,12.72 -0.158,4.02 -0.814,3.58"
     id="path106" />
</g>
<g
   id="g107"
   transform="translate(-371.597,-306.70712)">
  <path
     fill="none"
     stroke-width="4"
     stroke-linecap="round"
     stroke-linejoin="round"
     d="m 125.977,1202.29 0.06,-1.37 0.898,1.58 10.096,4.04 8.302,0.26 5.651,-0.69 3.358,-1.11 4.988,-2.98 4.007,-5.64 2.802,-5.51 1.603,-4.18 0.435,-2.28 -0.117,-1.28 -0.226,0.44 -0.126,-0.31 -0.885,0.34 -1.848,1.76 -4.411,5.62 -2.339,4.3 -1.18,3.81 -1.09,5.37 -0.183,5.27 0.398,5.32 1.368,5 2.38,3.32 2.101,0.22 2.515,-1.24 2.409,-1.87 2.949,-3.05 2.297,-3.17 1.543,-1.34 0.489,0.37 1.171,-0.44 1.237,3.01 1.145,7.43 0.97,3.43 1.56,2.27 1.438,0.56 3.052,0.39 1.157,0.57"
     id="path107" />
</g>
<g
   id="g108"
   transform="translate(-371.597,-306.70712)">
  <path
     fill="none"
     stroke-width="4"
     stroke-linecap="round"
     stroke-linejoin="round"
     d="m 201.263,1216.74 -0.13,-0.18 -1.208,0.61 -1.229,2.5 0.119,2.57 1.213,5.48"
     id="path108" />
</g>
<g
   id="g109"
   transform="translate(-371.597,-306.70712)">
  <path
     fill="none"
     stroke-width="4"
     stroke-linecap="round"
     stroke-linejoin="round"
     d="m 211.805,1219.79 -0.674,0.01 -0.845,0.65 -0.193,2.38 1.25,2.69 1.21,1.43 0.47,-0.02 0.86,1.19 4.279,-5.17 3.026,-2.83 0.935,-0.41 0.341,0.46 1.588,0.02 1.964,6.28 2.955,3.63 3.429,0.81 2.715,-0.58 3.354,-1.33"
     id="path109" />
</g>
<g
   id="g110"
   transform="translate(-371.597,-306.70712)">
  <path
     fill="none"
     stroke-width="4"
     stroke-linecap="round"
     stroke-linejoin="round"
     d="m 249.357,1196.7 -1.404,-2.06 0.042,1.69 -2.067,13.7 -3.124,15.86 -0.04,2.36 0.523,2.32 0.989,1.57 1.587,0.77"
     id="path110" />
</g>
<g
   id="g111"
   transform="translate(-371.597,-306.70712)">
  <path
     fill="none"
     stroke-width="4"
     stroke-linecap="round"
     stroke-linejoin="round"
     d="m 257.11,1215.3 -2.026,-1.51 -2.172,-0.8 -1.773,-0.32 -3.57,0.77 -1.977,1.75 -1.51,2.54 0.133,4.58 1.374,1.98 3.78,1.77 4.216,0.85 5.784,0.69 13.466,0.61"
     id="path111" />
</g>
<g
   id="g112"
   transform="translate(-371.597,-306.70712)">
  <path
     fill="none"
     stroke-width="4"
     stroke-linecap="round"
     stroke-linejoin="round"
     d="m 326.734,1222.44 -0.343,-0.13"
     id="path112" />
</g>
<g
   id="g113"
   transform="translate(-371.597,-306.70712)">
  <path
     fill="none"
     stroke-width="4"
     stroke-linecap="round"
     stroke-linejoin="round"
     d="m 326.226,1220.15 0.277,-2.7 1.042,-0.91 0.46,-1.3 -0.18,-0.33 -0.294,0.52 -0.104,-0.42 -0.732,-0.47 -1.92,-0.25 -4.672,1.48 -2.502,1.72 -3.02,3.16 0.079,0.87 0.53,1.58 3.819,1.81 4.517,-0.23 2.305,-1.65 1.4,-1.92 0.082,-1.81 -0.451,-2.58 -0.581,-1.36 -0.649,-0.48"
     id="path113" />
</g>
<g
   id="g114"
   transform="translate(-371.597,-306.70712)">
  <path
     fill="none"
     stroke-width="4"
     stroke-linecap="round"
     stroke-linejoin="round"
     d="m 359.197,1201.85 1.881,-3.44 3.642,-9.22 0.755,-3.36 -0.167,-1.89 -4.843,-0.33 -3.268,0.79 -3.245,1.81 -3.881,3.24 -5.276,8.01 -1.423,5.61 -0.476,9.16 0.713,5.42 1.803,6.8 0.349,3.07 -0.333,1.85 -1.265,1.83 -1.198,0.07 -0.709,-0.39 -0.802,0.19 -1.063,-0.3 -1.417,-0.87 -1.271,-1.6 -0.943,-3.63 0.97,-2 2.893,-2.1 1.034,-0.41 4.477,-1.28 3.023,-0.33 4.462,-1 1.714,-0.73 1.728,-0.03"
     id="path114" />
</g>
<g
   id="g115"
   transform="translate(-371.597,-306.70712)">
  <path
     fill="none"
     stroke-width="4"
     stroke-linecap="round"
     stroke-linejoin="round"
     d="m -297.653,1325.31 0.007,-1.38 0.123,0.34 -0.498,0.59 -1.78,0.26 -8.625,4.98 -0.447,-0.16 -0.495,2.06 3.988,3.03 12.044,4.89 2.804,3.63 0.208,1.3 -1.139,2.16 -1.255,1.46 -4.437,2.44 -7.211,3.23 -2.291,0.72 -1.805,0.17 -0.211,-0.5 0.267,-1.09"
     id="path115" />
</g>
<g
   id="g116"
   transform="translate(-371.597,-306.70712)">
  <path
     fill="none"
     stroke-width="4"
     stroke-linecap="round"
     stroke-linejoin="round"
     d="m -274.854,1341.83 -4.354,-1.41 -0.689,-0.53 -0.856,0.36 -0.068,-0.2 0.373,1.54 -2.418,2.59 -0.847,1.36 -6.679,4.47 1.396,0.1 2.417,-0.8 1.183,0.08 3.136,-0.73 4.449,-2.06 4.799,-2.91 3.054,-2.43 0.762,-1.53 0.132,-0.86 -0.257,-0.51 -0.653,0.75 -0.003,1.45 -0.514,2.18 -0.29,7.65 0.747,3.17 0.614,1.17 0.585,0.39 2.409,-1.63 3.351,-3.37 5.924,-3.83 2.385,-2.02 0.486,0.24 0.717,-0.4 -0.327,0.4 0.07,3.82 -0.37,3.85 0.234,1.44 h 0.264 l 0.071,-0.7 0.071,0.31 0.358,0.02 1.14,-0.92 3.482,-3.83 5.926,-4.53 2.594,-1.55 -0.394,1.32 0.381,4.13 1.515,5.29 1.527,1.03 3.001,-0.45 4.18,-1.94 1.203,-0.25 5.625,-4.18 1.421,-2.16 0.159,-2.91 -0.334,-0.97 -0.167,0.13 0.003,-0.76 -0.499,-0.46 -0.887,-0.1 -1.608,0.74 -1.908,1.87 -1.466,2.31 -1.349,3.08 0.116,3.18 0.449,1.57 2.389,2.71 6.344,0.78 4.336,-1.12 7.759,-2.61"
     id="path116" />
</g>
<g
   id="g117"
   transform="translate(-371.597,-306.70712)">
  <path
     fill="none"
     stroke-width="4"
     stroke-linecap="round"
     stroke-linejoin="round"
     d="m -191.394,1318.12 -0.728,-0.05 -0.415,0.31 -0.521,2.6 -0.251,3.88 0.282,8.16 0.891,9.41 1.076,6.47 0.753,3.16 1.553,2.61"
     id="path117" />
</g>
<g
   id="g118"
   transform="translate(-371.597,-306.70712)">
  <path
     fill="none"
     stroke-width="4"
     stroke-linecap="round"
     stroke-linejoin="round"
     d="m -200.195,1336.21 -2.063,-0.94 -0.981,-0.89 4.289,1.73 4.393,0.41 4.156,-0.67 2.086,-0.98 6.184,-1.73 3.748,-2.29 7.027,-5.05 2.875,-2.43 0.642,-0.91 0.398,-1.69 0.224,-2.28 -0.434,-1.97 -1.279,-3.22 -1.004,-1.03 -1.937,0.93 -4.138,4.96 -2.287,3.89 -0.907,2.99 -1.38,8.01 -0.663,8.23 0.465,3.42 0.819,2.03 1.459,1.82 1.258,0.56 0.726,-0.28 0.803,0.4 2.679,-0.92 2.029,-1.58 0.933,-1.37 1.855,-1.7 0.356,0.35 0.45,-0.22 0.887,-1.71 2.953,-3.74 0.958,-0.8 -0.042,1.7 1.378,7.94 0.731,1.89 0.487,0.25 1.479,2.58 2.636,1.48 4.877,-2.04"
     id="path118" />
</g>
<g
   id="g119"
   transform="translate(-371.597,-306.70712)">
  <path
     fill="none"
     stroke-width="4"
     stroke-linecap="round"
     stroke-linejoin="round"
     d="m -142.946,1339.96 -0.628,-0.17 -0.69,1.1 -0.814,2.31 -0.188,2.39 0.672,5.3 0.467,1.21 0.817,0.34 0.245,-0.22"
     id="path119" />
</g>
<g
   id="g120"
   transform="translate(-371.597,-306.70712)">
  <path
     fill="none"
     stroke-width="4"
     stroke-linecap="round"
     stroke-linejoin="round"
     d="m -125.515,1341.2 -0.303,0.17 -0.387,-0.32 -0.279,0.79 0.091,4.04 0.46,2.95 0.631,0.89 0.426,0.14 5.686,-4.71 1.626,-0.69 3.816,-3.16 3.632,-1.36 1.382,-0.2 1.311,-0.89 2.011,-0.79 2.752,-0.04 0.184,1.34 -0.9,3.11 -0.578,3.65 0.299,2.97 1.327,1.56 1.483,0.79 1.4738,-0.17 1.1488,0.42 2.7031,0.18 3.3601,-0.84 2.0396,-0.96 4.9519,-1.5 1.4721,-0.19 3.6863,-2.15 1.7116,-2.25 0.2955,-1.87 -0.3511,-1.82 -1.3326,-2 -1.8492,-1.19 -1.2518,0.03 -2.7708,1.26 -3.008,2.09 -2.9674,3.75 -1.8621,4.03 -0.1674,1.22 0.6678,0.97 1.2541,0.78 2.6845,0.41 0.8933,-0.26 3.2387,-1.7 3.0209,-3.43 0.3584,-0.96 0.9963,-0.41 -0.2425,0.53 0.2932,1.78 1.8392,7.12 3.2203,9.87 1.6481,3.8 1.7745,5.87 1.6729,9.04 0.0218,1.83 -0.3578,1.51 -1.6357,3.11 -2.2532,0.76 -1.5915,0.05 -1.422,-0.5 -0.8357,-0.91 -0.342,0.13 -1.7229,-0.86 -1.8387,-1.77 -1.0524,-2.67 -0.8332,-1.07 -0.3007,-1.77 0.1413,-1.68 0.5692,-1.76 3.3554,-4.08 3.9678,-3.54 4.1845,-4.51"
     id="path120" />
</g>
<g
   id="g121"
   transform="translate(-371.597,-306.70712)">
  <path
     fill="none"
     stroke-width="4"
     stroke-linecap="round"
     stroke-linejoin="round"
     d="m -49.9506,1351.52 -1.1547,-1.1 -0.1161,-0.75 1.4785,2.01 1.4538,1.26"
     id="path121" />
</g>
<g
   id="g122"
   transform="translate(-371.597,-306.70712)">
  <path
     fill="none"
     stroke-width="4"
     stroke-linecap="round"
     stroke-linejoin="round"
     d="m 55.3407,865.295 -0.8059,-0.551 -0.4169,0.248 0.2069,0.933 0.6117,-0.053 0.1545,0.295 0.7426,-0.955 0.5539,-0.403 0.4083,0.089 1.1105,-2.132 -1.3435,1.273 -0.6312,1.26 0.1608,0.338"
     id="path122" />
</g>
<g
   id="g123"
   transform="translate(-371.597,-306.70712)">
  <path
     fill="none"
     stroke-width="4"
     stroke-linecap="round"
     stroke-linejoin="round"
     d="m 57.5266,885.867 -0.466,0.373 -0.7538,-0.583 0.4159,0.396 -0.9437,1.294 -0.0087,-0.374 0.1566,0.184 0.7482,-0.383 2.1292,-1.763 0.2885,0.048 0.2206,-0.737 -0.1652,0.506 -0.8546,0.506 -0.7019,1.328 0.6759,-0.429 0.1268,-0.461 1.0226,-0.373"
     id="path123" />
</g>
<metadata
   id="metadata123">
  <rdf:RDF>
    <cc:Work
       rdf:about="">
      <dc:title>Notebook 2</dc:title>
    </cc:Work>
  </rdf:RDF>
</metadata>
</svg>
