<?xml version="1.0" encoding="UTF-8" standalone="no"?>
<svg
   width="512"
   height="425"
   viewBox="0 0 512 425"
   xmlns="http://www.w3.org/2000/svg">
  <style type="text/css">
      path {
         stroke: #222222;
      }
      @media (prefers-color-scheme: dark) {
         path {
         stroke: #eaebed;
         }
      }
   </style>
  <g
     fill="none"
     stroke-width="23"
     stroke-linejoin="round"
     transform="translate(-4.4877108,-65.430076)">
    <path
       d="M 39.604213,213.63255 C 81.511211,165.21794 124.09838,112.36178 184.82272,87.129415 c 57.47191,-23.43203 120.39105,-2.539675 172.25534,24.979645 36.61635,21.43377 76.83025,39.91593 105.2866,72.3394 19.14359,27.10037 36.83845,57.26266 42.33408,90.41972 3.16246,40.58621 -28.10021,71.98938 -52.64592,100.26561 -26.41016,28.19956 -50.91871,59.70211 -85.99995,77.81877 C 307.68121,486.91059 232.64471,485.482 173.86615,453.23981 122.05612,425.56649 79.248138,382.34754 47.204129,333.55937 35.392753,308.60771 9.034749,284.83587 17.630088,254.78052 c 4.477802,-15.02608 13.29209,-28.2684 21.974125,-41.14797 z"
       />
    <path
       d="m 156.90725,360.47657 c -16.67496,15.96528 6.82217,47.11651 15.74773,48.00996 -5.24924,-16.00332 -10.49849,-32.00664 -15.74773,-48.00996 z"
       />
    <path
       d="m 344.9346,363.08777 c -16.6657,15.94751 6.78507,47.09643 15.7088,47.98528 -5.23627,-15.9951 -10.47253,-31.99019 -15.7088,-47.98528 z"
       />
  </g>
</svg>
