<?xml version="1.0" encoding="UTF-8" standalone="no"?>
<svg
   width="846.46899"
   height="1276.4987"
   viewBox="-702 0 846.46899 1276.4987"
   version="1.2"
   id="svg181"
   sodipodi:docname="page2.svg"
   inkscape:version="1.3.2 (091e20e, 2023-11-25)"
   xmlns:inkscape="http://www.inkscape.org/namespaces/inkscape"
   xmlns:sodipodi="http://sodipodi.sourceforge.net/DTD/sodipodi-0.dtd"
   xmlns="http://www.w3.org/2000/svg"
   xmlns:svg="http://www.w3.org/2000/svg"
   xmlns:rdf="http://www.w3.org/1999/02/22-rdf-syntax-ns#"
   xmlns:cc="http://creativecommons.org/ns#"
   xmlns:dc="http://purl.org/dc/elements/1.1/"><defs
   id="defs181" />
<sodipodi:namedview
   id="namedview181"
   pagecolor="#ffffff"
   bordercolor="#000000"
   borderopacity="0.25"
   inkscape:showpageshadow="2"
   inkscape:pageopacity="0.0"
   inkscape:pagecheckerboard="0"
   inkscape:deskcolor="#d1d1d1"
   inkscape:zoom="1.2478538"
   inkscape:cx="316.1428"
   inkscape:cy="474.81522"
   inkscape:window-width="1312"
   inkscape:window-height="712"
   inkscape:window-x="127"
   inkscape:window-y="323"
   inkscape:window-maximized="0"
   inkscape:current-layer="svg181" />
<title
   id="title1">Notebook</title>
\n<g
   id="g1"
   transform="translate(-326.855,-189.48109)">
  <path
     fill="none"
     stroke="#000000"
     stroke-width="4"
     stroke-linecap="round"
     stroke-linejoin="round"
     d="m 43.1821,191.733 0.963,-0.252 -0.0648,0.203"
     id="path1" />
</g>
<g
   id="g2"
   transform="translate(-326.855,-189.48109)">
  <path
     fill="none"
     stroke="#000000"
     stroke-width="4"
     stroke-linecap="round"
     stroke-linejoin="round"
     d="m -28.2214,1435.22 -0.235,0.06 0.2357,0.33 2.3637,-3.52 2.4773,-6.16 1.7602,-3.07 0.6619,-0.31 -0.0154,-0.3 -0.1242,0.41 0.1297,-0.39 -0.0724,0.49 1.7438,2.6 2.0436,5.07 0.6471,1.99 0.3147,2.67 0.068,-0.49 0.0465,0.28 0.2198,-0.25 0.1521,0.22 1.2098,-0.44 6.88725,0.67 1.87756,0.55 1.41903,-0.09 1.20644,0.7 1.08405,0.01 1.620657,0.69 0.182896,-0.22 -0.047743,0.37 0.102614,-0.45 0.078348,0.36 0.406498,-0.3 0.106142,0.41 0.122223,-0.35 0.272545,0.44 0.185887,-0.15 -0.121525,0.19 -0.020756,-0.38 -2.099896,3 -0.21798,-0.22 -2.90898,3.56 -2.16338,1.98 -0.57357,0.11 -0.67716,1.11 -1.02562,0.96 -0.41198,-0.01 -0.01561,0.41 -0.5851,0.42 -0.09154,-0.24 0.10555,0.32 0.74148,-0.86"
     id="path2" />
</g>
<g
   id="g3"
   transform="translate(-326.855,-189.48109)">
  <path
     fill="none"
     stroke="#000000"
     stroke-width="4"
     stroke-linecap="round"
     stroke-linejoin="round"
     d="m -30.0681,1436.27 -0.7491,-0.36 -3.7143,0.65 -0.8509,-0.36 -5.0069,0.6 -0.1439,-0.25 -0.2918,0.25 -0.0209,-0.24 -0.0579,0.38 -0.0345,-0.35 0.0155,0.35 -0.6019,-0.21 0.4128,1.67 3.31,4.49 5.6869,3.73 1.1405,1.18 0.3981,-0.18 0.2992,0.55 0.0201,-0.38 -2.2373,8.67 0.296,2.28 -0.2363,1.45 0.1445,-0.28 0.1623,1.05 0.0374,-0.61 0.0305,0.31 1.4082,-0.81 0.6025,-0.86 0.8681,-0.17 0.7259,-0.74 1.7005,-0.46 2.8588,-1.45 1.4278,-1.04 0.5549,-0.26 0.3087,0.17 1.0707,-1.06 0.5569,-0.08 -0.1065,-0.29 -0.0061,0.49 0.0598,-0.58 -0.0451,0.56 2.7083,1.87 0.4288,0.7 1.6809,1.13 0.4586,0.68 0.6258,0.34 0.2787,-0.16 0.7551,0.98 2.5794,1.66 0.1526,0.55 0.3476,-0.13 0.42043,0.57 0.65643,-0.17 0.72727,1.03 0.66267,0.62 0.03836,-0.23 0.00197,0.39 0.05919,-0.38 -0.06976,0.46 0.08872,-0.75 -0.07867,0.49 -0.19667,-0.18 -0.57295,-1.75 -0.24418,-3.87 0.26918,-4.43 -0.29679,-2.84 -0.5195,-1.47"
     id="path3" />
</g>
<g
   id="g4"
   transform="translate(-326.855,-189.48109)">
  <path
     fill="none"
     stroke="#000000"
     stroke-width="4"
     stroke-linecap="round"
     stroke-linejoin="round"
     d="m -273.681,318.03 -0.247,-0.48 0.158,0.964 -1.183,8.755 -0.272,7.267 0.24,3.904 1.09,1.45 0.705,0.413 1.843,-0.17 3.436,-2.733 1.31,-1.96 2.562,-5.553 0.113,0.995 2.09,2.948 1.09,2.473 1.133,0.71 2.484,1.13 3.136,0.583 4.329,-0.353 2.93,-1.619 1.938,-2.067 1.651,-6.752 0.027,-4.753 -1.487,-10.906 -0.826,-1.605 -0.641,0.176 -0.553,1.101"
     id="path4" />
</g>
<g
   id="g5"
   transform="translate(-326.855,-189.48109)">
  <path
     fill="none"
     stroke="#000000"
     stroke-width="4"
     stroke-linecap="round"
     stroke-linejoin="round"
     d="m -232.493,331.507 -0.291,-0.323 -0.34,0.115 0.526,1.642 2.33,0.503 2.193,-0.765 2.189,-2.268 0.099,-0.49 -1.426,-1.341 -0.32,0.216 -1.328,-0.392 -1.928,1.148 -1.764,1.844 -1.161,2.619 -0.37,3.08 0.18,1.175 1.259,1.404 1.696,0.339 3.477,-0.24 3.024,-1.092 1.154,-0.759"
     id="path5" />
</g>
<g
   id="g6"
   transform="translate(-326.855,-189.48109)">
  <path
     fill="none"
     stroke="#000000"
     stroke-width="4"
     stroke-linecap="round"
     stroke-linejoin="round"
     d="m -218.004,312.601 -0.847,-0.754 0.511,0.651 0.191,1.102 0.428,5.487 -0.022,11.766 1.152,5.195 0.766,1.245 1.918,0.81"
     id="path6" />
</g>
<g
   id="g7"
   transform="translate(-326.855,-189.48109)">
  <path
     fill="none"
     stroke="#000000"
     stroke-width="4"
     stroke-linecap="round"
     stroke-linejoin="round"
     d="m -205.725,325.782 -2.31,2.989 -1.419,2.703 -0.474,2.127 0.766,2.539 0.955,0.954 2.36,0.56 3.653,-0.366 2.665,-0.959"
     id="path7" />
</g>
<g
   id="g8"
   transform="translate(-326.855,-189.48109)">
  <path
     fill="none"
     stroke="#000000"
     stroke-width="4"
     stroke-linecap="round"
     stroke-linejoin="round"
     d="m -191.017,328.582 -1.192,-1.443 -3.174,-0.119 -1.243,0.622 -1.307,1.299 -0.456,0.016 -1.521,2.911 -0.289,1.235 0.283,1.205 1.01,1.201 2.363,0.568 5.065,-1.605 1.122,-1.028 0.74,-1.424 0.214,-1.916 0.224,0.157 0.649,-2.604 0.671,-1.18 0.591,4.791 0.097,4.558 0.388,1.53 0.596,0.401 2.275,-1.783 1.126,-2.273 1.384,-1.255 1.38,-2.499 1.756,-0.96 0.518,0.372 -0.192,0.486 0.489,5.623 0.355,1.106 1.206,1.07 0.843,-0.294 3.28,-2.411 3.364,-5.374 0.639,-0.694 0.88,-0.371 0.231,-0.529 -0.47,1.477 0.641,4.015 0.859,1.726 1.688,1.584 1.301,0.404 3.079,0.254 2.625,-0.384 0.784,0.265 1.792,-1.168 1.278,-1.446 0.247,0.182 0.292,-1.084 0.573,-4.57 -0.831,-1.23 -0.496,0.049 -0.337,0.593 -0.559,-0.006 -1.223,0.881 -1.095,1.916 -0.285,3.388 0.901,2.617 1.523,1.077 1.408,0.27 5.177,-0.012 6.011,-1.187"
     id="path8" />
</g>
<g
   id="g9"
   transform="translate(-326.855,-189.48109)">
  <path
     fill="none"
     stroke="#000000"
     stroke-width="4"
     stroke-linecap="round"
     stroke-linejoin="round"
     d="m -132.826,303.811 -0.3,-0.079 0.303,1.534 -0.187,6.36 -1.702,10.536 0.021,4.34"
     id="path9" />
</g>
<g
   id="g10"
   transform="translate(-326.855,-189.48109)">
  <path
     fill="none"
     stroke="#000000"
     stroke-width="4"
     stroke-linecap="round"
     stroke-linejoin="round"
     d="m -128.293,338.944 -0.412,-0.428 0.396,-0.475 0.221,0.309 0.505,-0.035 0.634,-0.455"
     id="path10" />
</g>
<g
   id="g11"
   transform="translate(-326.855,-189.48109)">
  <path
     fill="none"
     stroke="#000000"
     stroke-width="4"
     stroke-linecap="round"
     stroke-linejoin="round"
     d="m -82.8779,318.898 -1.1333,0.037 -0.0171,-0.326 0.2517,8.851 -0.1852,4.718 0.7698,7.419 0.5615,1.491 0.1318,-0.76"
     id="path11" />
</g>
<g
   id="g12"
   transform="translate(-326.855,-189.48109)">
  <path
     fill="none"
     stroke="#000000"
     stroke-width="4"
     stroke-linecap="round"
     stroke-linejoin="round"
     d="m -96.8721,316.818 -0.8953,-1.023 -0.1313,-0.258 0.3012,-0.061 7.6992,3.477 3.3752,0.689 5.4286,0.501 1.4165,-0.404 4.0281,-10e-4 2.1138,-0.61 2.2838,-1.462 0.5072,0.011 0.4372,-0.529 0.9519,-2.234 -0.4614,-1.416 -0.9086,-1.322 -0.3994,-0.062 -0.1902,0.297 -0.7291,-0.21 -1.1733,1.533 -1.1681,3.657 -0.8417,4.044 -0.788,8.823 0.7277,6.147 0.5239,1.742 1.1915,1.866 0.5944,-0.036 1.3728,0.919 0.5756,-0.103 2.9438,-3 2.4922,-4.874 2.178,5.435 1.11,1.385 0.9306,0.457 0.4069,-0.207 1.4031,0.308 1.2356,-0.683"
     id="path12" />
</g>
<g
   id="g13"
   transform="translate(-326.855,-189.48109)">
  <path
     fill="none"
     stroke="#000000"
     stroke-width="4"
     stroke-linecap="round"
     stroke-linejoin="round"
     d="m -53.3472,329.453 -0.7586,0.295 -0.7676,1.462 -0.2953,2.607 0.2283,2.718 1.2401,4 2.6606,0.875"
     id="path13" />
</g>
<g
   id="g14"
   transform="translate(-326.855,-189.48109)">
  <path
     fill="none"
     stroke="#000000"
     stroke-width="4"
     stroke-linecap="round"
     stroke-linejoin="round"
     d="m -38.2333,329.78 -2.017,-1.275 -1.1599,1.231 -0.7401,0.147 -0.6248,0.662 -0.4605,1.248 0.3486,0.985 2.0757,2.53 3.4849,1.94 1.2781,1.078 0.8248,1.789 -0.5337,1.298 -1.3748,0.456 -3.2038,-0.011 -1.581,-0.229 -1.8518,-0.75"
     id="path14" />
</g>
<g
   id="g15"
   transform="translate(-326.855,-189.48109)">
  <path
     fill="none"
     stroke="#000000"
     stroke-width="4"
     stroke-linecap="round"
     stroke-linejoin="round"
     d="m -6.49942,325.84 -0.57711,0.193 -0.04402,0.781 0.47363,9.901 0.72199,2.957 0.66616,-0.117"
     id="path15" />
</g>
<g
   id="g16"
   transform="translate(-326.855,-189.48109)">
  <path
     fill="none"
     stroke="#000000"
     stroke-width="4"
     stroke-linecap="round"
     stroke-linejoin="round"
     d="m 4.75284,326.478 -0.40952,-0.575 -0.87626,0.806 -1.39503,0.551 -1.360207,1.179 -0.418815,0.646 0.019516,0.686 2.772526,2.724 6.25421,4.036 0.86184,0.895 0.0779,0.623 -0.5157,0.835 -2.35285,0.773 -4.06798,0.051 -1.59879,-0.304 -1.538364,-0.854"
     id="path16" />
</g>
<g
   id="g17"
   transform="translate(-326.855,-189.48109)">
  <path
     fill="none"
     stroke="#000000"
     stroke-width="4"
     stroke-linecap="round"
     stroke-linejoin="round"
     d="m 37.3404,326.217 -0.6831,2.017 -0.328,5.376 0.4855,3.873 0.4884,0.984 0.7665,0.382 0.4509,-0.969 2.0656,-2.208 0.9508,-2.246 0.989,-3.655 0.8579,-1.465 0.6747,7.326 0.3879,1.09 0.7699,0.807 0.7615,-0.785 1.0854,-0.242 2.131,-2.082 1.5308,-2.927 1.3463,-1.778 0.5874,4.193 1.4246,4.429 0.9288,1.014 0.4419,-0.242 0.4444,0.561 1.2199,0.356 1.0279,-0.184 0.9483,-0.62"
     id="path17" />
</g>
<g
   id="g18"
   transform="translate(-326.855,-189.48109)">
  <path
     fill="none"
     stroke="#000000"
     stroke-width="4"
     stroke-linecap="round"
     stroke-linejoin="round"
     d="m 63.9934,329.629 -0.2392,-0.706 -0.3487,0.271 -0.5664,1.882 0.2601,4.113 0.6186,1.127 0.816,0.385 1.487,0.123 3.2997,-0.519 1.1487,-0.677 2.0063,-0.44 2.9615,-3.442 0.6757,-2.441 -0.3817,0.747 -0.2835,2.086 -0.3361,4.557 0.6433,4.73 1.9678,8.583 0.2715,4.356 -0.2279,4.484 -0.5219,1.676 -1.4745,1.449 -1.9607,0.232 -1.2762,-0.47 -0.9471,-1.203 -1.5241,-3.153 -0.3803,-2.347 0.4455,-2.618 1.1924,-2.299 2.4493,-2.862 2.3971,-1.666 0.6316,-0.046 1.0296,-0.947"
     id="path18" />
</g>
<g
   id="g19"
   transform="translate(-326.855,-189.48109)">
  <path
     fill="none"
     stroke="#000000"
     stroke-width="4"
     stroke-linecap="round"
     stroke-linejoin="round"
     d="m 107.126,325.698 -0.526,0.225 -0.306,1.052 -0.205,5.09 0.818,11.105 0.822,5.726 -0.216,3.266 -1.209,-5.157 -0.315,-2.756 -0.017,-6.852 1.435,-8.189 1.116,-3.805 0.844,-1.447 0.536,-0.234 1.644,0.125 1.61,0.875 0.669,2.952 -0.404,2.351 -1.244,3.504 -2.846,2.518 -1.044,-0.104 0.061,-0.608 0.593,0.344 0.349,-0.645 2.115,-0.199 5.006,-1.179 2.839,-1.449 0.969,0.02 5.424,-4.153 0.19,-1.981 -0.593,-0.689 -0.209,0.327 -1.098,-0.719 -3.408,1.163 -0.886,1.133 -0.861,1.969 -0.388,2.303 0.531,3.482 2.859,1.643 6.101,-0.707 2.814,-1.295 1.344,-0.993 3.008,-3.316 1.386,6.066 1.079,1.41 0.05,0.575 0.153,-0.242 -0.479,-0.573 -0.094,-2.788 0.256,-2.205 0.982,-3.596 1.205,-1.179 0.318,0.343 2.064,-1.194 4.787,-1.009"
     id="path19" />
</g>
<g
   id="g20"
   transform="translate(-326.855,-189.48109)">
  <path
     fill="none"
     stroke="#000000"
     stroke-width="4"
     stroke-linecap="round"
     stroke-linejoin="round"
     d="m 157.869,325.203 -0.19,-0.227 -1.341,1.26 -1.364,0.587 -1.554,1.27 -0.077,0.477 1.122,1.144 1.04,0.606 0.603,-0.183 4.153,2.54 1.274,1.296 0.216,1.064 -0.945,1.057 -1.935,0.41 -2.225,0.952 -1.361,0.087 -0.739,-0.315 -0.716,0.39 -1.485,0.09 0.616,-0.725"
     id="path20" />
</g>
<g
   id="g21"
   transform="translate(-326.855,-189.48109)">
  <path
     fill="none"
     stroke="#000000"
     stroke-width="4"
     stroke-linecap="round"
     stroke-linejoin="round"
     d="m 172.854,329.594 -0.204,-0.808 -0.301,-0.107 -1.185,0.586 -1.966,0.014 -2.351,1.951 -0.59,1.337 0.12,2.153 0.551,0.83 1.005,0.497 3.784,-0.511 1.531,-1.15 0.473,-0.004 1.656,-1.821 0.523,-1.052 0.458,-0.005 0.998,-1.934 3.735,-2.455 -0.033,5.349 0.436,3.624 0.467,0.882 2.625,-1.697 4.586,-5.289 0.681,-1.423 1.028,-0.774 0.208,0.44 0.185,-0.201 -0.717,0.975 -0.074,2.411 0.779,3.06 1.396,2.102 5.558,1.756 1.838,-0.138"
     id="path21" />
</g>
<g
   id="g22"
   transform="translate(-326.855,-189.48109)">
  <path
     fill="none"
     stroke="#000000"
     stroke-width="4"
     stroke-linecap="round"
     stroke-linejoin="round"
     d="m 204.179,328.461 -0.67,-0.525 -0.129,-0.769 0.125,0.567 1.323,-0.611 1.702,-0.025 1.426,0.656 0.547,0.849 0.313,3.376 0.72,2.201 1.268,1.679 0.523,-0.09 -3.596,-1.813 -1.699,-0.003 -0.52,-0.336 -0.936,0.68 -0.767,1.329 -0.429,1.266 0.052,0.815 0.337,0.388 1.69,0.269 3.27,-0.478 2.507,-0.85 2.294,-1.931"
     id="path22" />
</g>
<g
   id="g23"
   transform="translate(-326.855,-189.48109)">
  <path
     fill="none"
     stroke="#000000"
     stroke-width="4"
     stroke-linecap="round"
     stroke-linejoin="round"
     d="m 218.667,310.364 -0.643,-1.162 -0.469,-0.156 0.608,0.694 0.216,1.578 0.621,14.935 0.492,2.426 0.532,1.769 3.296,6.693 2.108,2.628"
     id="path23" />
</g>
<g
   id="g24"
   transform="translate(-326.855,-189.48109)">
  <path
     fill="none"
     stroke="#000000"
     stroke-width="4"
     stroke-linecap="round"
     stroke-linejoin="round"
     d="m 261.311,325.628 -0.089,-0.546 -0.703,0.621 -0.846,-0.448 -1.163,-0.069 -1.154,0.426 -2.005,0.092 -2.046,0.945 -0.555,1.844 1.576,1.209 2.035,0.945 1.814,0.17 5.291,1.313 0.619,0.32 0.915,1.28 0.041,-0.274 -0.413,1.069 -1.879,0.839 -2.419,0.556 -3.777,0.371 -2.437,-1.128 -0.149,-0.374"
     id="path24" />
</g>
<g
   id="g25"
   transform="translate(-326.855,-189.48109)">
  <path
     fill="none"
     stroke="#000000"
     stroke-width="4"
     stroke-linecap="round"
     stroke-linejoin="round"
     d="m 270.73,328.806 0.462,0.584 0.272,-0.178 0.477,1.025 2.374,7.353 0.639,1.492 0.502,0.286"
     id="path25" />
</g>
<g
   id="g26"
   transform="translate(-326.855,-189.48109)">
  <path
     fill="none"
     stroke="#000000"
     stroke-width="4"
     stroke-linecap="round"
     stroke-linejoin="round"
     d="m 280.222,313.905 0.021,4.025 1.608,11.644 1.681,9.368"
     id="path26" />
</g>
<g
   id="g27"
   transform="translate(-326.855,-189.48109)">
  <path
     fill="none"
     stroke="#000000"
     stroke-width="4"
     stroke-linecap="round"
     stroke-linejoin="round"
     d="m 278.877,327.607 -0.549,-1.078 0.358,-0.643 6.598,0.28 4.281,-0.509 5.576,-0.057 2.966,-0.616 0.563,-0.644 -0.07,0.239 -0.263,-0.396 -0.44,-1.097 -0.09,0.285 -0.75,-0.78 -0.79,0.028 -1.59,0.817 -1.287,1.434 -1.186,2.446 0.036,2.554 2.197,3.761 2.59,1.279 3.599,0.279"
     id="path27" />
</g>
<g
   id="g28"
   transform="translate(-326.855,-189.48109)">
  <path
     fill="none"
     stroke="#000000"
     stroke-width="4"
     stroke-linecap="round"
     stroke-linejoin="round"
     d="m 315.447,336.845 -1.306,-0.315 0.391,0.774 -0.023,0.931 0.416,0.021"
     id="path28" />
</g>
<g
   id="g29"
   transform="translate(-326.855,-189.48109)">
  <path
     fill="none"
     stroke="#000000"
     stroke-width="4"
     stroke-linecap="round"
     stroke-linejoin="round"
     d="m -236.419,714.747 -0.29,-1.076 -0.41,0.579 -1.154,0.352 -3.706,2.442 -2.099,2.077 -6.253,9.325 -1.115,2.304 -1.305,4.299 -0.392,3.461 0.17,2.559 1.22,2.826 2.488,2.153 1.852,0.955 4.528,1.223 1.919,0.013"
     id="path29" />
</g>
<g
   id="g30"
   transform="translate(-326.855,-189.48109)">
  <path
     fill="none"
     stroke="#000000"
     stroke-width="4"
     stroke-linecap="round"
     stroke-linejoin="round"
     d="m -222.48,719.466 -0.682,0.385 -1.995,16.103 -0.041,2.605 0.511,4.593 0.392,0.476 0.158,-0.706 1.235,-1.097 2.864,-4.099 1.825,3.773 2.339,1.705 1.28,0.128"
     id="path30" />
</g>
<g
   id="g31"
   transform="translate(-326.855,-189.48109)">
  <path
     fill="none"
     stroke="#000000"
     stroke-width="4"
     stroke-linecap="round"
     stroke-linejoin="round"
     d="m -205.28,737.143 -0.637,-1.95 -1.174,2.257 -1.013,3.171 0.002,1.738 1.839,1.351 1.977,-0.136 2.66,-1.279 0.807,-1.75 0.11,-1.14 -0.653,-1.748 -0.659,-0.416"
     id="path31" />
</g>
<g
   id="g32"
   transform="translate(-326.855,-189.48109)">
  <path
     fill="none"
     stroke="#000000"
     stroke-width="4"
     stroke-linecap="round"
     stroke-linejoin="round"
     d="m -195.62,721.89 -0.335,0.874 -0.236,4.193 0.335,13.774 0.623,2.123 0.911,0.656"
     id="path32" />
</g>
<g
   id="g33"
   transform="translate(-326.855,-189.48109)">
  <path
     fill="none"
     stroke="#000000"
     stroke-width="4"
     stroke-linecap="round"
     stroke-linejoin="round"
     d="m -181.956,736.254 -1.38,-0.707 -0.319,-0.048 -0.032,0.389 0.072,-0.419 0.33,0.471 -1.618,0.524 -1.828,1.814 -1.455,2.952 0.537,1.83 1.096,0.187 0.503,-0.279 1.59,0.722 5.363,-1.723"
     id="path33" />
</g>
<g
   id="g34"
   transform="translate(-326.855,-189.48109)">
  <path
     fill="none"
     stroke="#000000"
     stroke-width="4"
     stroke-linecap="round"
     stroke-linejoin="round"
     d="m -177.533,720.266 -0.63,0.165 -0.033,0.353 0.391,0.972 0.236,4.773 -0.946,12.119 0.541,5.225 0.731,1.719"
     id="path34" />
</g>
<g
   id="g35"
   transform="translate(-326.855,-189.48109)">
  <path
     fill="none"
     stroke="#000000"
     stroke-width="4"
     stroke-linecap="round"
     stroke-linejoin="round"
     d="m -156.667,733.399 0.195,-0.934 0.279,0.281 0.952,2.254 0.132,5.37 -0.414,3.54 0.388,1.514 0.226,-1.2 3.02,-4.227 1.719,-4.154 0.755,-0.831 0.424,6.735 0.296,0.647 1.276,-0.272 3.368,-1.89 1.623,-1.67 0.935,-1.827 0.464,-0.33 -0.304,0.585 0.355,2.668 1.115,3.519 0.915,0.261 0.531,-0.404 1.35,0.695 1.361,-0.093 3.566,-1.036 3.397,-1.354 1.342,-1.11 0.529,-2.046 -0.465,-2.543 -0.144,-0.23 -1.489,0.284 -0.4,-0.403 -1.489,2.096 -0.551,1.393 -0.253,2.647 0.616,1.892 3.566,1.46 2.21,-0.356 1.291,-0.597 1.261,0.044"
     id="path35" />
</g>
<g
   id="g36"
   transform="translate(-326.855,-189.48109)">
  <path
     fill="none"
     stroke="#000000"
     stroke-width="4"
     stroke-linecap="round"
     stroke-linejoin="round"
     d="m -94.5565,724.577 -0.0292,-0.821 0.4293,1.531 0.3338,3.221 -0.143,16.824 0.0934,0.803 0.1597,-0.378"
     id="path36" />
</g>
<g
   id="g37"
   transform="translate(-326.855,-189.48109)">
  <path
     fill="none"
     stroke="#000000"
     stroke-width="4"
     stroke-linecap="round"
     stroke-linejoin="round"
     d="m -99.3351,736.083 0.1881,-0.281 1.3709,0.313 2.0723,-0.937 2.5928,-0.437 4.5045,-1.349 2.515,-0.375 2.6871,0.061 0.2023,-0.457 -0.1015,0.521 -1.2177,1.066 -1.3516,3.967 0.1139,1.343 0.5349,1.004 1.3907,0.859 3.0884,0.068 2.1965,-1.655 0.2979,-2.447 -1.031,-2.518 -1.4898,-1.562 -0.1786,0.233 0.2757,0.467"
     id="path37" />
</g>
<g
   id="g38"
   transform="translate(-326.855,-189.48109)">
  <path
     fill="none"
     stroke="#000000"
     stroke-width="4"
     stroke-linecap="round"
     stroke-linejoin="round"
     d="m -60.295,737.77 -0.1523,-1.528 -0.4025,6.785 0.3604,2.675 0.2438,-0.339 0.1615,0.225"
     id="path38" />
</g>
<g
   id="g39"
   transform="translate(-326.855,-189.48109)">
  <path
     fill="none"
     stroke="#000000"
     stroke-width="4"
     stroke-linecap="round"
     stroke-linejoin="round"
     d="m -52.1564,723.266 -0.3838,0.166 -0.0373,4.312 -0.7902,9.828 0.4862,4.786 0.8332,2.091 0.0903,1.228 -0.3204,0.463"
     id="path39" />
</g>
<g
   id="g40"
   transform="translate(-326.855,-189.48109)">
  <path
     fill="none"
     stroke="#000000"
     stroke-width="4"
     stroke-linecap="round"
     stroke-linejoin="round"
     d="m -55.1127,738.722 0.3664,-0.651 1.0748,-0.411 5.9706,-1.051 0.6491,-0.465 1.8174,0.215 1.1259,-0.221"
     id="path40" />
</g>
<g
   id="g41"
   transform="translate(-326.855,-189.48109)">
  <path
     fill="none"
     stroke="#000000"
     stroke-width="4"
     stroke-linecap="round"
     stroke-linejoin="round"
     d="m -28.1506,732.076 -1.1568,-0.54 0.5306,2.436"
     id="path41" />
</g>
<g
   id="g42"
   transform="translate(-326.855,-189.48109)">
  <path
     fill="none"
     stroke="#000000"
     stroke-width="4"
     stroke-linecap="round"
     stroke-linejoin="round"
     d="m -30.3997,742.474 -1.2422,0.037 -0.5113,0.799 -0.1823,-0.554 0.7561,0.432 0.675,0.922 0.6269,0.139"
     id="path42" />
</g>
<g
   id="g43"
   transform="translate(-326.855,-189.48109)">
  <path
     fill="none"
     stroke="#000000"
     stroke-width="4"
     stroke-linecap="round"
     stroke-linejoin="round"
     d="m -2.18195,736.709 -0.53779,-0.422 0.49469,1.152 0.22323,6.75 0.45208,0.675"
     id="path43" />
</g>
<g
   id="g44"
   transform="translate(-326.855,-189.48109)">
  <path
     fill="none"
     stroke="#000000"
     stroke-width="4"
     stroke-linecap="round"
     stroke-linejoin="round"
     d="m 8.92359,722.937 -0.24507,-0.077 -0.19854,-1.101 -0.28245,0.542 0.45493,1.53 0.56003,4.815 0.3622,9.54 -0.91113,6.638"
     id="path44" />
</g>
<g
   id="g45"
   transform="translate(-326.855,-189.48109)">
  <path
     fill="none"
     stroke="#000000"
     stroke-width="4"
     stroke-linecap="round"
     stroke-linejoin="round"
     d="m 2.42296,733.412 -0.93903,-0.837 1.37586,-0.169 2.31555,0.611 1.4879,-0.195 0.76049,-0.427 1.93334,0.199 11.61533,-1.593 -0.4609,0.381 -0.3806,-0.231 -0.2337,0.69 -0.6473,0.437 -0.4666,-0.212 -0.7825,0.999 -1.4151,2.363 0.0297,1.176 0.4317,0.761 3.152,1.713 1.8657,0.099 2.8244,0.89 1.2589,1.389 -2.4441,2.197 -1.9186,0.73 -2.4988,0.195 L 18.3054,744"
     id="path45" />
</g>
<g
   id="g46"
   transform="translate(-326.855,-189.48109)">
  <path
     fill="none"
     stroke="#000000"
     stroke-width="4"
     stroke-linecap="round"
     stroke-linejoin="round"
     d="m 21.6043,720.634 -0.6486,-0.831 -0.6794,-0.278 -0.609,4.479"
     id="path46" />
</g>
<g
   id="g47"
   transform="translate(-326.855,-189.48109)">
  <path
     fill="none"
     stroke="#000000"
     stroke-width="4"
     stroke-linecap="round"
     stroke-linejoin="round"
     d="m 47.4007,744.825 -0.5415,0.599 -0.0244,-0.531 0.333,0.425 2.6637,-6.145 1.574,-10.383 0.286,-4.012 -0.0858,1.447 0.6981,2.2 1.1261,6.217 1.3863,3.164 0.9362,0.722 0.4046,-0.012 1,1.091 2.4597,-1.102 1.4119,-2.388 2.0462,-9.908 1.0889,-3.016 -0.1599,1.166 1.2223,3.447 1.2837,9.712 1.7851,6.633 0.2876,3.026"
     id="path47" />
</g>
<g
   id="g48"
   transform="translate(-326.855,-189.48109)">
  <path
     fill="none"
     stroke="#000000"
     stroke-width="4"
     stroke-linecap="round"
     stroke-linejoin="round"
     d="m 76.2982,736.832 -0.1571,-0.284 0.4448,0.499 1.1317,-0.616 1.2018,0.036 1.6072,0.227 1.0082,0.539 2.9591,5.783 -0.2262,-0.317 -0.118,0.525 -0.3154,-0.46 -4.9668,0.743 -0.7368,0.232 0.2194,0.555 0.593,-0.392 0.6083,0.663 1.6805,0.549 1.9982,-0.636 2.2412,0.138 1.8601,-0.974"
     id="path48" />
</g>
<g
   id="g49"
   transform="translate(-326.855,-189.48109)">
  <path
     fill="none"
     stroke="#000000"
     stroke-width="4"
     stroke-linecap="round"
     stroke-linejoin="round"
     d="m 91.4372,737.671 -0.2563,0.052 0.0574,0.447 0.3701,-0.164 0.3994,0.421 3.5098,5.271 2.6206,1.534 1.0912,-0.495"
     id="path49" />
</g>
<g
   id="g50"
   transform="translate(-326.855,-189.48109)">
  <path
     fill="none"
     stroke="#000000"
     stroke-width="4"
     stroke-linecap="round"
     stroke-linejoin="round"
     d="m 103.454,735.193 -1.106,0.355 -0.544,0.985 -1.092,5.362 -5.5266,19.712 -0.2777,1.998"
     id="path50" />
</g>
<g
   id="g51"
   transform="translate(-326.855,-189.48109)">
  <path
     fill="none"
     stroke="#000000"
     stroke-width="4"
     stroke-linecap="round"
     stroke-linejoin="round"
     d="m 128.006,734.943 -0.134,-1.342 2.197,-0.495 1.499,-0.102 2.909,1.254 -0.2,0.55 -0.327,-0.062 -0.88,1.367 -3.348,3.104 -1.257,1.611 -0.27,1.292 1.158,1.411 1.152,-0.12 2.006,0.42 0.687,-0.309 2.055,0.596 3.366,-1.312"
     id="path51" />
</g>
<g
   id="g52"
   transform="translate(-326.855,-189.48109)">
  <path
     fill="none"
     stroke="#000000"
     stroke-width="4"
     stroke-linecap="round"
     stroke-linejoin="round"
     d="m 145.218,730.946 -0.284,-1.175 0.201,0.322 0.716,-0.53 1.499,0.626 4.641,0.488 1.286,1.078 0.063,-0.232 -0.469,1.335 -0.682,0.863 -2.28,1.333 -0.431,0.747 -0.87,0.006 -1.842,0.677 0.732,-0.079 0.146,-0.398 0.53,1.154 0.693,0.581 0.654,0.096 2.343,1.629 1.574,0.351 0.599,0.916 0.033,1.516 -1.118,1.554 -0.469,0.338 -0.533,-0.073 -1.142,1.188 -2.975,-1.351"
     id="path52" />
</g>
<g
   id="g53"
   transform="translate(-326.855,-189.48109)">
  <path
     fill="none"
     stroke="#000000"
     stroke-width="4"
     stroke-linecap="round"
     stroke-linejoin="round"
     d="m 166.039,741.632 -0.12,-1 0.213,0.121 0.127,1.644 -0.217,2.987 -0.969,2.746 -1.234,1.543"
     id="path53" />
</g>
<g
   id="g54"
   transform="translate(-326.855,-189.48109)">
  <path
     fill="none"
     stroke="#000000"
     stroke-width="4"
     stroke-linecap="round"
     stroke-linejoin="round"
     d="m 177.436,728.754 -0.231,-0.524 0.237,-0.063 2.38,0.491 2.374,-0.028 2.998,0.933 0.258,1.183 -1.256,2.13 -4.753,4.968 -0.236,2.528 0.412,1.148 0.392,-0.061 1.318,1.364 2.688,0.059 2.425,-0.682"
     id="path54" />
</g>
<g
   id="g55"
   transform="translate(-326.855,-189.48109)">
  <path
     fill="none"
     stroke="#000000"
     stroke-width="4"
     stroke-linecap="round"
     stroke-linejoin="round"
     d="m 197.066,733.221 -0.913,0.517 -0.718,-0.22 -1.6,1.947 -0.914,0.508 -1.09,2.792 0.557,0.952 1.921,0.748 2.092,-0.083 3.064,-0.852 1.335,-2.222 -0.419,-1.54 -0.813,-1.66 -2.232,-1.074 -0.436,0.314"
     id="path55" />
</g>
<g
   id="g56"
   transform="translate(-326.855,-189.48109)">
  <path
     fill="none"
     stroke="#000000"
     stroke-width="4"
     stroke-linecap="round"
     stroke-linejoin="round"
     d="m 206.395,730.148 -0.339,0.302 0.179,0.104 2.668,-0.047 2.495,-0.453 1.662,0.061 0.649,-0.331 1.882,0.683 -0.431,2.058 -1.115,2.157 -2.206,2.239 -0.641,0.454 -0.424,-0.06 -1.109,1.692 0.38,0.829 0.931,0.854 4.025,0.139 1.582,-0.377 0.902,0.132 4.64,-2.487"
     id="path56" />
</g>
<g
   id="g57"
   transform="translate(-326.855,-189.48109)">
  <path
     fill="none"
     stroke="#000000"
     stroke-width="4"
     stroke-linecap="round"
     stroke-linejoin="round"
     d="m 229.796,725.771 0.714,-0.322 0.228,0.35 -3.356,10.595 0.335,-0.328 1.684,0.157 2.242,-0.333 1.487,-0.35 0.472,-0.399 1.091,0.321 0.839,-0.138 0.709,-0.528 1.503,-0.177 0.26,0.276 0.66,-1.532 0.212,-3.086 -1.272,3.522 -0.24,3.574 0.604,8.607 0.252,0.277 0.245,-0.234 0.712,0.272"
     id="path57" />
</g>
<g
   id="g58"
   transform="translate(-326.855,-189.48109)">
  <path
     fill="none"
     stroke="#000000"
     stroke-width="4"
     stroke-linecap="round"
     stroke-linejoin="round"
     d="m 253.234,740.793 -0.312,-0.059 0.121,-0.183 0.226,0.717 0.23,-0.219"
     id="path58" />
</g>
<g
   id="g59"
   transform="translate(-326.855,-189.48109)">
  <path
     fill="none"
     stroke="#000000"
     stroke-width="4"
     stroke-linecap="round"
     stroke-linejoin="round"
     d="m 264.093,740.788 0.22,0.461 0.126,-0.607 0.186,0.35 0.643,-0.243"
     id="path59" />
</g>
<g
   id="g60"
   transform="translate(-326.855,-189.48109)">
  <path
     fill="none"
     stroke="#000000"
     stroke-width="4"
     stroke-linecap="round"
     stroke-linejoin="round"
     d="m 272.992,737.671 -0.534,0.142 0.297,0.389 0.098,1.404 0.108,-0.429"
     id="path60" />
</g>
<g
   id="g61"
   transform="translate(-326.855,-189.48109)">
  <path
     fill="none"
     stroke="#000000"
     stroke-width="4"
     stroke-linecap="round"
     stroke-linejoin="round"
     d="m 278.097,713.151 0.108,-0.364 1.95,-0.038 1.519,1.029 2.306,0.935 3.204,2.275 7.612,8.382 0.957,1.637 1.48,3.921 0.127,3.356 -1.692,4.284 -1.208,1.609 -0.699,0.122 -6.26,6.256 -1.165,0.393 -0.182,0.716"
     id="path61" />
</g>
<g
   id="g62"
   transform="translate(-326.855,-189.48109)">
  <path
     fill="none"
     stroke="#000000"
     stroke-width="4"
     stroke-linecap="round"
     stroke-linejoin="round"
     d="m -373.145,518.52 5.033,-4.057 1.975,-3.259 2.368,-2.506 4.33,-7.68 1.863,-4.7 0.908,-1.344 2.039,-7.733 0.467,1.577 0.935,0.931 1.043,2.759 2.965,16.539 0.668,5.611 1.841,7.659"
     id="path62" />
</g>
<g
   id="g63"
   transform="translate(-326.855,-189.48109)">
  <path
     fill="none"
     stroke="#000000"
     stroke-width="4"
     stroke-linecap="round"
     stroke-linejoin="round"
     d="m -363.698,505.972 -1.883,-0.567 1.529,-0.095 3.592,1.172 3.244,0.324 1.774,-0.334 4.58,0.703 7.081,0.462"
     id="path63" />
</g>
<g
   id="g64"
   transform="translate(-326.855,-189.48109)">
  <path
     fill="none"
     stroke="#000000"
     stroke-width="4"
     stroke-linecap="round"
     stroke-linejoin="round"
     d="m -328.815,503.993 -0.466,1.224 0.038,-0.438 -0.427,0.099 -4.333,1.786 -4.735,3.058 -0.924,1.338 0.056,0.892 0.453,1.078 0.942,0.507 4.276,0.915 4.294,-0.976 2.372,-1.435"
     id="path64" />
</g>
<g
   id="g65"
   transform="translate(-326.855,-189.48109)">
  <path
     fill="none"
     stroke="#000000"
     stroke-width="4"
     stroke-linecap="round"
     stroke-linejoin="round"
     d="m -328.498,484.745 -0.511,-0.021 -0.298,-0.388 0.315,0.529 0.212,2.707 1.006,3.579 1.059,5.746 0.304,5.203 1.418,8.36 0.669,3.113 0.799,1.954"
     id="path65" />
</g>
<g
   id="g66"
   transform="translate(-326.855,-189.48109)">
  <path
     fill="none"
     stroke="#000000"
     stroke-width="4"
     stroke-linecap="round"
     stroke-linejoin="round"
     d="m -316.464,504.046 -0.33,0.266 0.012,-0.43 0.233,0.081 0.68,1.209 0.45,2.885 0.105,7.169 0.83,0.956 0.585,-0.115 0.554,0.31 0.365,-0.374 0.5,-1.134 0.668,-0.648 0.385,-1.633 1.899,-3.383 1.934,-1.165 0.632,2.31 0.369,3.944 0.315,1.032 1.086,1.039 0.107,-0.626 3.863,-5.916 0.253,0.05 1.004,-2.008 1.238,-0.772 1.482,5.254 1.515,2.095 1.288,0.109"
     id="path66" />
</g>
<g
   id="g67"
   transform="translate(-326.855,-189.48109)">
  <path
     fill="none"
     stroke="#000000"
     stroke-width="4"
     stroke-linecap="round"
     stroke-linejoin="round"
     d="m -286.213,505.898 -0.601,0.088 -0.52,0.647 0.226,4.226 1.274,4.918 0.918,0.259"
     id="path67" />
</g>
<g
   id="g68"
   transform="translate(-326.855,-189.48109)">
  <path
     fill="none"
     stroke="#000000"
     stroke-width="4"
     stroke-linecap="round"
     stroke-linejoin="round"
     d="m -280.831,488.091 -0.291,-0.181 0.519,0.017 0.569,0.806 0.552,1.48 0.714,4.699 -0.592,9.191 0.965,8.318 2.196,4.566 0.579,0.426 -0.006,-0.828"
     id="path68" />
</g>
<g
   id="g69"
   transform="translate(-326.855,-189.48109)">
  <path
     fill="none"
     stroke="#000000"
     stroke-width="4"
     stroke-linecap="round"
     stroke-linejoin="round"
     d="m -280.85,503.593 -0.878,-0.642 -0.283,0.113 0.232,-0.118 0.406,0.365 3.441,0.137 1.012,0.387 6.169,-0.544 1.383,-0.511 3.539,0.424 2.381,-0.199 0.944,-0.488 1.327,-0.104"
     id="path69" />
</g>
<g
   id="g70"
   transform="translate(-326.855,-189.48109)">
  <path
     fill="none"
     stroke="#000000"
     stroke-width="4"
     stroke-linecap="round"
     stroke-linejoin="round"
     d="m -265.61,488.138 -0.358,-0.235 -0.05,11.865 -0.663,4.85 0.346,8.343 0.855,3.343 1.561,1.68 1.171,0.751"
     id="path70" />
</g>
<g
   id="g71"
   transform="translate(-326.855,-189.48109)">
  <path
     fill="none"
     stroke="#000000"
     stroke-width="4"
     stroke-linecap="round"
     stroke-linejoin="round"
     d="m -255.658,509.868 -0.533,-0.333 0.973,0.392 4.477,-0.195 2.631,-1.318 1.985,-1.463 0.053,-0.566 -0.656,-1.369 -1.372,0.053 -1.58,-0.705 -1.177,0.575 -0.309,0.749 -0.711,0.427 -1.328,2.432 -0.48,2.78 0.609,3.048 1.042,0.882 2.023,0.819 2.853,-0.11 1.011,-0.334"
     id="path71" />
</g>
<g
   id="g72"
   transform="translate(-326.855,-189.48109)">
  <path
     fill="none"
     stroke="#000000"
     stroke-width="4"
     stroke-linecap="round"
     stroke-linejoin="round"
     d="m -233.444,508.581 -2.125,-1.305 -0.209,-0.519 -0.563,0.35 0.001,0.392 -2.111,1.554 -1.256,1.398 -0.773,2.5 0.442,1.629 1.031,0.956 2.129,0.697 2.072,-0.083 4.267,-1.815"
     id="path72" />
</g>
<g
   id="g73"
   transform="translate(-326.855,-189.48109)">
  <path
     fill="none"
     stroke="#000000"
     stroke-width="4"
     stroke-linecap="round"
     stroke-linejoin="round"
     d="m -232.877,493.101 -0.664,-1.331 0.235,0.013 0.576,3.301 0.198,3.951 -1.595,13.449 0.111,2.686 0.721,1.853 1.25,1.958 1.006,0.995 0.914,0.423"
     id="path73" />
</g>
<g
   id="g74"
   transform="translate(-326.855,-189.48109)">
  <path
     fill="none"
     stroke="#000000"
     stroke-width="4"
     stroke-linecap="round"
     stroke-linejoin="round"
     d="m -223.316,491.805 0.617,-0.082 0.386,4.182 -1.767,15.803 0.638,2.377 1.455,2.733 1.352,1.423"
     id="path74" />
</g>
<g
   id="g75"
   transform="translate(-326.855,-189.48109)">
  <path
     fill="none"
     stroke="#000000"
     stroke-width="4"
     stroke-linecap="round"
     stroke-linejoin="round"
     d="m -214.994,509.389 -0.286,-0.074 -0.413,0.732 0.008,2.818 2.314,2.174 2.907,-0.694 2.338,-1.303 1.295,-2.021 0.137,-1.547 -0.497,1.74 -0.446,5.033 0.588,3.664 3.109,6.977 1.956,2.655 2.483,6.145 0.385,3.449 -0.173,1.554 -2.355,2.203 -2.803,1.003 -0.906,-0.605 -0.531,-0.836 -1.662,-1.045 -1.921,-3.564 -0.167,-2.474 0.349,-1.48 2.749,-4.015 3.342,-3.483 0.734,-0.308 0.568,-0.877"
     id="path75" />
</g>
<g
   id="g76"
   transform="translate(-326.855,-189.48109)">
  <path
     fill="none"
     stroke="#000000"
     stroke-width="4"
     stroke-linecap="round"
     stroke-linejoin="round"
     d="m -189.705,518.638 1.047,2.849 0.237,2.309 -0.671,2.533 -1.286,2.438"
     id="path76" />
</g>
<g
   id="g77"
   transform="translate(-326.855,-189.48109)">
  <path
     fill="none"
     stroke="#000000"
     stroke-width="4"
     stroke-linecap="round"
     stroke-linejoin="round"
     d="m -161.268,493.483 -0.125,-0.269 -0.403,0.051 0.026,1.598 0.938,16.119 1.471,9.419 0.867,1.197 0.088,-1.163"
     id="path77" />
</g>
<g
   id="g78"
   transform="translate(-326.855,-189.48109)">
  <path
     fill="none"
     stroke="#000000"
     stroke-width="4"
     stroke-linecap="round"
     stroke-linejoin="round"
     d="m -166.963,501.433 -0.181,0.35 0.77,0.606 0.681,-0.033 2.692,1.483 3.317,0.617 6.879,-1.155 3.941,-1.453 1.745,-1.285 2.457,-2.996 -0.077,-3.258 -0.88,-2.813 -1.178,-2.158 -0.351,-0.123 -0.505,0.017 -0.572,0.496 -1.678,2.916 -1.246,4.564 -0.323,3.342 0.658,8.088 1.11,4.405 1.336,2.514 1.766,1.393 1.392,0.312 2.916,-4.19 1.138,-3.174 1.372,-1.999 0.751,-0.833 0.345,-0.005 0.722,1.091 2.313,6.693 1.184,1.602 0.425,0.33 0.535,-0.262 2.127,1.147 2.816,-0.489 1.894,-0.816 3.205,-2.163 1.258,-1.653 0.358,-1.085 -0.016,-1.791 -0.572,-1.889 -0.965,-1.17 -1.38,1.051 -1.062,3.396 0.121,3.028 0.67,1.849 1.278,1.429 2.06,1.091 2.414,0.371 3.438,-0.469"
     id="path78" />
</g>
<g
   id="g79"
   transform="translate(-326.855,-189.48109)">
  <path
     fill="none"
     stroke="#000000"
     stroke-width="4"
     stroke-linecap="round"
     stroke-linejoin="round"
     d="m -106.252,511.497 -0.334,0.22 -0.328,1.336 0.094,1.971 1.181,2.688 1.113,0.86 0.651,1.024 -0.535,-1.034 1.013,-6.027 1.588,-3.78 1.8771,-2.446 0.7452,-0.3 0.9006,0.604 0.2624,-0.174 0.8948,1.649 0.891,0.878 2.5277,1.267 2.1519,0.562 4.6813,0.526 1.8705,-0.337 1.2683,-0.673 0.1853,0.301 0.187,-0.765 -0.3633,-1.91 -1.6461,-2.311 -2.1145,-0.058 -1.5935,1.061 -0.9278,1.156 -1.0548,2.645 0.0629,2.232 0.3617,1.224 1.7085,2.859 1.3249,0.936 4.2926,1.132 3.7146,-0.506"
     id="path79" />
</g>
<g
   id="g80"
   transform="translate(-326.855,-189.48109)">
  <path
     fill="none"
     stroke="#000000"
     stroke-width="4"
     stroke-linecap="round"
     stroke-linejoin="round"
     d="m -66.7787,508.477 -1.4033,-0.868 -0.9512,0.191 -1.0687,0.836 -1.7571,2.161 -0.5141,1.442 0.294,1.215 0.5902,0.789 0.3334,-0.133 1.2572,1.914 2.0378,1.743 1.5525,2.054 -0.495,0.18 -0.3807,-0.298 -1.4254,0.848 -1.1602,-0.046 -0.603,-0.556 -1.8277,0.24"
     id="path80" />
</g>
<g
   id="g81"
   transform="translate(-326.855,-189.48109)">
  <path
     fill="none"
     stroke="#000000"
     stroke-width="4"
     stroke-linecap="round"
     stroke-linejoin="round"
     d="m -72.3748,492.721 -0.5584,-0.756 0.1068,0.637 -0.5028,1.857 -1.9007,5.151"
     id="path81" />
</g>
<g
   id="g82"
   transform="translate(-326.855,-189.48109)">
  <path
     fill="none"
     stroke="#000000"
     stroke-width="4"
     stroke-linecap="round"
     stroke-linejoin="round"
     d="m -36.8886,506.772 -0.3035,-1.203 0.1657,0.267 0.3414,-0.498 0.5399,2.306 0.1605,9.773 0.7223,3.002 0.3494,-1.466 0.9168,-0.85 0.2359,0.219 0.2396,-0.209 6.0546,-8.995 1.2421,-0.936 0.8994,5.082 1.3534,3.466 2.0849,2.557 2.1878,0.442"
     id="path82" />
</g>
<g
   id="g83"
   transform="translate(-326.855,-189.48109)">
  <path
     fill="none"
     stroke="#000000"
     stroke-width="4"
     stroke-linecap="round"
     stroke-linejoin="round"
     d="m -11.8166,511.735 -0.8205,-0.632 -0.6518,-1.822 -0.4088,-0.169 -0.1209,0.926 -2.4721,2.573 -1.2465,3.485 0.4509,1.369 1.3215,1.839 2.7635,0.602 1.8563,-0.199 0.8797,-0.867 0.40903,0.197 1.03514,-0.391 0.97724,-1.02 0.33518,-1.083 -0.54534,-1.506 -2.34565,-3.633"
     id="path83" />
</g>
<g
   id="g84"
   transform="translate(-326.855,-189.48109)">
  <path
     fill="none"
     stroke="#000000"
     stroke-width="4"
     stroke-linecap="round"
     stroke-linejoin="round"
     d="M 0.763298,490.247 H 0.450191 l -0.342399,0.547 -1.224142,4.333 -0.32056,8.044 1.025602,10.83 0.5097995,2.012 1.7109885,3.624 0.35514,0.079 0.54297,1.217 -2.29236,-8.013 -0.098637,-3.539 0.220955,0.657 0.432808,-0.029 2.046414,-0.695 5.6124,-0.821 2.08593,-0.932"
     id="path84" />
</g>
<g
   id="g85"
   transform="translate(-326.855,-189.48109)">
  <path
     fill="none"
     stroke="#000000"
     stroke-width="4"
     stroke-linecap="round"
     stroke-linejoin="round"
     d="m 42.2295,503.276 0.3804,4.521 -0.205,8.923 0.4318,-1.219 2.0548,-1.777 3.3939,-4.697 2.0558,-1.38 0.2303,0.552 -0.0743,9.13 0.2633,0.526 0.4147,-0.461 0.3555,0.167 1.2538,-1.919 1.4925,-0.995 2.6357,-4.246 1.377,-1.211 0.9179,0.342 2.8379,6.803 0.8696,0.769 0.9352,0.227"
     id="path85" />
</g>
<g
   id="g86"
   transform="translate(-326.855,-189.48109)">
  <path
     fill="none"
     stroke="#000000"
     stroke-width="4"
     stroke-linecap="round"
     stroke-linejoin="round"
     d="m 68.4859,507.034 0.1397,3.757 1.1069,4.892 0.7953,1.135 0.4202,-0.027 1.6107,1.162 3.0333,-1.01 1.7358,-1.595 0.7127,-1.155 1.6244,-5.929"
     id="path86" />
</g>
<g
   id="g87"
   transform="translate(-326.855,-189.48109)">
  <path
     fill="none"
     stroke="#000000"
     stroke-width="4"
     stroke-linecap="round"
     stroke-linejoin="round"
     d="m 92.5206,507.492 -2.1925,-1.358 -0.4516,0.347 -4.962,7.364 -0.2759,0.809 0.384,1.616 2.1965,2.045 3.1763,0.617 1.9971,-0.111 2.427,-0.583 2.7487,-1.258 0.71,-0.749"
     id="path87" />
</g>
<g
   id="g88"
   transform="translate(-326.855,-189.48109)">
  <path
     fill="none"
     stroke="#000000"
     stroke-width="4"
     stroke-linecap="round"
     stroke-linejoin="round"
     d="m 100.879,490.995 -0.874,-1.294 0.476,6.795 -0.39,13.599 0.238,1.65 0.588,1.054 1.77,1.908 0.8,-0.1 0.443,-0.663 0.255,0.246 1.364,-0.261 3.362,-2.424 3.251,-3.712 0.735,5.945 0.748,1.443 0.532,-0.089 0.911,1.314 1.831,0.933 2.527,0.658 5.654,-0.304"
     id="path88" />
</g>
<g
   id="g89"
   transform="translate(-326.855,-189.48109)">
  <path
     fill="none"
     stroke="#000000"
     stroke-width="4"
     stroke-linecap="round"
     stroke-linejoin="round"
     d="m 166.973,511.422 2.208,-4.655 -0.469,-0.635 -0.849,0.126 -2.115,-0.854 -2.033,-0.209 -2.091,0.544 -2.018,1.404 -1.547,2.335 0.316,2.474 0.127,-0.171 0.388,0.401 0.504,-0.097 1.007,0.474 2.355,-0.156 1.862,-0.578 2.602,-1.508 1.182,-1.056 0.83,-2.052 -0.518,2.68 -0.247,6.079 0.652,12.714 -0.03,5.239 -0.932,3.769 -1.294,1.098 -1.811,-0.522 -0.307,-0.506 -0.672,-2.069 0.026,-1.682 0.388,-3.814 0.923,-3.943 3.14,-7.164 3.073,-4.346 3.401,-1.814 8.399,-5.7 0.801,-1.175 -0.011,-0.614 -0.533,-0.004 -0.116,0.62 -0.899,-0.373 -3.455,3.499 -0.558,0.881 -0.569,2.122 0.606,1.527 0.785,0.69 1.299,0.315 1.617,-0.347 0.509,0.232 1.561,-2.506 0.352,-1.441 -0.293,-2.057 -0.264,-0.414 -0.21,0.125 -0.55,-1.638"
     id="path89" />
</g>
<g
   id="g90"
   transform="translate(-326.855,-189.48109)">
  <path
     fill="none"
     stroke="#000000"
     stroke-width="4"
     stroke-linecap="round"
     stroke-linejoin="round"
     d="m 193.12,504.413 0.264,0.895 -0.181,6.478 0.61,2.915 0.307,0.349"
     id="path90" />
</g>
<g
   id="g91"
   transform="translate(-326.855,-189.48109)">
  <path
     fill="none"
     stroke="#000000"
     stroke-width="4"
     stroke-linecap="round"
     stroke-linejoin="round"
     d="m 203.597,504.47 0.066,6.731 0.285,1.384 0.551,0.277 0.182,0.58 0.101,-0.471 2.211,-1.861 2.369,-3.372 2.828,-2.889 0.832,-0.412 1.759,-2.374 0.309,0.147 -0.084,0.723 -0.592,0.36 -0.26,1.503 0.403,4.205 1.353,2.283 2.64,1.34 1.248,0.345 1.755,-0.146 1.017,-0.53 2.859,0.344 2.108,-1.39 2.012,-3.605 0.285,-1.237 -0.416,-0.88 -0.935,-0.04 -1.641,0.833 -1.762,2.18 -1.567,1.35 -0.39,2.183 1.749,0.649 1.176,0.091 2.657,-0.596 3.604,-1.953 0.258,0.207 0.574,-1.65 -0.291,-0.657 -0.603,0.049 -0.996,1.592 -1.04,3.158 0.824,4.212 2.097,6.545 0.446,2.434 -0.262,2.964 -1.269,6.789 -1.094,2.746 -2.803,1.908 -1.761,-0.687 -0.398,0.714 -2.029,-3.429 -0.6,-1.933 -0.093,-1.998 0.421,-2.658 0.785,-1.851 1.99,-1.897 2.174,-1.427 2.392,-0.902"
     id="path91" />
</g>
<g
   id="g92"
   transform="translate(-326.855,-189.48109)">
  <path
     fill="none"
     stroke="#000000"
     stroke-width="4"
     stroke-linecap="round"
     stroke-linejoin="round"
     d="m 270.376,511.155 -0.225,-1.595 -0.686,-1.086 -0.668,-0.168 -0.417,0.429 -0.472,-0.252 -2.247,-0.03 -1.543,0.575 -0.383,0.567 -1.762,0.583 -1.416,1.998 -0.427,1.192 -0.286,3.294 0.799,1.076 1.846,0.51 1.954,-0.483 2.442,-1.153 0.86,0.038 3.559,-3.76 0.732,-1.528 0.531,-0.392 0.512,-1.646 1.271,-1.763 -0.234,0.54 0.708,1.951 -0.191,0.763 0.571,8.507 0.411,0.259 0.067,-0.545 2.784,-1.424 1.829,-2.824 2.068,-2.053 0.985,-2.025 0.672,-0.632 -0.053,-0.453 0.726,0.198 -0.25,0.492 2.174,6.039 1.694,1.923 1.435,0.783 1.624,0.395 1.347,-0.324 1.862,0.305 1.896,-0.106 3.39,-0.536"
     id="path92" />
</g>
<g
   id="g93"
   transform="translate(-326.855,-189.48109)">
  <path
     fill="none"
     stroke="#000000"
     stroke-width="4"
     stroke-linecap="round"
     stroke-linejoin="round"
     d="m 329.342,489.963 -0.774,0.453 -0.504,1.203 -0.548,6.692 0.844,11.594 0.801,3.769 0.299,4.68 0.715,1.919 -0.109,-0.28 0.252,0.05 0.23,-0.717 1.292,-1.364 2.57,-6.111 1.131,-1.927 0.897,2.655 0.592,5.349 1.337,1.874 2.677,1.046 2.788,-0.651 3.059,-1.42 0.807,-0.548 1.512,-2.013 1.265,-3.155 0.181,-3.328 -0.492,-1.582 -0.827,0.213 -1.045,1.06 -1.682,3.143 -0.449,3.644 0.175,1.181 1.103,2.697 3.255,0.539 2.639,-0.524 1.93,-0.96 1.752,-1.148 1.518,-1.573 1.732,-3.552 0.836,-0.788 0.28,0.181 0.396,-0.563 0.306,1.431 0.738,1.175 1.407,4.189 1.45,2.479 -0.053,0.376 -0.227,-4.159 -0.479,-2.254 0.083,-2.859 0.471,-2.287 0.587,-0.918 1.412,-0.397 0.921,0.128 1.492,1.99 0.839,0.828 0.529,0.048 1.181,1.574 2.763,-0.04 3.586,-1.479 0.52,0.057 1.527,-2.717 0.194,0.129 0.395,-2.451 -1.392,-1.037 -1.924,1.234 -2.211,2.945 -0.905,3.454 0.235,2.158 0.718,1.328 3.368,2.445 9.047,0.852 1.721,-0.175"
     id="path93" />
</g>
<g
   id="g94"
   transform="translate(-326.855,-189.48109)">
  <path
     fill="none"
     stroke="#000000"
     stroke-width="4"
     stroke-linecap="round"
     stroke-linejoin="round"
     d="m 420.727,502.734 -0.871,0.555 -0.824,1.088 -1.114,2.663 -0.5,3.785 0.388,3.672 1.18,1.469 1.15,0.168 2.304,-0.317 1.152,-0.863 2.573,-3.119 0.588,-5.261 -0.145,3.233 0.479,8.456 1.457,7.386 1.006,7.499 -0.325,2.357 -1.295,1.854 -2.152,1.081 -1.078,0.15 -0.98,-0.25 -0.568,-1.234 -0.287,-1.869 0.067,-3.337 0.594,-2.526 1.71,-4.414 2.187,-4.116 2.446,-3.709 3.467,-2.094 2.67,-2.119 0.855,-1.155 3.031,-2.192 2.062,-2.101 1.41,-2.435 0.211,-0.898 -0.235,-0.207 -0.384,0.323 -2.331,-0.371 -3.315,1.311 -0.826,1.368 -0.517,1.679 -0.272,2.453 0.652,2.97 1.106,2.061 2.173,1.391 2.177,0.15 3.605,-0.569 2.691,-1.18"
     id="path94" />
</g>
<g
   id="g95"
   transform="translate(-326.855,-189.48109)">
  <path
     fill="none"
     stroke="#000000"
     stroke-width="4"
     stroke-linecap="round"
     stroke-linejoin="round"
     d="m 454.324,492.94 -0.32,-0.847 0.234,-0.089 0.286,0.582 0.469,2.575 0.394,16.657 2.252,5.393 0.901,1.016 -0.132,-0.654"
     id="path95" />
</g>
<g
   id="g96"
   transform="translate(-326.855,-189.48109)">
  <path
     fill="none"
     stroke="#000000"
     stroke-width="4"
     stroke-linecap="round"
     stroke-linejoin="round"
     d="m 454.043,509.381 -0.091,-2.47 2.404,0.184 6.187,-0.659 6.781,-1.377"
     id="path96" />
</g>
<g
   id="g97"
   transform="translate(-326.855,-189.48109)">
  <path
     fill="none"
     stroke="#000000"
     stroke-width="4"
     stroke-linecap="round"
     stroke-linejoin="round"
     d="m -259.296,564.135 -0.78,-1.269 0.176,1.351 -1.103,20.405 0.192,4.806 -0.02,-0.317 0.242,0.214 -0.069,-0.771 0.204,0.148 2.006,-2.36 2.469,-4.784 2.158,-1.892 1.761,-0.598 1.105,0.475 0.558,1.395 -0.077,1.778 -0.982,2.647 -3.165,2.478 -4.814,2.209 0.208,0.272 0.735,-0.725 1.378,0.46 9.965,-3.172 7.104,-3.677 1.258,-1.92 -0.187,0.45 -0.51,0.152 -0.02,0.848 -0.616,0.831 -0.254,1.197 0.026,1.95 0.556,2.181 1.538,1.961 3.931,0.873 1.377,-0.67 1.403,-1.908 0.584,-2.454 0.248,-4.467"
     id="path97" />
</g>
<g
   id="g98"
   transform="translate(-326.855,-189.48109)">
  <path
     fill="none"
     stroke="#000000"
     stroke-width="4"
     stroke-linecap="round"
     stroke-linejoin="round"
     d="m -221.045,562.639 1.792,11.901 1.506,12.836 -0.079,2.384 -1.071,-0.494 -0.669,-1.413 -0.33,-1.689 0.284,-2.732 0.534,-0.475 0.391,0.158 4.129,-0.896 4.933,-0.04 3.857,-0.436"
     id="path98" />
</g>
<g
   id="g99"
   transform="translate(-326.855,-189.48109)">
  <path
     fill="none"
     stroke="#000000"
     stroke-width="4"
     stroke-linecap="round"
     stroke-linejoin="round"
     d="m -164.598,570.826 0.696,12.022 0.626,4.623"
     id="path99" />
</g>
<g
   id="g100"
   transform="translate(-326.855,-189.48109)">
  <path
     fill="none"
     stroke="#000000"
     stroke-width="4"
     stroke-linecap="round"
     stroke-linejoin="round"
     d="m -173.021,568.68 -0.628,-1.42 0.717,-0.561 10.713,0.014 2.41,0.836 2.002,1.436 0.093,0.412"
     id="path100" />
</g>
<g
   id="g101"
   transform="translate(-326.855,-189.48109)">
  <path
     fill="none"
     stroke="#000000"
     stroke-width="4"
     stroke-linecap="round"
     stroke-linejoin="round"
     d="m -173.286,588.211 -0.311,0.45 0.365,-0.204 0.642,1.069 1.317,1.167 1.89,0.664 2.137,0.294 7.136,-0.223 5.552,-1.159"
     id="path101" />
</g>
<g
   id="g102"
   transform="translate(-326.855,-189.48109)">
  <path
     fill="none"
     stroke="#000000"
     stroke-width="4"
     stroke-linecap="round"
     stroke-linejoin="round"
     d="m -127.136,578.619 1.054,-1.025 1.83,-0.467 0.873,0.165 1.348,1.967 3.154,6.64 -0.073,0.318 -0.288,-0.646 -0.992,0.254 -3.882,-0.105 -2.691,0.795 -0.411,-0.2 -0.712,1.106 -0.101,0.776 1.196,2.191 1.743,0.894 2.031,0.249 4.846,-0.468 3.459,-0.938"
     id="path102" />
</g>
<g
   id="g103"
   transform="translate(-326.855,-189.48109)">
  <path
     fill="none"
     stroke="#000000"
     stroke-width="4"
     stroke-linecap="round"
     stroke-linejoin="round"
     d="m -110.595,578.694 -0.528,-0.094 -0.385,0.345 0.068,1.746 0.692,3.992 0.236,3.634 0.244,1.013 0.772,0.609"
     id="path103" />
</g>
<g
   id="g104"
   transform="translate(-326.855,-189.48109)">
  <path
     fill="none"
     stroke="#000000"
     stroke-width="4"
     stroke-linecap="round"
     stroke-linejoin="round"
     d="m -106.672,579.781 -0.271,0.08 0.115,1.521 2.501,6.874 -0.016,-0.479 2.966,-2.318 2.3821,-2.899 1.5484,-1.081 1.2266,-1.97 0.6856,-0.311 -0.4323,1.321 0.1927,4.358 1.0035,2.087 0.4081,-0.14 0.4089,-0.757 0.8287,0.289 2.9087,-1.953 0.5371,0.027 1.5201,-1.716 1.3575,-1.003 -0.3501,1.11 1.456,4.897 0.4369,0.155 0.8166,1.879 1.5145,1.259 2.649,1.388 7.3589,-0.482"
     id="path104" />
</g>
<g
   id="g105"
   transform="translate(-326.855,-189.48109)">
  <path
     fill="none"
     stroke="#000000"
     stroke-width="4"
     stroke-linecap="round"
     stroke-linejoin="round"
     d="m -41.4215,562.334 -0.0529,-2.047 0.4204,1.748 0.5514,5.65 -0.1766,17.597 0.5247,2.877 0.5426,1.256"
     id="path105" />
</g>
<g
   id="g106"
   transform="translate(-326.855,-189.48109)">
  <path
     fill="none"
     stroke="#000000"
     stroke-width="4"
     stroke-linecap="round"
     stroke-linejoin="round"
     d="m -44.1025,580.56 3.4767,-0.646 1.4618,0.226 9.939,-0.952 2.3359,-0.322 0.659,-0.45 0.7264,0.643 -0.7705,0.453 -1.0996,0.07 -1.92,2.835 -1.1616,2.497 -0.0238,1.055 0.8133,1.483 1.4255,1.121 1.2395,0.154 0.6978,-0.265 2.3847,0.068 0.7546,-0.813 0.2402,-1.14 -0.5634,-3.432 -1.9215,-3.434 -1.4599,-0.871 -0.3885,1.004"
     id="path106" />
</g>
<g
   id="g107"
   transform="translate(-326.855,-189.48109)">
  <path
     fill="none"
     stroke="#000000"
     stroke-width="4"
     stroke-linecap="round"
     stroke-linejoin="round"
     d="m 10.071,580.277 -0.22161,-1.62 -0.45454,1.12 -2.14583,1.412 -1.65822,2.257 -0.79495,2.035 -0.29234,2.159 0.45716,2.699 1.00736,0.797 3.28958,0.945 4.99739,-1.048 3.8812,-1.685"
     id="path107" />
</g>
<g
   id="g108"
   transform="translate(-326.855,-189.48109)">
  <path
     fill="none"
     stroke="#000000"
     stroke-width="4"
     stroke-linecap="round"
     stroke-linejoin="round"
     d="m 21.5477,563.548 -0.3127,0.138 -0.2706,3.165 0.1959,9.235 0.7839,8.796 0.682,2.24 0.5578,0.823 1.769,0.924 2.0897,-1.347 1.2283,-1.873 0.4538,-0.226 1.1532,-3.422 1.9423,-3.323 -0.2795,2.178 0.4223,3.223 0.6549,2.299 1.1622,1.76 1.1187,0.825 2.2702,0.332 2.878,-0.173 2.3547,-0.81"
     id="path108" />
</g>
<g
   id="g109"
   transform="translate(-326.855,-189.48109)">
  <path
     fill="none"
     stroke="#000000"
     stroke-width="4"
     stroke-linecap="round"
     stroke-linejoin="round"
     d="m 45.771,575.924 0.214,-0.339 0.2128,0.414 1.0107,-0.448 1.6359,0.692 1.6153,1.339 1.7562,2.663 1.029,2.89 0.9452,1.664 -0.1124,0.374 -0.3325,-0.678 -3.6954,-0.6 -3.5105,0.822 -0.833,1.136 -0.1322,1.202 0.6147,1.343 1.046,0.433 3.0739,0.327 3.1844,-0.634 3.1091,-1.527 3.2993,-2.523 1.2354,-1.626 2.0846,-1.596 2.3015,-3.32 -0.8751,1.235 -0.1383,3.171 0.1693,2.991 1.0089,3.374 0.9454,0.01 0.1131,0.413 0.291,-0.73 3.7394,-2.323 2.63,-2.813 1.312,-2.072 0.8213,-0.477 1.0813,-1.282 -1.165,1.616 -0.3599,1.752 0.0491,1.826 0.7344,2.526 1.4816,1.805 2.4262,1.34 3.3192,1.063 6.2514,-0.803"
     id="path109" />
</g>
<g
   id="g110"
   transform="translate(-326.855,-189.48109)">
  <path
     fill="none"
     stroke="#000000"
     stroke-width="4"
     stroke-linecap="round"
     stroke-linejoin="round"
     d="m 93.4612,586.342 0.3908,-4.35 -0.4318,-1.239 -3.5872,1.881 -0.4403,0.853 -1.3409,0.852 -0.4047,1.384 0.2308,0.983 0.6686,0.833 2.272,0.486 2.5748,-1.06 1.0839,-1.273 0.8273,-2.449 -0.3124,0.102 -0.1674,-0.432 -0.1333,0.401 -1.1011,5.267 0.4614,2.548 2.7243,8.877 0.6674,4.222 -0.1412,4.071 -0.9921,3.255 -1.9483,1.531 -1.6059,0.271 -1.0914,-0.348 -0.4187,0.205 -1.7953,-2.471 -0.5426,-2.076 0.119,-2.812 1.3147,-3.802 2.4444,-2.892 4.7505,-4.366 4.3975,-3.111 2.577,-2.261 4.457,-4.645 0.822,-1.722 -0.003,-2.602 -1.242,-1.074 -1.374,0.825 -1.738,2.36 -0.685,2.926 0.399,2.214 0.895,1.293 2.454,1.428 2.128,0.507 3.227,0.176 3.764,-0.647"
     id="path110" />
</g>
<g
   id="g111"
   transform="translate(-326.855,-189.48109)">
  <path
     fill="none"
     stroke="#000000"
     stroke-width="4"
     stroke-linecap="round"
     stroke-linejoin="round"
     d="m 154.85,559.249 -0.549,-1.357 -0.992,19.437 1.014,5.534 0.746,1.566 0.305,0.09 0.37,1.237 -0.062,0.698 -0.035,-0.436 -0.403,-0.025"
     id="path111" />
</g>
<g
   id="g112"
   transform="translate(-326.855,-189.48109)">
  <path
     fill="none"
     stroke="#000000"
     stroke-width="4"
     stroke-linecap="round"
     stroke-linejoin="round"
     d="m 142.678,571.424 -0.367,-0.83 0.391,-0.226 0.399,0.224 2.24,-0.137 4.507,0.92 5.089,0.066 4.998,-0.843 5.151,-1.709 4.01,-3.392 1.202,-2.234 0.511,-3.659 -0.214,-1.49 -0.654,-1.326 -1.436,-0.236 -1.909,1.362 -1.547,2.264 -1.025,2.267 -2.162,8.677 -0.147,4.088 0.653,2.75 0.937,1.786 1.762,2.158 1.486,1.072 1.759,0.436 1.189,-0.072 0.468,-0.587 0.955,-0.128 4.137,-4.92 -0.21,0.949 0.366,2.754 0.701,2.744 0.728,1.514 2.817,2.549 1.538,0.283 0.95,-0.422"
     id="path112" />
</g>
<g
   id="g113"
   transform="translate(-326.855,-189.48109)">
  <path
     fill="none"
     stroke="#000000"
     stroke-width="4"
     stroke-linecap="round"
     stroke-linejoin="round"
     d="m 184.676,577.268 1.124,-1.46 0.886,-0.02 0.506,0.488 1.264,-0.025 2.095,0.933 2.919,2.658 1.132,2.965 -0.287,0.593 -0.411,0.018 -0.377,0.482 -1.448,-0.569 -1.16,0.02 -4.041,0.68 -0.561,0.477 -0.133,1.95 0.944,1.182 2.313,1.063 1.796,-0.318 0.909,-0.501 5.121,-0.405 0.83,-0.562"
     id="path113" />
</g>
<g
   id="g114"
   transform="translate(-326.855,-189.48109)">
  <path
     fill="none"
     stroke="#000000"
     stroke-width="4"
     stroke-linecap="round"
     stroke-linejoin="round"
     d="m 203.568,563.266 -0.044,3.935 1.02,7.998 1.768,6.541 2.075,4.362 0.712,2.391 -0.204,0.701 -0.894,-0.259"
     id="path114" />
</g>
<g
   id="g115"
   transform="translate(-326.855,-189.48109)">
  <path
     fill="none"
     stroke="#000000"
     stroke-width="4"
     stroke-linecap="round"
     stroke-linejoin="round"
     d="m 202.803,579.526 0.756,-1.085 0.748,-0.456 9.97,-0.971"
     id="path115" />
</g>
<g
   id="g116"
   transform="translate(-326.855,-189.48109)">
  <path
     fill="none"
     stroke="#000000"
     stroke-width="4"
     stroke-linecap="round"
     stroke-linejoin="round"
     d="m 249.124,578.721 -1.169,-0.923 -0.641,0.445 -1.813,-0.074 -4.045,2.039 -0.863,0.728 -0.203,0.627 0.99,1.647 5.946,4.609 0.597,1.126 -0.273,0.88 -2.628,1.048 -4.19,0.067 -2.118,-0.615 -0.126,-1.063"
     id="path116" />
</g>
<g
   id="g117"
   transform="translate(-326.855,-189.48109)">
  <path
     fill="none"
     stroke="#000000"
     stroke-width="4"
     stroke-linecap="round"
     stroke-linejoin="round"
     d="m 261.082,580.631 0.208,-0.843 -0.327,-0.676 -0.294,0.169 -5.032,4.898 -0.416,1.558 0.546,1.728 2.136,1.217 1.8,0.354 2.408,-0.584 1.43,-0.912 0.441,-1 0.174,0.113 0.22,-1.006 0.038,-3.503 -0.342,-1.101 -0.783,-0.317 -0.682,0.226 -0.446,0.765"
     id="path117" />
</g>
<g
   id="g118"
   transform="translate(-326.855,-189.48109)">
  <path
     fill="none"
     stroke="#000000"
     stroke-width="4"
     stroke-linecap="round"
     stroke-linejoin="round"
     d="m 270.87,582.332 0.35,-1.351 -1.547,3.045 -0.539,0.333 -1.282,3.5 0.658,1.341 1.855,1.127 1.08,-0.019 0.42,-0.307 1.521,0.452 1.086,-1.201 1.998,-1.273 1.231,-1.856 0.273,-2.323 -0.289,-1.476 -1.329,-1.397 -2.389,-1.218 -0.558,-0.709 -0.654,0.058 0.118,-0.788 0.703,0.451 3.156,-0.726 5.123,-0.372 0.825,0.745 1.089,0.379 1.61,2.476 0.002,5.212 -0.676,3.376 0.11,-0.702 0.117,0.655 0.757,-2.155 3.418,-5.615 1.431,-1.6 0.635,-0.248 1.153,0.076 0.044,3.538 0.6,2.538 0.399,0.511 3.052,1.626 4.018,0.469"
     id="path118" />
</g>
<g
   id="g119"
   transform="translate(-326.855,-189.48109)">
  <path
     fill="none"
     stroke="#000000"
     stroke-width="4"
     stroke-linecap="round"
     stroke-linejoin="round"
     d="m 309.195,589.698 -0.481,-0.131 0.332,0.59 2.259,0.621"
     id="path119" />
</g>
<g
   id="g120"
   transform="translate(-326.855,-189.48109)">
  <path
     fill="none"
     stroke="#000000"
     stroke-width="3.75"
     stroke-linecap="round"
     stroke-linejoin="round"
     d="m 92.5964,1142.08 1.1241,0.18 0.4546,-0.21 2.5358,1.73 1.1433,2.3 0.7396,2.82 0.4082,3.17 -0.046,0.76 -0.1525,-1.09 -0.223,0.19 -0.7796,-0.18 -0.5362,-1.22 -0.2874,0.46 -1.0111,0.02 -0.9114,0.4 -1.5664,-0.6 -1.0997,-0.07 -1.01,0.92 -0.0766,1.52 0.5787,1.8 0.8605,0.51 0.5481,-0.19 0.3039,0.33 1.6616,0.26 0.9837,-0.43 1.0521,0.18 2.8653,-0.6 2.45,-1.02"
     id="path120" />
</g>
<g
   id="g121"
   transform="translate(-326.855,-189.48109)">
  <path
     fill="none"
     stroke="#000000"
     stroke-width="3.75"
     stroke-linecap="round"
     stroke-linejoin="round"
     d="m 113.408,1129.77 -0.935,0.11 -0.38,1.16 0.213,13.04 0.643,5.96 1.367,6.28 -0.03,1.08 -0.811,-3.98 -1.379,-4.33 0.037,-1.43 1.864,0.23 2.178,-0.64 5.931,-0.73 1.196,-0.57"
     id="path121" />
</g>
<g
   id="g122"
   transform="translate(-326.855,-189.48109)">
  <path
     fill="none"
     stroke="#000000"
     stroke-width="3.75"
     stroke-linecap="round"
     stroke-linejoin="round"
     d="m -6.55623,1122.41 0.56636,-3.02 h -0.24987 l 0.03181,0.48 1.02164,3.7 0.24038,6.31 -0.23809,6.17 -1.30351,10.39 0.07619,5.47 -0.24245,0.47 0.65971,0.51 0.84889,0.02 2.18549,-0.96 3.246977,-4.68 1.019283,-3.11 1.10845,-1.9 2.08446,-2.67 0.18198,9.39 0.78516,1.33 2.04775,2.32 3.61502,-0.18 5.584,-0.91 1.8392,-0.49 0.9019,-0.72 0.4289,0.14 0.9566,-0.35 2.2253,-1.31 1.1196,-1.63 1.0221,-3.03 -0.3344,-1.86 -0.2545,-0.43 -0.2743,0.17 -0.8868,-1.21 -1.7416,0.71 -1.3832,1.47 -0.5588,1.45 -0.1666,1.7 0.6677,2.32 1.7591,2.45 1.8601,0.9 2.4667,0.24 1.793,-0.19"
     id="path122" />
</g>
<g
   id="g123"
   transform="translate(-326.855,-189.48109)">
  <path
     fill="none"
     stroke="#000000"
     stroke-width="3.75"
     stroke-linecap="round"
     stroke-linejoin="round"
     d="m 35.4219,1124.62 -0.5659,22.89 0.5142,2.97 0.7797,1.36 0.685,0.53"
     id="path123" />
</g>
<g
   id="g124"
   transform="translate(-326.855,-189.48109)">
  <path
     fill="none"
     stroke="#000000"
     stroke-width="3.75"
     stroke-linecap="round"
     stroke-linejoin="round"
     d="m 41.8025,1123.46 0.1215,-1.16 -0.2124,0.38 0.6829,5.89 -0.2314,14.89 -0.3709,3.77 0.1555,2.08 1.7146,3.55 1.974,0.56 0.7829,-0.13"
     id="path124" />
</g>
<g
   id="g125"
   transform="translate(-326.855,-189.48109)">
  <path
     fill="none"
     stroke="#000000"
     stroke-width="3.75"
     stroke-linecap="round"
     stroke-linejoin="round"
     d="m 55.9661,1144.52 -0.2407,-0.56 -1.3039,2 -1.2721,1.16 -0.6973,2.84 -0.043,1.66 0.4288,0.76 0.4603,-0.26 0.4586,0.68 1.5288,0.63 1.4421,-0.12 0.8682,-0.57 1.8113,-0.29 3.5835,-2.14 0.5149,-0.98 -0.3083,-1.57 -0.7504,-0.79 -0.1191,0.35 -0.319,0.02 -0.8128,-1.82 -0.6931,-0.27"
     id="path125" />
</g>
<g
   id="g126"
   transform="translate(-326.855,-189.48109)">
  <path
     fill="none"
     stroke="#000000"
     stroke-width="3.75"
     stroke-linecap="round"
     stroke-linejoin="round"
     d="m -140.241,1136.05 0.535,-1.48 0.82,-0.43 0.242,-0.59 0.445,0.28 -0.366,-0.43 0.11,-0.63 -0.201,-0.11 -0.077,0.28 -0.251,-0.41 -1.203,0.12 -2.845,1.17 -1.49,1.14 -1.218,1.58 -1.567,3.27 -0.049,1.06 0.772,1.52 1.262,0.74 1.673,0.35 2.646,-0.4 2.49,-1.59 1.46,-1.85 0.231,-1.32 0.452,-0.42 -0.207,-1.58 0.262,-1.89 -0.443,-0.74 -0.547,-0.11 -0.902,-0.99 -2.012,1.32 -0.1,0.67"
     id="path126" />
</g>
<g
   id="g127"
   transform="translate(-326.855,-189.48109)">
  <path
     fill="none"
     stroke="#000000"
     stroke-width="3.75"
     stroke-linecap="round"
     stroke-linejoin="round"
     d="m -131.723,1134.41 -0.319,0.25 0.265,1.28 3.208,5.91 0.506,2.98 -0.226,0.39 -0.258,-0.08 0.14,-0.52 -0.066,0.38 -0.318,-1.51 -0.526,-0.78 -0.034,-2.29 0.333,-1.17 -0.199,-0.86 1.75,-3.12 3.443,-2.85 6.626,-0.61"
     id="path127" />
</g>
<g
   id="g128"
   transform="translate(-326.855,-189.48109)">
  <path
     fill="none"
     stroke="#000000"
     stroke-width="3.75"
     stroke-linecap="round"
     stroke-linejoin="round"
     d="m -79.1737,1131.7 -0.4934,-1.7 0.0616,0.27 -0.6325,0.44 -1.4239,-0.04 -0.8827,0.8 -1.3993,0.17 -2.4687,1.33 -0.291,0.4 0.2768,0.23 -0.4517,0.7 0.4502,-0.16 0.9947,1.25 1.0209,0.44 0.6485,-0.15 1.903,1.4 1.4644,0.62 1.1594,1.17 0.8011,1.38 -0.0968,1.34 -1.5827,1.46 -1.0069,1.78 -4.2305,1.89 -3.912,1.16 -2.8362,-0.29 -0.5457,-0.45 -0.1045,-0.77"
     id="path128" />
</g>
<g
   id="g129"
   transform="translate(-326.855,-189.48109)">
  <path
     fill="none"
     stroke="#000000"
     stroke-width="3.75"
     stroke-linecap="round"
     stroke-linejoin="round"
     d="m -68.8557,1133.67 0.1818,-0.19 1.3847,0.66 0.4955,-0.11 2.8598,0.76 1.1118,0.55 0.5909,0.67 1.3136,0.35 0.9208,2.51 0.4676,0.47 -0.8825,4.09 -0.2634,-0.17 -0.042,0.28 -1.0127,0.22 -0.2918,0.34 -3.4444,-1.6 -2.3856,-0.17 -1.9958,2.48 0.8647,1.37 4.0119,0.19 2.5013,-0.33 2.8318,-0.88 2.6419,-1.5"
     id="path129" />
</g>
<g
   id="g130"
   transform="translate(-326.855,-189.48109)">
  <path
     fill="none"
     stroke="#000000"
     stroke-width="3.75"
     stroke-linecap="round"
     stroke-linejoin="round"
     d="m -49.1819,1137.13 -0.111,-1.05 0.3033,1.32 -0.688,2.78 -0.0533,1.99 0.8435,1.28 1.0821,0.73 1.7615,0.37 0.8073,-0.58 1.4886,0.15 3.3983,-0.91 2.5008,-2.62 0.6251,-1.12 0.0661,-1.35 0.431,-1.05 -0.1735,-0.14 -0.0962,0.48 -0.1048,-0.32 -0.539,2.64 -0.9568,1.82 -0.0238,6.04 0.785,6.32 -0.3807,5.38 0.187,1.22 -0.7608,9.69 -1.7835,1.33 -2.218,0.31 -1.1496,-0.4 -0.5378,-0.96 -1.4492,-0.85 -1.2955,-3.84 0.189,-1.44 0.9746,-2.79 2.7234,-3.84 2.647,-2.61 1.1172,-0.68 1.5885,-2.06"
     id="path130" />
</g>
<g
   id="g131"
   transform="translate(-326.855,-189.48109)">
  <path
     fill="none"
     stroke="#000000"
     stroke-width="3.75"
     stroke-linecap="round"
     stroke-linejoin="round"
     d="m -138.328,1182.49 0.168,1.65 -0.333,6.26 -1.865,18.43 0.139,3.41 0.667,1.31 0.159,0.23 2.355,-2.21 1.52,-2.53 3.677,-4.69 1.849,-1.81 1.898,-1.03 0.473,1.21 0.274,2.75 0.817,3.6 0.912,2.1 3.024,1.74 0.561,0.02 2.73,1.46 0.47,-0.17 0.422,0.23"
     id="path131" />
</g>
<g
   id="g132"
   transform="translate(-326.855,-189.48109)">
  <path
     fill="none"
     stroke="#000000"
     stroke-width="3.75"
     stroke-linecap="round"
     stroke-linejoin="round"
     d="m -110.312,1207.12 1.067,-1.47 -0.38,0.52 0.151,0.15 0.045,-0.23 0.259,1.68 0.087,3.25 0.556,3.55 0.53,0.84 0.253,-0.06"
     id="path132" />
</g>
<g
   id="g133"
   transform="translate(-326.855,-189.48109)">
  <path
     fill="none"
     stroke="#000000"
     stroke-width="3.75"
     stroke-linecap="round"
     stroke-linejoin="round"
     d="m -110.048,1195.67 -0.205,0.07 0.328,0.96 0.402,-0.38"
     id="path133" />
</g>
<g
   id="g134"
   transform="translate(-326.855,-189.48109)">
  <path
     fill="none"
     stroke="#000000"
     stroke-width="3.75"
     stroke-linecap="round"
     stroke-linejoin="round"
     d="m -79.1402,1200.47 0.0858,1.31 -0.1349,-0.68 -0.5025,0.41 -0.7135,0.09 -1.2329,0.9 -0.5132,0.8 -0.8212,0.59 -0.3303,-0.1 -1.8111,3.04 -0.2629,1.17 0.2027,1.1 0.5578,-0.25 0.552,0.36 0.7362,-0.76 0.8758,-0.38 0.399,-0.65 0.932,-0.24 0.8458,-1.43 1.4351,-1.27 1.4861,-2.15 0.1504,0.14 0.1234,-0.82 0.1555,0.18 -0.5775,0.58 -0.8674,1.97 -0.2808,1.51 0.2704,1.84 0.5699,1.24 0.2811,-0.25 0.7927,1.5 1.3988,0.31 0.9222,-0.12 1.8895,0.2 0.3297,0.26 1.1273,-0.87 0.6283,0.06 1.4119,-1.38 0.282,-0.79 0.5642,-0.33 1.0839,-4.15 -0.5947,-4.77 -1.0704,-2.21 -0.4069,-0.5 -0.1657,0.34 -0.1262,-0.58 -1.0327,-0.9 -3.2693,-1.67 -0.5938,-0.11 -0.3189,0.26 -0.6572,-0.82 -1.4797,0.55 -0.9657,-0.42 -0.3599,0.2 -2.8731,-0.51 -3.3178,0.91 -0.8132,0.86 -0.7429,-0.05 -4.3534,4.39 -0.7349,1.77 -1.9886,2.18 -1.4227,3.5 -0.255,2.76 0.2993,1.86 0.7284,1.01 0.3459,-0.05 0.3037,0.96 0.6969,0.7 1.3845,0.67 0.251,1.1 0.8361,-0.06 1.5089,1.39 1.9631,0.64 0.2532,0.34 1.0508,-0.11 0.4308,-0.58 1.2752,0.79 2.2137,-0.43 5.0159,-1.26 2.5511,-0.99"
     id="path134" />
</g>
<g
   id="g135"
   transform="translate(-326.855,-189.48109)">
  <path
     fill="none"
     stroke="#000000"
     stroke-width="3.75"
     stroke-linecap="round"
     stroke-linejoin="round"
     d="m 83.9212,1213.11 -0.264,-0.75 0.6948,1.24 0.5419,-0.64"
     id="path135" />
</g>
<g
   id="g136"
   transform="translate(-326.855,-189.48109)">
  <path
     fill="none"
     stroke="#000000"
     stroke-width="3.75"
     stroke-linecap="round"
     stroke-linejoin="round"
     d="m 101.298,1200.12 0.249,0.33 -0.894,12.21 0.742,4.04 0.833,1.09 0.584,0.03"
     id="path136" />
</g>
<g
   id="g137"
   transform="translate(-326.855,-189.48109)">
  <path
     fill="none"
     stroke="#000000"
     stroke-width="3.75"
     stroke-linecap="round"
     stroke-linejoin="round"
     d="m 115.646,1205.49 -0.376,-1.66 0.1,0.24 0.196,-0.71 -0.029,0.76 -1.176,0.44 -3.298,3.88 -0.759,1.62 -0.33,2.08 0.748,2.1 1.53,1.21 1.09,0.28 2.897,-0.35 2.914,-1.12 1.988,-2.89 0.349,-1.57 -0.139,-2.07 -1.256,-2.54 -1.746,-0.95 -3.472,-0.02"
     id="path137" />
</g>
<g
   id="g138"
   transform="translate(-326.855,-189.48109)">
  <path
     fill="none"
     stroke="#000000"
     stroke-width="3.75"
     stroke-linecap="round"
     stroke-linejoin="round"
     d="m 100.318,1190.34 -0.4151,0.31 0.2621,-0.22 0.197,0.37 -0.064,-0.3 -0.039,0.44 0.209,-0.65"
     id="path138" />
</g>
<g
   id="g139"
   transform="translate(-326.855,-189.48109)">
  <path
     fill="none"
     stroke="#000000"
     stroke-width="3.75"
     stroke-linecap="round"
     stroke-linejoin="round"
     d="m -42.5221,1196.21 -0.591,1.38 -0.6173,0.49 -1.0205,0.23 -3.1718,2.43 -2.9292,2.9 -0.6168,1.16 0.1339,0.25 3.0173,-0.1 0.7639,0.22 2.8591,-0.35 2.2046,0.95 2.93,0.76 1.5194,1.04 1.0879,1.91 -0.0851,1.32 -1.2528,1.76 -1.6303,1.22 -3.1046,1.49 h -0.8044 l -2.6855,1.18 -2.1466,0.07 -0.7857,-0.54 -1.8868,-0.13 -1.1278,-0.53 -2.0674,-1.75 -0.3142,-1.29"
     id="path139" />
</g>
<g
   id="g140"
   transform="translate(-326.855,-189.48109)">
  <path
     fill="none"
     stroke="#000000"
     stroke-width="3.75"
     stroke-linecap="round"
     stroke-linejoin="round"
     d="m -30.0587,1203.77 0.246,-0.76 0.8367,-0.32 1.2641,-1.08 3.5814,-0.78 1.4505,-1.05 1.1861,0.16 0.3854,0.67 0.3075,-0.16 0.3699,0.3 0.6862,2.79 0.1427,2.25 -0.1919,1.22 -1.4555,3.71 -0.3477,-0.69 -3.1662,-1.32 -2.5669,0.47 -2.4703,2.12 -1.0451,1.78 -0.1023,1.05 0.6441,0.89 3.2012,0.35 6.1493,-2.26 2.3481,-1.41"
     id="path140" />
</g>
<g
   id="g141"
   transform="translate(-326.855,-189.48109)">
  <path
     fill="none"
     stroke="#000000"
     stroke-width="3.75"
     stroke-linecap="round"
     stroke-linejoin="round"
     d="m -7.51175,1206.83 1.67388,1.6 1.36027,0.62 0.97326,-0.38 0.91214,-0.89 0.37342,0.07 1.01518,-0.92 0.991386,-1.89 -0.743555,-2.88 -0.869711,-0.78 -1.10372,-0.22 -0.53243,0.12 -0.25055,0.49 -1.05942,-0.21 -3.37738,3.82 -1.05642,2.91 -0.30391,1.9 0.3873,2.7 0.39534,0.74 1.5386,1.47 1.46502,0.21 0.75432,-0.29 3.03194,0.39 1.9473139,-0.44 1.0079261,-0.84 0.95077,-0.12 1.34838,-0.77"
     id="path141" />
</g>
<g
   id="g142"
   transform="translate(-326.855,-189.48109)">
  <path
     fill="none"
     stroke="#000000"
     stroke-width="3.75"
     stroke-linecap="round"
     stroke-linejoin="round"
     d="m 17.3495,1203.27 -0.7803,0.17 -1.5392,-0.28 -0.1871,-0.5 -0.5514,1.11 -5.31102,4.52 -1.67654,3.35 -0.09103,1.53 1.36566,1.71 4.86053,0.15 3.6383,-1.02 3.3283,-1.72"
     id="path142" />
</g>
<g
   id="g143"
   transform="translate(-326.855,-189.48109)">
  <path
     fill="none"
     stroke="#000000"
     stroke-width="3.75"
     stroke-linecap="round"
     stroke-linejoin="round"
     d="m 27.2406,1203.35 -0.1097,-0.59 0.0429,1 -0.9894,4.85 -0.0827,3.19 0.3678,1.95 1.7453,1.43 3.0223,0.5 0.4475,-0.53 0.1992,0.18 1.2374,-0.28 1.8301,-1.23 3.1056,-4.52 0.402,-4 -0.6344,-1.49 -1.7298,-1.69"
     id="path143" />
</g>
<g
   id="g144"
   transform="translate(-326.855,-189.48109)">
  <path
     fill="none"
     stroke="#000000"
     stroke-width="3.75"
     stroke-linecap="round"
     stroke-linejoin="round"
     d="m 52.6953,1181.97 -0.5181,-0.42 0.2167,1.15 -0.2382,5.84 -2.1753,23.57 0.5448,2.05 1.3796,1.04 0.3786,-0.09"
     id="path144" />
</g>
<g
   id="g145"
   transform="translate(-326.855,-189.48109)">
  <path
     fill="none"
     stroke="#000000"
     stroke-width="3.75"
     stroke-linecap="round"
     stroke-linejoin="round"
     d="m 57.2203,1203.6 0.4814,-1.22 1.5298,-0.03 3.3431,-1.39 2.0132,0.45 1.6003,1.66 0.6418,1.29 0.9606,2.71 0.0861,1.73 1.0921,2.41 -0.1018,0.73 -1.4649,-0.84 -2.0868,-0.59 -0.3959,-0.56 -1.405,0.32 -2.7482,2.59 -0.5788,1.72 -0.3633,0.32 0.1932,0.4 1.5191,0.51 2.2557,0.21 1.652,-0.19 0.894,-0.49 2.9281,0.15 1.3794,-0.44 0.7018,-0.72 1.6556,-0.13 0.9684,-0.92"
     id="path145" />
</g>
<g
   id="g146"
   transform="translate(-326.855,-189.48109)">
  <path
     fill="none"
     stroke="#000000"
     stroke-width="3.75"
     stroke-linecap="round"
     stroke-linejoin="round"
     d="m -247.385,926.095 -0.124,-0.592 -0.391,-0.034 0.314,-0.257 -0.376,0.225 -0.161,0.71 -1.661,13.047 0.268,7.5 0.393,1.232 -0.048,0.887 0.512,0.705 -0.368,-0.282 0.222,-0.463 -0.708,-1.56 -0.216,-2.133 -0.6,-8.227 -0.018,-5.048 1.207,-7.81 1.56,-3.587 0.859,-0.923 0.543,-0.169 0.743,-1.645 2.037,-1.135 1.358,-0.293 10.056,-1.313 10.017,-0.128 1.518,0.209 0.897,0.485"
     id="path146" />
</g>
<g
   id="g147"
   transform="translate(-326.855,-189.48109)">
  <path
     fill="none"
     stroke="#000000"
     stroke-width="3.75"
     stroke-linecap="round"
     stroke-linejoin="round"
     d="m -248.547,934.41 1.789,-0.89 2.57,0.151 5.977,-0.707 2.946,-0.625 1.498,-0.674 5.17,-0.767"
     id="path147" />
</g>
<g
   id="g148"
   transform="translate(-326.855,-189.48109)">
  <path
     fill="none"
     stroke="#000000"
     stroke-width="3.75"
     stroke-linecap="round"
     stroke-linejoin="round"
     d="m -219.376,940.098 -1.202,-0.849 -0.083,-0.509 -0.561,0.176 -0.434,-0.357 -2.805,1.302 -1.131,0.956 -1.202,1.922 -0.719,2.255 -0.004,1.64 0.441,0.055 0.71,1.106 1.414,0.046 2.009,-0.59 2.417,-1.343 1.584,-1.386 1.786,-4.985 0.988,-0.995 0.307,0.598 0.288,0.164 0.324,-0.215 0.676,1.282 0.885,8.183 0.221,-0.773 -0.238,-0.021 1.849,-7.462 0.631,-1.272 1.216,-1.445 0.358,0.382 0.544,-0.65 1.512,-0.828 1.661,-0.391 1.015,0.187 3.194,-1.119 2.44,-0.411"
     id="path148" />
</g>
<g
   id="g149"
   transform="translate(-326.855,-189.48109)">
  <path
     fill="none"
     stroke="#000000"
     stroke-width="3.75"
     stroke-linecap="round"
     stroke-linejoin="round"
     d="m -173.887,938.469 -0.112,0.242 -0.288,-1.097 0.681,4.349 -0.261,6.085 0.525,4.06 1.223,-0.659 0.226,0.415 3.836,-3.924 0.926,-1.556 0.979,-3.112 1.236,-1.896 0.417,-0.112 0.733,-1.013 0.069,3.52 0.972,2.837 1.441,2.813 3.273,2.213 3.023,-0.111 1.751,-0.377"
     id="path149" />
</g>
<g
   id="g150"
   transform="translate(-326.855,-189.48109)">
  <path
     fill="none"
     stroke="#000000"
     stroke-width="3.75"
     stroke-linecap="round"
     stroke-linejoin="round"
     d="m -145.172,941.515 -0.651,0.375 -0.676,-1.036 -1.44,1.371 -0.557,0.126 -0.679,0.915 -1.472,2.372 -0.971,2.318 0.011,1.28 0.651,0.431 0.148,0.506 1.258,-0.305 1.493,0.141 0.885,-0.439 4.656,-3.804 0.83,-1.403 0.765,-2.349 0.183,-1.631 -1.109,3.904 0.044,3.038 0.193,1.503 0.45,0.927 1.235,0.711 0.759,-0.27 0.174,0.196 0.802,-0.494 0.465,-0.741 1.155,-0.124 0.647,-0.918 0.35,-1.194 0.656,-0.413 0.707,-1.051 -0.223,0.149 0.885,1.498 2.931,4.156 0.479,0.122 0.856,0.914 0.378,-0.386 1.245,0.632 0.567,-0.092 1.377,-1.105 1.572,-1.935 1.315,-4.515 0.059,-1.056 0.178,-0.246 0.057,0.235"
     id="path150" />
</g>
<g
   id="g151"
   transform="translate(-326.855,-189.48109)">
  <path
     fill="none"
     stroke="#000000"
     stroke-width="3.75"
     stroke-linecap="round"
     stroke-linejoin="round"
     d="m -90.4028,941.755 -0.4637,-0.864 -0.3972,0.613 -0.9136,0.47 -0.7811,1.681 -0.6511,2.752 -0.0141,1.211 0.2948,1.03 1.3312,1.558 1.3133,0.485 1.4835,0.083 2.1873,-0.367 2.7468,-1.071 1.1485,-1.007 1.4276,-1.933 0.6885,-2.08 0.2325,0.067 0.0072,-1.837 0.282,-0.86 -0.1761,0.653 0.4065,8.714 1.3023,7.134 0.8748,9.163 -0.6557,4.125 -1.8142,4.197 -0.6547,0.493 -0.915,-0.047 -0.7282,-0.311 -0.7823,-2.019 -0.0946,-1.322 0.3583,-2.171 1.9954,-6.731 3.6498,-9.053 2.2573,-3.703 1.6878,-2.099 2.8849,-2.219 1.4591,-2.117 0.7576,-0.674 0.1095,0.167 -0.1299,-0.638 -0.4208,0.441 -0.0786,-0.436 -1.9171,3.567 -0.5494,1.899 0.454,2.312 2.1115,1.448 1.3129,-0.194 0.6492,-0.531 2.3079,-0.421 1.5203,-2.136 0.2818,-1.898 -0.0639,-1.338 -0.5135,-1.306 -0.3703,-0.263 -0.0709,0.213 -0.4359,-0.568"
     id="path151" />
</g>
<g
   id="g152"
   transform="translate(-326.855,-189.48109)">
  <path
     fill="none"
     stroke="#000000"
     stroke-width="3.75"
     stroke-linecap="round"
     stroke-linejoin="round"
     d="m -55.4888,940.93 -0.8777,0.818 -0.4764,1.905 0.4297,3.515 0.3297,1.043 1.4111,1.867 1.2243,0.3 2.7375,-0.221 0.6838,-0.43 2.3037,-0.068 1.4742,-1.098 1.4452,-3.802 0.0612,-2.058 -0.2537,-0.521"
     id="path152" />
</g>
<g
   id="g153"
   transform="translate(-326.855,-189.48109)">
  <path
     fill="none"
     stroke="#000000"
     stroke-width="3.75"
     stroke-linecap="round"
     stroke-linejoin="round"
     d="m -9.86328,936.493 -2.32452,0.861 -1.5787,2.374 -0.805,0.663 -0.8138,1.576 -1.1234,3.477 -0.3307,2.227 0.0186,2.723 0.8813,2.444 1.9174,1.913 1.9383,0.387 1.0598,-0.425 1.16593,0.206 2.99654,-0.671"
     id="path153" />
</g>
<g
   id="g154"
   transform="translate(-326.855,-189.48109)">
  <path
     fill="none"
     stroke="#000000"
     stroke-width="3.75"
     stroke-linecap="round"
     stroke-linejoin="round"
     d="m 3.10395,942.295 0.09143,-1.118 0.51504,0.896 0.3145,-0.297 1.30001,-0.077 1.10972,0.685 0.67682,1.886 0.93174,4.619 -0.22812,-0.784 -0.18665,0.306 -1.91378,0.003 -4.978462,1.335 -1.07211,0.926 -0.41279,0.975 0.8047905,2.229 0.1462635,-0.266 3.788978,-0.174 2.0831,-0.572 2.87214,-1.046 1.71313,-0.978 2.6411,-1.83 1.8897,-2.023 1.4235,-1.027 0.7891,-1.588 0.2672,-0.031 0.0089,-0.861 -1.0544,2 -0.6259,3.091 0.2263,2.001 1.1792,2.081 1.1915,-0.16 0.7496,0.521 0.454,-0.259 2.9819,-2.614 3.9137,-4.318 -0.2499,0.69 0.1519,1.112 0.5375,1.047 0.4952,2.155 2.9127,3.09 3.4571,1.217 4.6634,-0.17 2.2548,-0.582"
     id="path154" />
</g>
<g
   id="g155"
   transform="translate(-326.855,-189.48109)">
  <path
     fill="none"
     stroke="#000000"
     stroke-width="3.75"
     stroke-linecap="round"
     stroke-linejoin="round"
     d="m 82.8155,928.543 0.0831,-1.333 1.1536,-3.307 -0.4754,-2.388 -0.8326,-1.775 -1.1687,-0.582 -2.1009,-0.151 -1.4076,1.091 -0.556,1.11 -0.9042,0.713 -2.0412,2.876 -1.0685,1.985 -1.9542,6.687 -1.6797,10.234 0.006,4.324 1.4547,4.249 -0.011,0.826 -0.5799,0.681"
     id="path155" />
</g>
<g
   id="g156"
   transform="translate(-326.855,-189.48109)">
  <path
     fill="none"
     stroke="#000000"
     stroke-width="3.75"
     stroke-linecap="round"
     stroke-linejoin="round"
     d="m 63.8682,944.221 -0.0878,-0.971 0.3901,-0.41 9.3715,-0.755 6.5615,-1.767 3.616,-0.22 0.6588,1.039 0.7009,0.135 0.1829,0.495 0.0688,2.056 -0.4358,4.304 0.2074,2.8 1.2545,2.265"
     id="path156" />
</g>
<g
   id="g157"
   transform="translate(-326.855,-189.48109)">
  <path
     fill="none"
     stroke="#000000"
     stroke-width="3.75"
     stroke-linecap="round"
     stroke-linejoin="round"
     d="m 95.327,942.24 -0.3311,-0.438 -0.0501,0.445 0.4874,4.312 0.4135,1.659 0.5964,0.954 0.5733,-0.307 0.6788,0.225 1.1917,-0.739 3.0531,-2.637 1.216,-1.313 0.796,-1.911 0.034,0.97 0.243,-0.372 0.244,1.652 1.605,3.267 2.037,1.626 1.76,0.326"
     id="path157" />
</g>
<g
   id="g158"
   transform="translate(-326.855,-189.48109)">
  <path
     fill="none"
     stroke="#000000"
     stroke-width="3.75"
     stroke-linecap="round"
     stroke-linejoin="round"
     d="m 124.34,945.573 -1.368,-1.372 -1.814,-0.217 -0.992,0.525 -1.488,0.252 -0.93,0.507 -0.51,0.697 -1.502,-0.075 -1.677,1.917 -0.78,2.093 0.043,1.107 0.576,0.976 3.026,1.289 6.174,-1.08 1.299,0.13 1.386,-0.605"
     id="path158" />
</g>
<g
   id="g159"
   transform="translate(-326.855,-189.48109)">
  <path
     fill="none"
     stroke="#000000"
     stroke-width="3.75"
     stroke-linecap="round"
     stroke-linejoin="round"
     d="m 126.737,924.521 -0.775,-1.181 -0.404,0.043 0.595,1.611 0.179,2.604 -0.979,16.057 0.716,5.142 0.669,1.25 0.375,0.084 1.117,1.375"
     id="path159" />
</g>
<g
   id="g160"
   transform="translate(-326.855,-189.48109)">
  <path
     fill="none"
     stroke="#000000"
     stroke-width="3.75"
     stroke-linecap="round"
     stroke-linejoin="round"
     d="m 155.597,937.446 0.301,-0.78 0.236,2.419 -0.497,6.566 0.318,1.515 0.639,0.871 0.282,-0.58 0.453,0.158 2.23,-2.336 2.808,-4.236 3.058,-3.214 0.298,2.502 0.04,5.243 0.203,-0.044 0.232,1.007 0.639,0.884 0.885,0.071 3.342,-2.172 0.758,-0.05 3.095,-4.383 0.662,-0.663 0.232,0.127 0.401,-0.317 0.209,-0.621 0.075,0.451 0.851,0.589 0.357,0.664 1.039,3.615 0.682,0.958 0.474,-0.005 1.296,0.901 0.98,0.007 0.592,-0.501 2.133,0.238 3.532,-1.752 2.568,-2.714 0.597,-1.897 -0.469,-2.2 -0.411,0.69 -0.411,-0.669 -0.748,0.473 -1.511,1.514 -1.609,2.975 -0.298,3.029 0.41,1.688 0.651,0.6 0.334,0.23 0.77,-0.136 0.424,0.476 1.144,0.406 3.304,0.383 4.02,-0.354 2.279,-0.705 3.649,-0.541"
     id="path160" />
</g>
<g
   id="g161"
   transform="translate(-326.855,-189.48109)">
  <path
     fill="none"
     stroke="#000000"
     stroke-width="3.75"
     stroke-linecap="round"
     stroke-linejoin="round"
     d="m 232.072,936.369 0.857,-1.321 2.145,-1.121 2.012,-0.491 1.547,0.813 0.401,0.662 0.851,4.084 -0.06,2.507 -0.613,3.398 -0.333,-0.213 -1.776,0.329 -1.444,-0.305 -0.488,0.277 -1.596,-1.295 -2.188,0.373 -0.091,-0.181 0.472,2.852 0.479,0.521 0.726,-0.086 0.256,0.339 1.942,0.766 1.877,0.057 4.029,-0.554 3.158,-1.037"
     id="path161" />
</g>
<g
   id="g162"
   transform="translate(-326.855,-189.48109)">
  <path
     fill="none"
     stroke="#000000"
     stroke-width="3.75"
     stroke-linecap="round"
     stroke-linejoin="round"
     d="m 255.398,919.547 0.77,-0.209 -0.674,6.653 -0.164,10.34 0.299,4.474 0.865,2.932 1.167,2.031"
     id="path162" />
</g>
<g
   id="g163"
   transform="translate(-326.855,-189.48109)">
  <path
     fill="none"
     stroke="#000000"
     stroke-width="3.75"
     stroke-linecap="round"
     stroke-linejoin="round"
     d="m 253.34,936.647 -0.266,-0.701 3.675,0.919 5.576,-1.096 0.622,0.16 4.024,-1.053"
     id="path163" />
</g>
<g
   id="g164"
   transform="translate(-326.855,-189.48109)">
  <path
     fill="none"
     stroke="#000000"
     stroke-width="3.75"
     stroke-linecap="round"
     stroke-linejoin="round"
     d="m -146.259,1007.11 0.827,0.05 0.712,-0.74 -0.252,-0.38 -0.146,0.23 -0.404,-1.17 -1.525,-1.04 -0.772,0.22 -2.146,-0.43 -1.367,0.7 -0.843,0.93 -3.574,1.35 -1.775,1.38 -0.948,0.94 -0.605,1.12 -0.534,2.14 -0.116,1.4 0.416,0.95 2.335,1.1 5.011,-1.89 0.887,0.02 1.9,-1.59 1.019,-1.26 0.451,-1.76 0.538,-0.58 0.148,-1.64 0.535,-0.53 -0.411,3.3 0.025,14.6 -0.631,10.41 -0.707,2.56 -1.898,2.54 -0.877,0.41 -0.448,-0.28 -1.123,0.48 -0.562,-0.77 -0.431,-0.03 -0.766,-2.13 -0.001,-1.16 1.013,-4.32 0.576,-0.78 1.812,-4.33 0.442,-0.78 2.227,-2.2 2.32,-4.01 1.398,-1.16 2.771,-3.25 0.905,-0.52 2.68,-3.78 2.517,-2.85 2.205,-3.37 -0.023,0.45 -0.151,-0.6 0.927,2.3 0.42,8.33 0.537,1.23 0.307,0.09 0.319,-0.5 0.237,0.1"
     id="path164" />
</g>
<g
   id="g165"
   transform="translate(-326.855,-189.48109)">
  <path
     fill="none"
     stroke="#000000"
     stroke-width="3.75"
     stroke-linecap="round"
     stroke-linejoin="round"
     d="m -117.145,985.546 -0.389,0.097 -0.315,-0.381 -0.557,12.978 0.185,7.1 0.64,5.56 0.629,1.04 0.003,1.02 -0.277,-0.74"
     id="path165" />
</g>
<g
   id="g166"
   transform="translate(-326.855,-189.48109)">
  <path
     fill="none"
     stroke="#000000"
     stroke-width="3.75"
     stroke-linecap="round"
     stroke-linejoin="round"
     d="m -122.283,1002.28 -0.213,-0.44 0.2,0.26 0.28,-0.24 0.166,-0.63 0.184,0.52 0.721,0.49 2.455,0.28 4.226,-1.11 0.826,0.12 1.653,-0.97"
     id="path166" />
</g>
<g
   id="g167"
   transform="translate(-326.855,-189.48109)">
  <path
     fill="none"
     stroke="#000000"
     stroke-width="3.75"
     stroke-linecap="round"
     stroke-linejoin="round"
     d="m -102.233,985.212 -0.521,-0.869 0.268,0.976 -0.019,4.643 -0.971,13.438 0.377,6.28 0.545,2.28 0.198,0.21 0.175,-0.42 0.213,1.14 0.058,-1.15 1.479,-3.79 1.1958,-2.11 1.192,-1.17 0.2701,-0.64 1.295,0.28 0.1697,-0.39 -0.0366,0.92 0.7433,0.48 0.8727,5.35 0.5264,1.54 0.7894,0.67 1.974,0.34 2.6026,1.07 3.9651,-1.85"
     id="path167" />
</g>
<g
   id="g168"
   transform="translate(-326.855,-189.48109)">
  <path
     fill="none"
     stroke="#000000"
     stroke-width="3.75"
     stroke-linecap="round"
     stroke-linejoin="round"
     d="m -83.5413,1005.54 -0.1054,-0.52 -0.0642,0.26 -0.1437,4.32 0.4918,3.02 0.2201,-0.06 0.4954,0.99 1.4162,0.76 1.5037,0.06 1.1985,-0.55 0.4796,-0.59 1.5014,-0.28 0.5556,-1.01 0.4059,-1.49 0.5959,-0.9 0.2104,0.1 0.2027,-0.86 0.303,-2.85 -0.2022,-1.09"
     id="path168" />
</g>
<g
   id="g169"
   transform="translate(-326.855,-189.48109)">
  <path
     fill="none"
     stroke="#000000"
     stroke-width="3.75"
     stroke-linecap="round"
     stroke-linejoin="round"
     d="m -69.187,988.91 -0.8354,-0.267 -0.0736,-0.603 1.3836,3.617 0.3995,4.248 -0.5233,12.875 0.3998,2.07 0.2928,-0.08 0.6617,2.01 0.2569,0.28 0.8921,0.05 0.7904,-0.82 3.3548,-6.86 2.5695,-1.06 0.4098,0.21 0.8497,-0.31 0.3937,0.07 0.2944,0.9 0.3345,3.11 -0.1348,2.51 -0.231,-0.09 -0.7249,1.56 -0.6583,0.2 -0.501,-0.29 -2.0363,1.76 -1.8298,0.25 -0.632,-0.39 0.406,-1.21"
     id="path169" />
</g>
<g
   id="g170"
   transform="translate(-326.855,-189.48109)">
  <path
     fill="none"
     stroke="#000000"
     stroke-width="3.75"
     stroke-linecap="round"
     stroke-linejoin="round"
     d="m -45.6659,1011.28 -0.0039,1.69 -0.0213,-0.32 0.0695,0.4 0.3058,-0.44"
     id="path170" />
</g>
<g
   id="g171"
   transform="translate(-326.855,-189.48109)">
  <path
     fill="none"
     stroke="#000000"
     stroke-width="3.75"
     stroke-linecap="round"
     stroke-linejoin="round"
     d="m -24.493,1001.15 -0.3227,-0.42 -0.2139,0.76 -1.7019,1.05 -0.25,0.71 -0.3186,0.25 -0.1632,-0.18 -1.0758,1.03 -1.3375,1.86 -0.9086,2.62 0.1397,3.71 1.2528,2.12 0.8785,0.81 1.9308,0.92 3.6044,0.52 4.7986,-0.35"
     id="path171" />
</g>
<g
   id="g172"
   transform="translate(-326.855,-189.48109)">
  <path
     fill="none"
     stroke="#000000"
     stroke-width="3.75"
     stroke-linecap="round"
     stroke-linejoin="round"
     d="m -7.15517,1009.8 -1.75406,-0.88 -0.33014,0.2 -0.40504,-1.18 -0.09445,0.31 -0.58424,-0.94 -0.9384,0.26 -0.4368,-0.32 -1.0515,0.82 -0.9125,-0.05 -1.1996,1.56 -1.0469,2.5 0.0669,1.3 1.0199,1.16 1.2498,-0.28 0.6045,-0.7 0.2585,0.29 1.8052,-0.04 2.0118,-0.72 0.57736,-0.92 0.97201,-0.19 1.51052,-1.31 1.55807,-4.13 -0.10508,0.76 1.82292,7.19 1.22238,1.67 0.669642,0.01 0.307646,-0.52 1.130882,-0.37 1.00066,-1.08 0.42716,-1.03 2.39614,-2.69 0.62226,-1.75 1.28285,-1.49 1.75181,8.79 0.96005,-0.26 0.68702,-0.67 1.2661,-0.48 1.1545,-1.43 0.5335,-1.18 0.2307,0.14 1.8577,-1.42 0.8983,-1.25 0.2738,0.16 0.284,3.03 1.1194,3.17 0.4371,-0.03 0.4191,0.94 1.6562,1.7 5.5053,-0.54"
     id="path172" />
</g>
<g
   id="g173"
   transform="translate(-326.855,-189.48109)">
  <path
     fill="none"
     stroke="#000000"
     stroke-width="3.75"
     stroke-linecap="round"
     stroke-linejoin="round"
     d="m 48.1105,986.127 0.5191,1.781 -1.2949,5.859 -4.9529,16.193 -5.0818,12.98 -1.0626,3.63 -0.6516,3.39 0.3557,1.69 0.8416,0.99"
     id="path173" />
</g>
<g
   id="g174"
   transform="translate(-326.855,-189.48109)">
  <path
     fill="none"
     stroke="#000000"
     stroke-width="3.75"
     stroke-linecap="round"
     stroke-linejoin="round"
     d="m 73.5611,1003.99 -0.2251,-0.07 0.0241,0.3 -0.1696,-0.35 -0.5967,0.06 -2.443,0.9 -0.6627,-0.28 -1.665,1.17 -0.6641,0.95 -0.3484,-0.1 -3.0974,1.46 -2.3253,1.63 -0.2975,0.51 -0.026,0.38 0.3353,-0.37 0.8426,0.31 0.6814,0.67 1.0592,0.21 0.64,-0.19 3.6757,1.91 1.4549,1.66 -0.0443,1.05 -0.4562,0.61 -3.1285,1.99 -2.8708,0.94 -1.346,-0.09 -1.3718,-0.55 -0.4054,0.22 -0.8677,-1.11 -0.2404,-1.03"
     id="path174" />
</g>
<g
   id="g175"
   transform="translate(-326.855,-189.48109)">
  <path
     fill="none"
     stroke="#000000"
     stroke-width="3.75"
     stroke-linecap="round"
     stroke-linejoin="round"
     d="m 81.2175,1007.54 1.7858,-2.03 1.5444,0.34 1.4423,-0.57 3.0595,-0.02 1.0105,1.18 0.567,5.2 -1.228,5.7 -0.1319,-0.62 -1.093,-0.3 -0.5688,0.16 -1.4096,-0.78 -0.556,0.1 -1.6962,-1.29 -0.9763,0.42 -0.4536,0.59 -1.0421,0.1 -0.5007,-0.45 -1.2138,2.16 0.3892,1.83 0.6039,0.71 0.659,0.49 2.9274,0.63 2.0563,-0.42 1.5757,-0.83 3.3709,-0.57"
     id="path175" />
</g>
<g
   id="g176"
   transform="translate(-326.855,-189.48109)">
  <path
     fill="none"
     stroke="#000000"
     stroke-width="3.75"
     stroke-linecap="round"
     stroke-linejoin="round"
     d="m 100.545,1010.39 2.431,0.77 1.857,0.16 3.965,-1.64 0.337,-0.52 0.056,-1.77 -1.551,-2.14 -1.248,-0.3 -1.317,0.28 -3.651,2.73 -1.7744,2.59 -0.5901,1.38 -0.4098,1.44 0.1113,1.78 0.6209,1.74 3.3591,1.62 4.601,0.25 2.4,-0.38"
     id="path176" />
</g>
<g
   id="g177"
   transform="translate(-326.855,-189.48109)">
  <path
     fill="none"
     stroke="#000000"
     stroke-width="3.75"
     stroke-linecap="round"
     stroke-linejoin="round"
     d="m 124.593,1010.55 -0.046,-2.13 -0.391,1.07 -0.862,-0.05 -0.958,0.66 -0.36,0.75 -0.133,-0.18 -0.834,0.45 -2.327,4.9 0.284,1.55 1.204,1.29 1.438,0.75 2.598,0.13 0.422,0.45 2.549,-1.09 4.324,-2.7 1.495,-1.4 0.575,-1.14 0.772,-0.41 0.694,-1.36 -0.126,-0.26 -0.907,2.66 0.228,2.67 0.649,1.08 1.322,1.22 1.92,0.65 2.793,-0.47 0.479,0.43 1.799,-1.74 0.342,-0.88 0.694,-0.39 0.292,-4.93"
     id="path177" />
</g>
<g
   id="g178"
   transform="translate(-326.855,-189.48109)">
  <path
     fill="none"
     stroke="#000000"
     stroke-width="3.75"
     stroke-linecap="round"
     stroke-linejoin="round"
     d="m 155.294,991.696 -1.739,-0.262 0.49,1.108 0.311,3.897 -1.152,9.391 -0.007,7.11 0.191,2.06 0.551,1.75 1.18,1.7 1.359,0.81"
     id="path178" />
</g>
<g
   id="g179"
   transform="translate(-326.855,-189.48109)">
  <path
     fill="none"
     stroke="#000000"
     stroke-width="3.75"
     stroke-linecap="round"
     stroke-linejoin="round"
     d="m 160.452,1012.01 -0.073,-1.54 0.838,-0.29 0.56,0.31 0.617,-0.58 3.437,-0.77 2.802,0.31 0.731,0.58 0.335,0.95 0.441,4.26 -0.073,2.69 -0.272,0.77 -0.895,-0.3 -2.075,0.06 -0.598,0.53 -1.887,-0.11 -0.672,0.52 -0.821,0.88 -0.194,1.12 0.913,2.76 0.247,-0.21 2.991,0.64 3.049,0.27 3.595,-0.06 3.142,-0.61 4.086,-0.21 0.99,0.23 2.593,-0.62"
     id="path179" />
</g>
<g
   id="g180"
   transform="translate(-326.855,-189.48109)">
  <path
     fill="none"
     stroke="#000000"
     stroke-width="3.75"
     stroke-linecap="round"
     stroke-linejoin="round"
     d="m 172.46,1017.71 0.111,1.76 -0.212,0.53 0.16,0.12 0.037,-0.39 0.077,1.12 0.133,-0.3 0.126,0.55 -0.154,-0.29 0.249,-0.45 -0.052,0.57 -0.205,-0.03 0.171,-0.2 0.162,0.26 0.046,-0.53 0.238,1.69 -0.051,-0.69 0.466,0.14 0.077,-0.46 0.336,0.05"
     id="path180" />
</g>
<g
   id="g181"
   transform="translate(-326.855,-189.48109)">
  <path
     fill="none"
     stroke="#000000"
     stroke-width="3.75"
     stroke-linecap="round"
     stroke-linejoin="round"
     d="m -133.784,994.422 -0.151,1.329 0.474,-0.604 -0.004,0.804 0.089,-0.255 0.264,0.4"
     id="path181" />
</g>
<metadata
   id="metadata181">
  <rdf:RDF>
    <cc:Work
       rdf:about="">
      <dc:title>Notebook</dc:title>
    </cc:Work>
  </rdf:RDF>
</metadata>
</svg>
